<?xml version="1.0" standalone="no"?>
<svg version="1.1" id="Layer_1" xmlns="http://www.w3.org/2000/svg" xmlns:xlink="http://www.w3.org/1999/xlink" x="0px" y="0px" width="595.28px" height="595.28px" viewBox="0 0 595.28 595.28" enable-background="new 0 0 595.28 595.28" xml:space="preserve">
<path id="color_x5F_2" fill="#c1ff70" d="M289.349,425.546c5.139,0.914,10.258,1.957,15.365,3.043
	c-5.796,15.656-11.868,31.251-16.264,47.374l-24.855-0.592c-0.003-0.004-0.004-0.008-0.006-0.013
	c-0.692-1.19,0.891-5.635,1.147-6.893c1.014-4.962,2.122-9.906,3.143-14.867c2.042-9.934,4.257-20.269,4.041-30.475
	c0.715,0.067,1.432,0.123,2.146,0.199l5.853,0.851c-0.018,0.302,0.685,0.337,1.401,0.204L289.349,425.546z M268.947,427.348
	l-3.028,21.75C267.383,441.929,268.687,434.625,268.947,427.348z M199.069,428.022c-7.467-1.509-15.17-1.492-22.686-2.638
	c4.008,2.795,7.398,6.384,9.676,10.504c0.307,0.158,0.478,0.397,0.37,0.653c0.02,0.038,0.044,0.074,0.063,0.113
	c0.051,0.099-0.079,0.236-0.307,0.378c0.182,0.088,0.333,0.214,0.426,0.396c2.187,4.267,6.58,8.616,11.733,11.717
	c0.511-4.074,0.716-8.184,1.304-12.25c0.341-2.356,0.75-4.673,1.437-6.956C201.647,428.07,201.166,428.445,199.069,428.022z
	 M203.416,431.583c-0.467,1.665-0.79,3.381-1.024,5.124L203.416,431.583z M275.744,263.34c0.134,0,0.269,0,0.403,0l0.645-1.565
	C276.466,262.304,276.116,262.826,275.744,263.34z M267.036,265.293c-2.438,0-4.875,0-7.313,0c0,0.016,0.001,0.032,0.001,0.047
	h7.453C267.124,265.329,267.079,265.312,267.036,265.293z M279.287,255.714l0.495-1.203c-0.096-0.016-0.192-0.033-0.288-0.049
	C279.442,254.882,279.373,255.299,279.287,255.714z M313.836,255.42c-5.051,0.102-10.232,0.293-15.419,0.307
	c1.672,0.172,3.045,0.28,3.848,0.28c4,0,13.334-0.667,13.334-0.667l0.336-1.246c-0.035,0.088-0.066,0.178-0.102,0.267
	C315.521,255.163,314.624,255.404,313.836,255.42z M254.782,222.098c0.045-2.512-0.079-5.03-0.416-7.495l-1.23-4.511
	c-1.916,0.234-3.818,0.498-5.709,0.921c0.398,0.273,0.789,0.569,1.164,0.916C251.513,214.63,253.455,218.225,254.782,222.098z
	 M324.851,220.971l0.08-0.297l-0.1-0.004C324.837,220.77,324.846,220.87,324.851,220.971z M278.143,216.216
	c-0.015,0.013-0.029,0.025-0.044,0.038c1.531,0.262,3.063,0.517,4.598,0.748L278.143,216.216z M260.894,236.784l-1.277-0.767
	c0.324,0.271,0.675,0.517,1.082,0.696C260.767,236.744,260.828,236.761,260.894,236.784z M253.338,262.521
	c-2.195,7.463-4.747,13.406-6.458,16.999c2.668-3.616,4.286-8.257,5.371-12.298C252.667,265.671,253.019,264.1,253.338,262.521z
	 M268.307,265.293c-0.077,0.015-0.155,0.033-0.232,0.046c-0.001,0-0.006,0-0.007,0.001h0.197l0.521-0.047
	C268.626,265.293,268.466,265.293,268.307,265.293z M243.017,283.341c-0.789-0.019-1.766-0.065-2.838-0.166
	c0.848,0.164,1.705,0.283,2.574,0.354C242.844,283.471,242.928,283.402,243.017,283.341z M268.932,227.677
	c-0.931,1.639-1.784,3.338-2.569,5.097c0.041,0.097,0.069,0.204,0.066,0.331c-0.059,2.519-1.362,4.687-3.459,5.483
	c1.479,1.571,4.522,2.919,6.885,3.678C269.937,237.4,269.074,232.543,268.932,227.677z M269.643,262.358
	c0.011-0.864-0.214-1.659-0.556-2.437c-0.05,0-0.1,0-0.15,0c0,1.056,0,2.111,0,3.167c0,0.089-0.043,0.173-0.115,0.251
	c0.196,0,0.393,0,0.59,0C269.559,263.014,269.64,262.648,269.643,262.358z M276.042,218.198c-1.597,1.61-3.035,3.327-4.338,5.141
	c0.123,0.127,0.195,0.295,0.181,0.519c-0.435,6.586,1.272,13.147,0.84,19.736c-0.063,0.962-1.647,1.141-2.32,1.027
	c-3.005-0.511-9.216-2.854-10.87-5.929c-0.712-0.193-1.351-0.498-1.911-0.893c0.692,9.094,0.146,18.436-2.1,27.259
	c-1.718,6.752-4.482,14.701-10.728,18.558c1.346,0.004-1.324,1.15-1.908,1.154c-6.777,0.052-13.25-2.76-18.786-6.521
	c-3.243-2.203-8.743-5.445-10.274-9.346c-0.058-0.148,0.131-0.328,0.433-0.495c-0.362-0.032-0.548-0.147-0.306-0.383
	c12.907-12.595,26.718-36.086,16.67-53.991c-0.023-0.042-0.021-0.089-0.01-0.136c-5.997-2.23-13.338-0.912-19.281,0.737
	c-2.32,0.644-4.681,1.375-6.986,2.264c-1.189,0.508-2.381,1.029-3.533,1.54c-2.499,1.206-4.862,2.649-6.946,4.442
	c-3.739,8.007-3.88,24.466,3.987,29.705c6.085-0.576,12.305-2.489,17.926-4.791c4.771-1.955,12.955-5.034,13.727-11.006
	c0.124-0.956,3.039-1.497,2.895-0.376c-0.819,6.334-9.301,9.993-14.413,12.087c-6.579,2.694-13.708,5.054-20.832,5.678
	c-0.067,0.006-0.124,0.005-0.185,0.007c-0.491,0.144-1.004,0.165-1.312-0.035c-0.427-0.278-0.827-0.592-1.212-0.924
	c-4.967,5.918-9.891,11.946-14.395,18.2c-1.818,2.633-3.598,5.245-5.194,7.646c-8.161,12.834-14.037,26.75-14.628,42.664
	c0.364,0.035,0.3,0.188,0.035,0.369c0.095-0.037,0.189-0.074,0.284-0.11c-0.135,0.196-0.247,0.426-0.348,0.675
	c-0.007,0.296-0.022,0.589-0.026,0.887c-0.002,0.188-0.142,0.354-0.352,0.496c-0.049,0.262-0.09,0.53-0.125,0.802
	c0.146,0.038,0.272,0.099,0.369,0.189c0.985,0.911,2.043,1.752,3.145,2.548c1.207,0.873,2.478,1.679,3.798,2.424
	c6.47,2.275,16.132,5.531,24.698,7.841c1.01,0.167,2.013,0.326,2.993,0.467c7.628,1.1,17.763,2.097,26.372-0.015
	c1.629-0.47,3.137-0.972,4.488-1.462c3.065-1.289,5.795-3.123,7.952-5.681c0.133-0.157,0.368-0.287,0.646-0.386
	c-0.105-0.069-0.174-0.162-0.178-0.288c-0.006-0.149,0.002-0.297-0.003-0.446c-0.566-19.834,7.937-38.236,22.114-51.88
	c0.296-4.348,0.951-8.671,0.705-13.041c-0.027-0.48,0.597-0.857,1.272-1.042c0.388-0.399,0.999-0.743,1.538-0.743
	c2.143,0,4.285,0,6.428,0c0-1.225,0-2.449,0-3.674c0-0.003,0.002-0.005,0.002-0.008c-0.025-0.078,0.004-0.178,0.126-0.307
	c0.44-0.463,1.312-0.717,1.933-0.717c0.979,0,1.959,0,2.939,0c0.265,0,0.697-0.04,0.838,0.256c0.574,1.21,1.074,2.949,0.279,4.194
	c-0.059,0.092-0.129,0.171-0.193,0.257c0.215,0,0.43,0,0.644,0c3.859-4.914,5.653-10.765,2.375-16.57
	c-0.772-1.368,1.976-2.489,2.646-1.301c1.337,2.367,1.937,4.743,1.965,7.078c0.139-0.018,0.27-0.021,0.382-0.001
	c10.768,1.98,22.365,1.369,33.338,1.107c1.633-4.252,3.143-8.562,4.51-12.905c1.82-5.786,4.365-12.521,4.145-18.763
	C306.583,221.913,291.204,220.871,276.042,218.198z M418.847,296.122c0.006,0.072,0.014,0.139,0.027,0.204
	c0.023-0.149,0.044-0.295,0.066-0.443c-0.053,0.018-0.105,0.026-0.158,0.041C418.815,295.982,418.841,296.045,418.847,296.122z
	 M418.747,291.859c0.035,0.4,0.287,0.707,0.617,0.907c-0.074,0.637-0.154,1.285-0.248,1.949c-0.746,0-1.492,0-2.236,0
	c-0.626,0-1.497,0.248-1.93,0.73c-0.459,0.512,0.396,0.619,0.723,0.619c0.219,0,0.436,0,0.654,0
	c-0.244,0.208-0.407,0.484-0.379,0.834c0.084,1.024,1.111,1.598,2.037,1.673c0.16,0.013,0.334,0.004,0.51-0.021
	c-0.374,2.076-0.82,4.226-1.316,6.399c-0.076-0.007-0.15-0.011-0.221-0.011c-0.188,0-0.374,0-0.561,0
	c-0.646,0-1.514,0.492-1.591,1.192c-0.013,0.114,0.001,0.212,0.025,0.303c-0.511,0.151-1.126,0.444-1.126,0.889
	c0,0.187,0,0.373,0,0.56c0,0.653,0.742,0.717,1.261,0.655c0.218-0.026,0.629-0.122,0.985-0.289c0.139,0.031,0.277,0.059,0.418,0.086
	c-0.082,0.329-0.164,0.657-0.247,0.985c-0.038-0.107-0.067-0.217-0.075-0.32c-0.064-0.785-2.978-0.202-2.898,0.776
	c0.068,0.842,0.873,1.374,1.659,1.438c0.271,0.022,0.555,0,0.834-0.049c-0.016,0.058-0.03,0.117-0.046,0.175
	c-0.021,0.08-0.045,0.16-0.066,0.24c-0.833-0.033-2.381,0.365-2.381,0.996c0,0.187,0,0.374,0,0.56c0,0.316,1.09,0.276,1.933-0.001
	c-0.294,0.967-0.619,1.944-0.965,2.919c-0.48-0.211-1.331,0.06-1.72,0.207c-0.075,0.028-0.246,0.102-0.421,0.197
	c0.091-0.137,0.155-0.288,0.173-0.452c0.083-0.767-0.762-0.995-1.352-0.995c-0.56,0-1.119,0-1.68,0c-0.648,0-1.514,0.494-1.59,1.196
	c-0.083,0.767,0.762,0.995,1.352,0.995c0.56,0,1.119,0,1.68,0c0.293,0,0.628-0.105,0.916-0.28c-0.023,0.087-0.01,0.175,0.084,0.26
	c0.516,0.467,1.237,0.542,1.829,0.848c-0.597,1.559-1.231,3.092-1.868,4.551c-0.398-0.041-0.873,0.034-1.037,0.078
	c-0.531,0.143-1.271,0.473-1.254,1.115c0.016,0.61,0.148,1.195,0.455,1.728c0.098,0.17,0.205,0.308,0.32,0.425
	c-1.423,3.036-2.687,5.452-3.316,6.629H396.15c-4.028-0.29-8.124-0.549-9.888-0.549c-2.471,0-3.416-1.79-4.405-6.295
	c0.222-0.135,0.409-0.309,0.52-0.531c0.228-0.454,0.458-0.904,0.726-1.336c0.198-0.32,0.539-0.705,0.757-0.821
	c0.439-0.235,1.179-0.801,0.718-1.37c-0.426-0.524-1.423-0.429-1.95-0.146c-0.551,0.294-1.008,0.65-1.403,1.057
	c-0.11-0.582-0.225-1.194-0.345-1.839c0.03,0,0.06,0,0.09,0c0.63,0,1.501-0.242,1.927-0.74c0.447-0.523-0.384-0.657-0.733-0.657
	c-0.272,0-0.546,0-0.819,0c0.082-0.073,0.178-0.133,0.257-0.208c0.426-0.405,0.358-0.861-0.262-0.975
	c-0.282-0.052-0.612-0.032-0.936,0.032c-0.009-0.049-0.02-0.101-0.028-0.15c0.595-0.204,1.185-0.439,1.771-0.732
	c0.353-0.176,1.231-0.696,0.764-1.202c-0.433-0.467-1.432-0.296-1.924-0.051c-0.303,0.151-0.604,0.293-0.907,0.425
	c-0.151-0.785-0.311-1.603-0.481-2.458c-0.152-0.764-0.275-1.544-0.382-2.332c0.028-0.016,0.062-0.027,0.089-0.043
	c0.098-0.057,0.395-0.222,0.35-0.393c-0.046-0.17-0.387-0.166-0.5-0.166c-0.004,0-0.008,0-0.012,0
	c-0.07-0.586-0.127-1.178-0.174-1.774c0.08-0.093,0.127-0.193,0.127-0.3c0-0.187,0-0.374,0-0.56c0-0.078-0.076-0.13-0.195-0.165
	c-0.051-0.9-0.078-1.807-0.082-2.722c0.152,0,0.304,0,0.455,0c0.621,0,1.492-0.254,1.933-0.717c0.474-0.498-0.412-0.571-0.71-0.571
	c-0.187,0-0.373,0-0.559,0c-0.129,0-0.273,0.018-0.418,0.039c0.203-0.311,0.106-0.593-0.406-0.665
	c-0.085-0.012-0.185-0.006-0.278-0.008c0.031-1.085,0.094-2.175,0.179-3.265c0.434,0,0.868,0,1.302,0
	c0.31,0,0.679-0.116,0.984-0.315c-0.074,0.266,0.06,0.497,0.489,0.574c0.635,0.113,1.579-0.078,2.05-0.549
	c0.186-0.187,0.372-0.373,0.559-0.56c0.407-0.408,0.376-0.847-0.257-0.959c-0.635-0.113-1.579,0.078-2.05,0.549
	c-0.069,0.07-0.14,0.14-0.209,0.209c0.01-0.039,0.026-0.076,0.031-0.116c0.093-0.758-0.775-0.943-1.338-0.943
	c-0.455,0-0.911,0-1.366,0c0.1-0.926,0.215-1.849,0.346-2.766c0.666-0.117,1.34-0.312,2.023-0.622
	c0.338-0.153,1.237-0.68,0.773-1.164c-0.029-0.031-0.067-0.052-0.102-0.077c0.264-0.25,0.189-0.516-0.303-0.503
	c-0.699,0.019-1.385,0.162-2.067,0.299c0.148-0.888,0.308-1.767,0.479-2.636c0.354,0,0.708,0,1.062,0
	c0.607,0,1.513-0.459,1.609-1.124c0.029-0.197-0.017-0.348-0.104-0.467c0.146-0.409-0.039-0.813-0.841-0.956
	c-0.384-0.068-0.764-0.148-1.14-0.236c0.088-0.392,0.178-0.778,0.27-1.163c0.037,0.036,0.074,0.068,0.111,0.105
	c0.498,0.496,2.511-0.198,2.762-0.756c0.39-0.02,0.785-0.062,1.184-0.131c0.531-0.093,1.482-0.324,1.658-0.945
	c0.172-0.611-0.908-0.608-1.232-0.551c-1.413,0.247-2.679-0.093-3.669-0.903c0.298-1.094,0.601-2.16,0.909-3.166
	c0.608-0.171,1.151-0.524,1.231-0.912c0.241,0.089,0.479,0.188,0.723,0.271c0.678,0.231,1.443,0.1,2.052-0.271
	c0.33-0.201,0.936-0.898,0.255-1.13c-1.08-0.368-2.138-0.793-3.201-1.201c0.317-0.917,0.631-1.794,0.933-2.579
	c0.065-0.17,0.142-0.329,0.213-0.493c0.004,0,0.008,0.001,0.011,0.001c-0.111,0.524,0.417,0.9,0.937,0.94
	c-0.099-0.008,0.098,0.042,0.16,0.082c0.109,0.068,0.382,0.325,0.145,0.095c0.524,0.509,1.324,0.476,1.958,0.179
	c0.413-0.194,1.229-0.917,0.702-1.428c-0.447-0.434-0.974-0.747-1.574-0.877c-0.017-0.08-0.088-0.152-0.252-0.206
	c-0.424-0.138-0.854-0.256-1.279-0.384c0.455-0.764,0.969-1.444,1.519-2.057c0.253,0.099,0.503,0.203,0.763,0.291
	c0.633,0.215,1.473-0.026,2.037-0.327c0.305-0.162,0.954-0.701,0.311-0.919c-0.511-0.173-0.999-0.375-1.48-0.59
	c0.917-0.735,1.879-1.324,2.822-1.794c0.264,0.114,0.533,0.217,0.799,0.308c0.654,0.223,1.459,0.031,2.044-0.301
	c0.317-0.18,0.946-0.792,0.284-1.019c-0.104-0.036-0.193-0.079-0.292-0.117c0.21-0.064,0.415-0.124,0.612-0.177
	c1.701-0.462,2.896-0.542,2.896-0.542l1.211-0.093c-0.109,0.736-0.221,1.473-0.318,2.206c-0.143,1.073,2.768,0.527,2.891-0.393
	c0.09-0.676,0.193-1.355,0.293-2.033l4.59-0.353l0.861,1.076c-0.058,1.121,0.221,2.008,0.969,2.535
	c-0.236,2.662,1.166,3.449,2.99,3.332c-0.009,0.074-0.011,0.149,0,0.227c0.364,2.664,2.77,3.115,5.104,2.804
	c0.182,0.426,0.391,0.943,0.615,1.539c-0.356,0.127-0.677,0.333-0.871,0.652c-0.314,0.52,0.17,0.885,0.647,0.958
	c-0.31,0.047-0.619,0.084-0.932,0.093c-0.638,0.018-1.493,0.231-1.926,0.743c-0.208,0.245-0.132,0.407,0.04,0.512
	c-0.012,0.014-0.031,0.022-0.043,0.037c-0.43,0.527,0.366,0.708,0.744,0.696c0.605-0.018,1.195-0.109,1.779-0.272
	c0.082-0.023,0.906-0.294,0.597-0.193c0.284-0.093,0.21-0.088,0.423-0.094c0.176-0.005,0.367-0.028,0.561-0.064
	c0.374,1.292,0.714,2.721,0.947,4.216c-0.121,0.071-0.229,0.16-0.336,0.249c-0.147,0.011-0.295,0.016-0.442,0.017
	c-0.365,0-0.825,0.167-1.161,0.44c-0.092,0-0.184,0-0.275,0c-0.693,0-1.455,0.185-2.049,0.549c-0.458,0.28-0.396,0.607,0.162,0.607
	c0.374,0,0.748,0,1.121,0c0.217,0,0.439-0.024,0.661-0.06c0.204,0.404,0.84,0.501,1.262,0.5c0.462-0.001,0.886-0.078,1.292-0.198
	c0.096,1.488,0.054,3.212-0.1,5.107C419.09,290.901,418.698,291.293,418.747,291.859z M413.839,280.919
	c-0.186,0.187-0.372,0.373-0.559,0.56c-0.475,0.476,0.414,0.557,0.701,0.538c0.639-0.041,1.467-0.239,1.936-0.709
	c0.186-0.187,0.372-0.373,0.559-0.56c0.475-0.476-0.414-0.557-0.701-0.538C415.136,280.251,414.308,280.449,413.839,280.919z
	 M411.805,281.133c0.187,0,0.374,0,0.561,0c0.663,0,1.522-0.208,1.909-0.807c0.37-0.574-0.312-0.912-0.802-0.912
	c-0.187,0-0.374,0-0.561,0c-0.663,0-1.522,0.208-1.909,0.807C410.633,280.795,411.314,281.133,411.805,281.133z M409.355,284.817
	c-0.467,0.505,0.404,0.594,0.716,0.594c0.747,0,1.494,0,2.24,0c0.623,0,1.494-0.251,1.931-0.724
	c0.467-0.505-0.404-0.594-0.716-0.594c-0.747,0-1.494,0-2.24,0C410.663,284.094,409.792,284.345,409.355,284.817z M413.854,286.384
	c-0.561,0-1.12,0-1.68,0c-0.102,0-0.206,0.011-0.311,0.019c-0.577-0.125-1.945,0.108-2.445,0.618
	c-0.451,0.114-0.901,0.312-1.181,0.604c-0.473,0.498,0.412,0.571,0.71,0.57c0.707-0.001,1.822-0.124,2.529-0.596
	c0.168,0,0.338,0,0.506,0c0.7,0,1.455-0.163,2.049-0.549C414.479,286.761,414.43,286.384,413.854,286.384z M400.813,270.866
	c-0.092,0.759,0.772,0.951,1.339,0.951c0.374,0,0.748,0,1.121,0c0.445,0,1.005-0.24,1.332-0.62c0.362-0.092,0.714-0.23,1.021-0.417
	c0.46-0.279,0.396-0.6-0.16-0.6c-0.187,0-0.374,0-0.561,0c-0.04,0-0.081,0.007-0.121,0.008c-0.226-0.384-0.823-0.495-1.253-0.495
	c-0.374,0-0.748,0-1.121,0C401.774,269.694,400.896,270.176,400.813,270.866z M398.591,275.623c0,0.56,0,1.12,0,1.68
	c0,0.62,2.898,0.157,2.898-0.776c0-0.56,0-1.12,0-1.68C401.489,274.226,398.591,274.689,398.591,275.623z M399.26,303.081
	c0.001-0.687-0.724-0.835-1.293-0.777c-0.491,0.05-1.621,0.407-1.623,1.073c-0.001,0.429,0.017,0.872-0.288,1.204
	c-0.43,0.467-0.313,1.03,0.322,1.205c0.664,0.184,1.576-0.034,2.049-0.549C399.012,304.602,399.258,303.936,399.26,303.081z
	 M396.911,314.815c0,0.187,0,0.373,0,0.56c0,0.622,2.898,0.158,2.898-0.776c0-0.187,0-0.373,0-0.56
	C399.81,313.417,396.911,313.88,396.911,314.815z M398.376,282.846c0.671,0,1.526-0.201,1.905-0.821
	c0.355-0.582-0.3-0.965-0.815-0.965c-0.188,0-0.374,0-0.561,0c-0.671,0-1.526,0.201-1.905,0.821c-0.355,0.582,0.3,0.965,0.815,0.965
	C398.003,282.846,398.189,282.846,398.376,282.846z M395.741,267.426c0.373,0,0.747,0,1.121,0c0.695,0,1.454-0.176,2.049-0.549
	c0.452-0.284,0.396-0.631-0.17-0.631c-0.373,0-0.747,0-1.121,0c-0.695,0-1.454,0.176-2.049,0.549
	C395.119,267.079,395.175,267.426,395.741,267.426z M391.675,277.311c0.41,0.001,0.578-0.058,0.873,0.212
	c0.527,0.485,1.328,0.419,1.947,0.138c0.375-0.171,1.252-0.867,0.721-1.354c-0.72-0.661-1.518-0.905-2.486-0.907
	c-0.686-0.002-1.533,0.189-1.897,0.847C390.504,276.839,391.111,277.31,391.675,277.311z M394.015,284.266c-0.373,0-0.746,0-1.119,0
	c-0.628,0-1.514,0.476-1.6,1.16c-0.096,0.756,0.778,0.932,1.334,0.932c0.373,0,0.746,0,1.119,0c0.628,0,1.514-0.476,1.6-1.16
	C395.444,284.441,394.57,284.266,394.015,284.266z M390.189,290.521c0,0.66,0.738,0.739,1.267,0.678
	c0.445-0.052,1.638-0.387,1.638-1.017c0-0.187,0-0.373,0-0.56c0-0.66-0.738-0.739-1.267-0.678c-0.445,0.052-1.638,0.387-1.638,1.017
	C390.189,290.147,390.189,290.334,390.189,290.521z M389.073,299.138c0.047,0.174,0.384,0.177,0.502,0.177c0.373,0,0.746,0,1.119,0
	c0.645,0,1.348-0.175,1.922-0.485c0.646,0.483,1.594,0.667,2.366,0.684c0.637,0.013,1.515-0.236,1.919-0.767
	c0.42-0.552-0.356-0.751-0.761-0.759c-0.215-0.004-0.591-0.079-0.87-0.279c-0.355-0.253-0.482-0.603-0.5-1.026
	c-0.035-0.829-2.942-0.269-2.898,0.776c0.012,0.28,0.094,0.513,0.203,0.727c-0.202,0-0.404,0-0.605,0
	c-0.691,0-1.455,0.194-2.05,0.549C389.317,298.795,389.026,298.963,389.073,299.138z M391.843,310.432
	c0.475-0.496-0.413-0.566-0.708-0.566c-0.373,0-0.746,0-1.119,0c-0.621,0-1.492,0.255-1.933,0.716
	c-0.475,0.496,0.413,0.566,0.708,0.566c0.373,0,0.746,0,1.119,0C390.531,311.148,391.402,310.894,391.843,310.432z M390.095,316.183
	c-0.558,0.044-1.6,0.447-1.6,1.158c0,0.187,0,0.374,0,0.561c0,0.721,0.701,0.978,1.334,0.928c0.558-0.044,1.6-0.447,1.6-1.158
	c0-0.187,0-0.374,0-0.561C391.429,316.39,390.728,316.133,390.095,316.183z M389.947,304.932c0.46-0.279,0.396-0.596-0.16-0.596
	c-0.187,0-0.373,0-0.561,0c-0.691,0-1.454,0.189-2.049,0.549c-0.46,0.279-0.396,0.596,0.16,0.596c0.187,0,0.373,0,0.561,0
	C388.59,305.481,389.353,305.292,389.947,304.932z M387.839,296.521c-0.187,0-0.373,0-0.561,0c-0.654,0-1.514,0.499-1.587,1.207
	c-0.079,0.769,0.757,1.012,1.356,1.012c0.187,0,0.373,0,0.561,0c0.654,0,1.514-0.499,1.587-1.207
	C389.274,296.764,388.438,296.521,387.839,296.521z M384.89,287.701c0.652-0.056,1.205-0.19,1.795-0.479
	c0.146-0.071,0.301-0.185,0.426-0.294c0.006-0.005,0.008-0.007,0.014-0.012c0.313-0.112,0.604-0.271,0.811-0.519
	c0.427-0.509-0.363-0.707-0.738-0.674c-0.652,0.056-1.205,0.19-1.795,0.479c-0.145,0.071-0.299,0.185-0.424,0.294
	c-0.006,0.005-0.006,0.006-0.012,0.01c-0.314,0.113-0.606,0.272-0.814,0.52C383.725,287.536,384.515,287.733,384.89,287.701z
	 M386.275,291.489c-0.187-0.187-0.373-0.373-0.559-0.56c-0.651-0.652-3.376,0.412-2.705,1.084c0.187,0.187,0.373,0.373,0.559,0.56
	C384.222,293.225,386.946,292.161,386.275,291.489z M386.918,304.025c0.001,0,0.002,0,0.003-0.001c0,0,0,0.001,0.001,0
	c0.164-0.088,0.315-0.191,0.44-0.318c0.468-0.475-0.405-0.569-0.703-0.543c-0.896,0.077-2.59,0.403-2.625,1.576
	C384.019,305.254,386.758,304.879,386.918,304.025z M385.927,314.412c0.595-0.04,1.588-0.471,1.588-1.203c0-0.187,0-0.373,0-0.56
	c0-0.737-0.692-1.051-1.354-1.007c-0.595,0.04-1.588,0.471-1.588,1.203c0,0.187,0,0.373,0,0.56
	C384.573,314.142,385.266,314.456,385.927,314.412z M388.323,325.496c-0.661,0.023-1.458,0.243-1.928,0.736
	c-1.164,1.224-1.241,2.652-1.242,4.26c0,0.666,2.897,0.189,2.898-0.776c0-1.338,0.031-2.56,1-3.578
	C389.528,325.637,388.644,325.485,388.323,325.496z M389.258,325.607c0.708,0.425,1.452,0.541,2.267,0.563
	c0.65,0.017,1.516-0.509,1.588-1.203c0.082-0.78-0.76-0.991-1.354-1.006c0.132,0.003-0.113-0.038-0.113-0.027
	c-0.071-0.023-0.144-0.047-0.213-0.078c0.082,0.056,0.061,0.044-0.064-0.034c-0.145-0.086-0.274-0.196-0.402-0.304
	c-0.165-0.14-0.139-0.123-0.239-0.223c-0.298-0.298-0.671-0.43-1.059-0.442c-0.021-0.041-0.034-0.083-0.063-0.123
	c-0.438-0.61-1.383-0.552-1.981-0.262c-0.425,0.206-0.521,0.247-0.95,0.335c0.268-0.056-0.309,0.008-0.366,0.01
	c-0.237,0.01-0.475,0.007-0.712,0.007c-0.66,0-1.514,0.505-1.584,1.218c-0.076,0.772,0.752,1.033,1.361,1.032
	c0.977,0,1.869-0.124,2.753-0.431C388.478,324.993,388.826,325.348,389.258,325.607z M394.979,330.203
	c-0.099-0.062-0.1-0.082-0.182-0.172c-0.295-0.326-0.508-0.729-0.706-1.117c-0.32-0.625-1.489-0.417-1.962-0.193
	c-0.593,0.281-1.021,0.816-0.696,1.452c0.515,1.003,1.271,2.01,2.499,2.075c0.694,0.037,1.554-0.199,1.891-0.875
	C396.129,330.759,395.569,330.249,394.979,330.203z M397.571,312.359c0-0.374,0-0.747,0-1.12c0-0.709-2.898-0.219-2.898,0.776
	c0,0.374,0,0.747,0,1.12C394.673,313.845,397.571,313.354,397.571,312.359z M398.182,327.058c0.462-0.052,1.632-0.393,1.633-1.036
	c0-0.137,0.003-0.274,0.009-0.411c0.001-0.016,0.002-0.018,0.004-0.031c0.271-0.167,0.489-0.39,0.548-0.677
	c0.052-0.255-0.055-0.425-0.231-0.535c0.184-0.184,0.368-0.367,0.552-0.551c0.491-0.491,0.222-1.199-0.379-1.413
	c-0.727-0.259-1.525,0.026-2.049,0.549c-0.187,0.187-0.374,0.373-0.561,0.56c-0.362,0.362-0.309,0.841-0.017,1.154
	c-0.204,0.136-0.392,0.292-0.523,0.497c-0.236,0.368-0.26,0.76-0.261,1.184C396.905,327.016,397.64,327.119,398.182,327.058z
	 M402.524,330.165c-0.56-0.56-1.12-1.119-1.68-1.68c-0.542-0.544-3.201,0.522-2.727,0.997c0.559,0.561,1.119,1.12,1.68,1.68
	C400.342,331.706,402.999,330.639,402.524,330.165z M402.483,298.098c-0.373-0.374-0.747-0.747-1.121-1.12
	c-0.536-0.536-1.301-0.587-1.978-0.253c-0.458,0.226-1.203,1.023-0.667,1.558c0.373,0.374,0.747,0.747,1.121,1.12
	c0.535,0.536,1.302,0.586,1.978,0.253C402.275,299.43,403.02,298.633,402.483,298.098z M403.845,287.543c0.561,0,1.12,0,1.68,0
	c0.655,0,1.514-0.5,1.587-1.208c0.079-0.77-0.756-1.015-1.356-1.015c-0.561,0-1.12,0-1.68,0c-0.655,0-1.514,0.5-1.587,1.208
	C402.409,287.298,403.244,287.543,403.845,287.543z M407.841,325.765c-0.039,0-0.077-0.006-0.116-0.01
	c-0.021-0.005-0.049-0.013-0.091-0.022c-0.219-0.058-0.434-0.134-0.648-0.206c-0.446-0.148-0.912-0.298-1.385-0.321
	c-0.683-0.033-1.547,0.205-1.896,0.856c-0.327,0.614,0.281,1.074,0.853,1.102c0.039,0,0.077,0.006,0.116,0.01
	c0.021,0.005,0.049,0.013,0.091,0.022c0.219,0.058,0.434,0.134,0.648,0.206c0.446,0.148,0.912,0.298,1.385,0.321
	c0.683,0.033,1.547-0.205,1.896-0.856C409.021,326.252,408.412,325.792,407.841,325.765z M404.229,306.956
	c0.705,0.223,1.537-0.037,2.049-0.549c0.188-0.187,0.374-0.374,0.561-0.56c0.474-0.473,0.258-1.114-0.35-1.306
	c-0.705-0.223-1.537,0.037-2.049,0.549c-0.188,0.187-0.374,0.374-0.561,0.56C403.406,306.123,403.622,306.764,404.229,306.956z
	 M407.134,319.973c-0.701,0-1.454,0.159-2.049,0.549c-0.443,0.291-0.396,0.676,0.182,0.676c0.746,0,1.492,0,2.238,0
	c0.701,0,1.454-0.159,2.049-0.549c0.443-0.291,0.396-0.676-0.182-0.676C408.626,319.973,407.88,319.973,407.134,319.973z
	 M406.76,299.593c-0.374,0-0.747,0-1.121,0c-0.657,0-1.519,0.213-1.911,0.798c-0.381,0.568,0.32,0.876,0.792,0.876
	c0.374,0,0.747,0,1.121,0c0.657,0,1.519-0.213,1.911-0.798C407.933,299.9,407.231,299.593,406.76,299.593z M408.474,278.711
	c0.369-0.162,1.238-0.776,0.746-1.267c-0.722-0.719-1.418-1.339-2.476-1.425c-0.653-0.053-1.546,0.234-1.904,0.822
	c-0.371,0.608,0.314,0.927,0.816,0.968c-0.151-0.012,0.143,0.123,0.184,0.155c0.251,0.198,0.475,0.434,0.7,0.659
	C407.026,279.107,407.913,278.958,408.474,278.711z M408.09,298.293c0,0.732,0.695,1.031,1.349,0.984
	c0.584-0.041,1.591-0.464,1.591-1.19c0-0.373,0-0.747,0-1.12c0-0.732-0.695-1.031-1.349-0.984c-0.584,0.041-1.591,0.464-1.591,1.19
	C408.09,297.546,408.09,297.92,408.09,298.293z M411.251,310.276c-0.373,0-0.746,0-1.119,0c-0.648,0-1.514,0.222-1.916,0.778
	c-0.403,0.556,0.339,0.804,0.771,0.804c0.373,0,0.746,0,1.119,0c0.648,0,1.514-0.222,1.916-0.778
	C412.426,310.524,411.684,310.276,411.251,310.276z M416.325,302.571c-0.187,0-0.373,0-0.561,0c-0.623,0-1.494,0.251-1.931,0.723
	c-0.021,0.022-0.024,0.039-0.04,0.059c-0.154-0.473-0.849-0.577-1.294-0.577c-0.373,0-0.746,0-1.119,0
	c-0.614,0-1.513,0.464-1.606,1.136c-0.104,0.748,0.792,0.889,1.323,0.889c0.373,0,0.746,0,1.119,0c0.596,0,1.452-0.438,1.589-1.078
	c0.184,0.13,0.561,0.164,0.744,0.164c0.187,0,0.373,0,0.561,0c0.623,0,1.494-0.251,1.931-0.723
	C417.508,302.659,416.636,302.571,416.325,302.571z M414.392,299.923c-0.457,0.514,0.394,0.625,0.725,0.625c0.373,0,0.746,0,1.119,0
	c0.626,0,1.497-0.247,1.928-0.732c0.457-0.514-0.394-0.625-0.725-0.625c-0.373,0-0.746,0-1.119,0
	C415.693,299.191,414.822,299.438,414.392,299.923z M414.371,297.988c-0.645-0.119-1.567,0.08-2.049,0.549
	c-0.02,0.019-0.041,0.036-0.062,0.054c-0.531,0.113-1.216,0.416-1.349,0.91c-0.172,0.641,0.902,0.604,1.239,0.577
	c0.885-0.07,1.84-0.491,2.481-1.115C415.052,298.555,414.997,298.104,414.371,297.988z M414.947,291.368
	c0.085-0.765-0.765-0.983-1.348-0.983c-0.746,0-1.492,0-2.238,0c-0.645,0-1.514,0.491-1.592,1.19
	c-0.085,0.765,0.765,0.983,1.348,0.983c0.746,0,1.492,0,2.238,0C414,292.558,414.869,292.067,414.947,291.368z M415.155,289.499
	c0.656,0,1.519-0.214,1.912-0.793c0.386-0.566-0.323-0.862-0.787-0.862c-0.188,0-0.374,0-0.561,0c-0.656,0-1.519,0.214-1.912,0.793
	c-0.386,0.566,0.323,0.862,0.787,0.862C414.782,289.499,414.969,289.499,415.155,289.499z M419.311,289.81
	c-0.187-0.187-0.374-0.373-0.561-0.56c-0.651-0.65-3.374,0.415-2.705,1.083c0.187,0.187,0.374,0.373,0.561,0.56
	C417.257,291.543,419.979,290.478,419.311,289.81z"></path>
<path id="color_x5F_1" d="M262.581,177.021c0.595-0.294,1.367-0.499,2.029-0.353c3.509,0.773,6.452-0.346,8.022-3.651
	c0.365-0.768,3.118-1.016,2.865-0.484c-2.334,4.912-8.276,6.404-13.255,5.308C261.574,177.692,262.346,177.137,262.581,177.021z
	 M293.278,181.771c-2.103,2.358-3.904,4.937-5.854,7.429c-1.117,1.429,1.646,1.698,2.395,0.741c2.217-2.834,4.218-5.797,6.719-8.398
	c0.647-0.673,0.014-1.223-0.677-1.354c-3.596-0.684-5.936-3.253-7.587-6.352c-0.557-1.046-3.343-0.039-2.664,1.233
	C287.373,178.377,289.851,180.7,293.278,181.771z M281.55,195.856c2.863,0.628,5.767-0.125,8.207-1.668
	c0.512-0.323,0.314-0.76-0.221-0.825c-0.721-0.087-1.45,0.17-2.049,0.549c-1.289,0.815-2.649,0.891-4.109,0.57
	C282.618,194.315,279.993,195.515,281.55,195.856z M318.341,247.568c-0.768,2.188-1.568,4.365-2.406,6.526
	c-0.035,0.088-0.066,0.178-0.102,0.267c-0.313,0.802-1.209,1.043-1.997,1.059c-5.051,0.102-10.232,0.293-15.419,0.307
	c-6.277,0.016-12.561-0.234-18.635-1.215c-0.096-0.016-0.192-0.033-0.288-0.049c-0.052,0.419-0.121,0.837-0.207,1.252
	c-0.434,2.089-1.302,4.122-2.495,6.061c-0.326,0.529-0.676,1.051-1.048,1.565c0.134,0,0.269,0,0.403,0c0.927,0,1.854,0,2.779,0
	c0.848,0,1.006,0.366,0.811,0.78c0.074,0.058,0.118,0.133,0.117,0.228c-0.046,5.384-0.465,10.774-0.846,16.143
	c-0.05,0.702-1.544,0.933-2.025,0.957c-6.988,0.348-13.997,0.796-20.996,0.839c-0.674,0.004-0.855-0.175-0.771-0.41
	c-11.962,13.021-18.969,29.927-18.334,47.838c0.01,0.27-0.163,0.508-0.428,0.7c0.024,0.011,0.044,0.021,0.068,0.032
	c0.103,0.006,0.203,0.02,0.299,0.048c21.883,6.629,43.602,22.118,55.923,41.51c0.245,0.385,0.179,0.753-0.05,1.055
	c3.385,7.598,10.207,13.51,11.656,21.938c1.74,10.129,0.028,20.641-3.104,30.307c-0.082,0.252-0.479,0.456-0.949,0.593
	c1.832,0.373,3.664,0.753,5.494,1.141c0.885-0.318,2.285-0.374,2.171-0.065c-0.065,0.176-0.131,0.352-0.196,0.528
	c0.327,0.182,0.132,0.461-0.266,0.716c-5.896,15.917-12.079,31.771-16.478,48.185c-0.183,0.682-2.985,1.046-2.85,0.541
	c0.088-0.328,0.188-0.652,0.276-0.98c4.396-16.123,10.468-31.718,16.264-47.374c-5.107-1.086-10.227-2.129-15.365-3.043
	c-2.554-0.454-5.112-0.872-7.677-1.247c-0.116,0.03-0.233,0.057-0.353,0.079c-0.717,0.133-1.419,0.098-1.401-0.204
	c0.001-0.012-0.005-0.021-0.002-0.033c0.007-0.029,0.013-0.06,0.02-0.089c-1.952-0.269-3.908-0.521-5.87-0.729
	c-0.714-0.076-1.431-0.132-2.146-0.199c0.216,10.206-1.999,20.541-4.041,30.475c-1.021,4.961-2.129,9.905-3.143,14.867
	c-0.257,1.257-1.84,5.702-1.147,6.893c0.002,0.004,0.003,0.008,0.006,0.013c0.758,1.343-1.976,2.45-2.654,1.283
	c-0.937-1.612,0.197-4.724,0.525-6.362c0.943-4.709,2-9.395,2.977-14.097c0.487-2.347,0.99-4.715,1.477-7.098
	c1.464-7.169,2.768-14.473,3.028-21.75c0.061-1.683,0.071-3.364,0.009-5.042c-0.043-1.145,2.073-1.615,2.74-0.764
	c2.873,0.231,5.736,0.538,8.59,0.91c1.422-6.748,2.133-14.131-1.441-20.33c-3.375-5.852-8.662-10.415-13.501-15.091
	c-2.53,2.521-5.447,5.073-7.995,7.196c-1.125,1.329-2.178,2.728-3.124,4.227c-0.02,0.03-0.048,0.059-0.073,0.087
	c0.71,1.16-1.976,2.2-2.691,1.193c-0.123-0.173-0.256-0.336-0.381-0.507c-0.094,0.071-0.146,0.111-0.146,0.111
	s-11.334-13.333-25.334-21.333c-7.713-4.407-11.981-6.384-14.264-7.273c-2.601,2.983-4.871,6.243-6.631,9.858
	c-0.286,0.587-0.534,1.186-0.797,1.78c-0.67,1.696-1.35,3.441-2,5.149c-2.082,6.242-3.189,12.762-3.95,19.342
	c-0.058,0.501-1.246,0.915-2.077,0.916c-0.098,0.016-0.2,0.025-0.309,0.024c-0.32-0.002-0.641-0.011-0.961-0.015
	c0,5.517,0,11.034,0,16.55c0,0.215-0.178,0.402-0.444,0.556c3.403,0.403,6.744,1.046,9.926,2.275
	c0.478,0.185,0.748,0.532,0.521,1.041c-0.487,1.093-0.874,2.222-1.197,3.374c-0.467,1.665-0.79,3.381-1.024,5.124
	c-0.62,4.606-0.66,9.386-1.331,13.834c-0.004,0.024-0.015,0.046-0.021,0.07c5.907,2.9,12.435,4.017,17.66,1.562
	c1.413-0.663,3.04,0.673,1.234,1.521c-12.481,5.862-30.377-4.087-36.221-15.49c-0.061-0.119-0.073-0.236-0.056-0.348
	c-8.688,3.179-17.823,5.235-26.343,8.785c-7.705,3.21-14.774,7.862-23.015,9.654c-0.203,0.044-0.385,0.057-0.552,0.054
	c0.04,0.341,0.065,0.677,0.113,1.021c0.025,0.181-0.178,0.356-0.482,0.506c0.224,8.164,4.146,15.532,10.813,20.409
	c1.218,0.892-1.427,2.122-2.281,1.497c-7.58-5.546-11.767-13.87-11.436-23.286c0.006-0.186,0.103-0.354,0.249-0.502
	c-1.141-12.422,3.04-22.688,11.432-32.015c-0.597-1.331-0.558-2.853-0.554-4.288c-1.225-0.152-3.096-0.432-3.525-1.584
	c-0.357-0.958,0.475-1.91,1.161-2.483c0.862-0.722,1.823-1.353,2.836-1.905c-7.392-39.505-12.228-79.698-16.71-119.621
	c-0.039-0.344,0.396-0.644,0.939-0.839c-0.926,0.078-1.892,0.039-2.855-0.117c-2.477,3.424-6.785,5.036-10.174,1.371
	c-2.664-2.881-4.955-8.49-2.387-12.092c-0.105-0.976-0.064-2,0.201-3.079c0.08-0.322,0.464-0.585,0.928-0.756
	c-0.591-3.958,3.012-6.621,6.26-8.155c-0.322-1.834-0.055-3.658,1.054-5.218c0.17-0.24,0.694-0.444,1.24-0.556
	c-0.387-0.257,0.546-1.078,1.447-1.254c0.371-0.073,0.744-0.09,1.117-0.076c-3.795-22.428-5.988-45.188-8.491-67.782
	c-1.439-13.003-2.838-26.01-4.203-39.021c-0.333-3.17-2.29-8.66,1.298-10.651c3.635-2.017,7.055-1.272,10.276,1.189
	c0.213,0.163-0.045,0.432-0.477,0.671c0,0.006,0.005,0.01,0.006,0.016c3.515,33.964,6.332,68.27,11.17,102.151
	c16.844-12.879,37.643-21.492,58.098-26.44c0.223-0.526,0.458-1.029,0.708-1.498c0.286-0.537,1.359-0.834,2.1-0.749
	c5.499-3.908,12.324-6.338,18.743-7.851c6.143-1.447,13.18-2.751,19.424-0.982c4.044-2.463,9.303-4.137,13.725-2.393
	c0.181-0.2,0.477-0.378,0.908-0.483c2.191-0.534,4.396-0.852,6.617-1.132c-0.356-1.191-0.766-2.427-1.257-3.638
	c-1.046,0.378-2.117,0.674-3.233,0.828c-7.804,1.08-18.916-0.441-23.149-7.948c-0.229-0.405-0.418-0.812-0.591-1.221
	c-1.268-1.606-1.348-3.15-0.926-4.851c0.03-2.545,0.749-5.106,1.684-7.601c2.339-6.245,2.66-10.45-0.255-16.47
	c-1.125-2.323-2.635-4.841-3.763-7.448c-0.235,0.087-0.471,0.137-0.674,0.13c-6.211-0.22-13.134-2.269-15.681-8.577
	c-2.146-5.317-1.187-11.513,1.537-16.455c6.257-11.354,18.698-13.692,28.532-6.159c0.283-0.093,0.557-0.204,0.85-0.279
	c5.442-1.407,12.338-0.413,17.276-3.216c8.255-4.686,14.593-14.309,25.505-12.097c7.725,1.566,11.641,8.229,14.928,14.813
	c1.892,3.79,3.611,7.859,6.22,11.231c2.722,3.518,6.27,5.926,9.237,9.15c1.266,1.375,2.158,2.767,2.757,4.169
	c0.569,0.763,0.896,1.415,0.896,1.937c0,0.247-0.028,0.545-0.075,0.878c1.132,6.995-3.976,14.152-7.173,20.729
	c-0.025,0.052-0.061,0.1-0.096,0.147c1.953,9.04,2.738,17.971-3.813,24.347c-6.09,5.926-14.127,8.289-20.861,13.224
	c-0.969,0.71-1.891,1.45-2.769,2.218c-0.015,0.013-0.029,0.025-0.044,0.038c1.531,0.262,3.063,0.517,4.598,0.748
	c13.149,1.972,26.445,2.794,39.744,2.85c0.821-0.541,2.27-0.638,2.344,0.126c0.022,0.229,0.031,0.461,0.047,0.692
	c0.006,0.101,0.015,0.201,0.02,0.302c0.068,1.358,0.018,2.734-0.132,4.119c0.2-0.126,0.424-0.233,0.628-0.295
	c2.938-0.893,6.752-0.493,9.774-0.648c6.8-0.35,13.603-0.667,20.407-0.89c16.601-0.541,33.437-1.01,49.968,0.835
	c2.407-21.088,3.81-42.297,6.668-63.333c0.009-0.066,0.028-0.13,0.058-0.191c0.367-7.473,2.769-18.871,12.449-15.95
	c7.861,2.371,3.309,18.309,2.416,23.838c-3.034,18.792-6.904,37.474-9.919,56.276c15.607,1.79,25.054,23.312,17.123,36.373
	c-3.354,5.525-8.25,10.232-14.288,12.7c-0.863,0.353-1.998,0.688-3.15,0.842c-2.334,0.311-4.739-0.141-5.104-2.804
	c-0.011-0.078-0.009-0.153,0-0.227c-1.824,0.117-3.227-0.67-2.99-3.332c-0.748-0.526-1.026-1.414-0.969-2.535
	c0.243-4.734,6.332-13.526,6.914-15.894c0.037-0.153,0.18-0.293,0.378-0.414c-0.019-0.046-0.045-0.095-0.067-0.143
	c-3.636,1.523-6.994,3.828-10.745,5.13c-0.188,0.065-0.389,0.135-0.597,0.208c-0.25,3.464-0.824,6.939-1.334,10.39
	c-0.1,0.678-0.203,1.357-0.293,2.033c-0.123,0.919-3.033,1.465-2.891,0.393c0.098-0.733,0.209-1.47,0.318-2.206
	c0.479-3.228,1.001-6.478,1.264-9.72c-2.38,0.573-4.967,0.714-6.4-1.059c-2.235-2.767,1.311-5.888,6.066-8.721
	c-3.75-0.454-7.66-0.367-11.387-0.471c-8.621-0.242-17.248-0.332-25.873-0.288C348.621,245.063,332.589,244.119,318.341,247.568z
	 M218.892,158.159c-1.159-0.504-2.15-0.733-2.972-0.794C216.843,157.708,217.843,157.965,218.892,158.159z M267.394,385.386
	c5.011,4.875,11.088,9.702,14.349,15.96c3.556,6.824,2.81,14.228,1.209,21.482c5.201,0.747,10.376,1.673,15.534,2.7
	c3.043-9.479,5.504-21.461,2.615-31.274c-2.242-7.615-8.063-13.143-11.236-20.26c-0.641,0.184-1.39,0.406-2.218,0.663
	C280.813,377.795,273.685,381.099,267.394,385.386z M405.89,242.782c2.373-1.194,4.641-2.271,6.332-3.163
	c-0.047-0.091-0.071-0.197-0.055-0.326c2.646-20.243,6.803-40.306,10.309-60.412c1.283-7.355,3.037-14.979,3.433-22.447
	c0.13-2.433,0.307-5.454-0.823-7.731c-1.682-3.392-5.793-3.517-7.577,0.017c-2.07,4.1-2.405,8.863-2.438,13.385
	c-0.001,0.191-0.109,0.368-0.283,0.52C411.29,189.281,409.989,216.201,405.89,242.782z M404.132,245.148
	c-0.292,0.535-1.064,1.015-1.799,0.882c-0.004,0-0.007-0.001-0.01-0.001c-3.037,1.559-6.117,3.648-5.695,5.988
	c0.396,2.207,2.029,2.772,4.203,2.468c0-0.017,0.003-0.034,0.004-0.05c0.049-0.807,2.377-1.373,2.815-0.682
	c4.508-1.584,9.873-5.006,11.987-5.717c0.443-0.149,1.588-0.558,1.949-0.065c0.922,1.256,0.626,1.437,0.42,2.939
	c-0.053,0.381-0.615,0.642-1.23,0.787c-0.84,1.966-2.008,3.837-2.984,5.687c-1.151,2.183-3.803,6.011-3.24,8.646
	c0.059,0.274,0.133,0.502,0.219,0.697c0.574,0.016,1.03,0.257,0.947,0.807c-0.002,0.01-0.001,0.017-0.002,0.027
	c1.993,0.236,5.58-5.076,6.155-6.116c1.175-2.124,2.18-4.319,3.132-6.55c0.336-0.789,3.127-1.081,2.867-0.473
	c-2.154,5.053-5.691,13.936-12.174,14.399c0.443,2.452,4.474-0.81,5.97-1.984c2.475-1.943,6.071-4.703,7.091-7.836
	c0.363-1.118,3.308-1.483,2.918-0.285c-1.503,4.623-6.996,8.899-11.039,11.225c-0.602,0.346-1.303,0.688-2.033,0.974
	c0.018,0.049,0.037,0.097,0.045,0.153c0.604,4.414,8.568-1.187,10.087-2.438c4.292-3.538,8.191-8.425,9.286-14.018
	c2.104-10.748-5.682-25.821-17.189-27.754c-0.567,3.623-1.105,7.251-1.592,10.886c0.903-0.349,2.715-0.504,2.209,0.007
	c-2.733,2.769-6.855,4.311-10.276,6.012C406.504,244.093,405.389,244.566,404.132,245.148z M256.608,163.901
	c1.021-0.977,1.965-2.074,2.852-3.251C258.501,161.872,257.542,162.954,256.608,163.901z M256.259,208.521
	c0,0.002,0.002,0.005,0.002,0.007c1.904,6.927,1.816,14.671,0.557,21.514c0.466,0.075,0.818,0.329,0.793,0.824
	c-0.098,1.89,0.542,3.927,2.006,5.152c0.324,0.271,0.675,0.517,1.082,0.696c0.068,0.03,0.13,0.047,0.195,0.07
	c0.425,0.155,0.784,0.178,1.086,0.099c0.003-0.02,0-0.038,0.009-0.061c2.86-7.448,6.564-13.999,12.342-19.526
	c-0.015-0.582,0.687-1.268,1.485-1.359c5.67-4.772,12.734-7.09,18.76-11.344c12.479-8.811,9.092-21.08,6.316-33.482
	c-0.18,0.171-0.48,0.344-0.939,0.481c-3.855,1.151-7.605,0.744-11.395-0.471c-0.923-0.296,1.674-1.395,2.367-1.173
	c2.889,0.926,5.775,1.539,8.762,0.648c0.48-0.144,0.83-0.157,1.066-0.103c-1.039-4.69-1.942-9.389-1.839-13.922
	c-0.274,0.121-0.552,0.201-0.782,0.202c-3.65,0.013-6.881-1.221-9.822-3.13c-1.212,0.726-2.1,2.011-2.729,3.231
	c-0.289,0.561-1.104,0.788-1.675,0.876c-0.178,0.028-1.48,0.111-1.2-0.431c1.028-1.996,2.48-3.542,4.379-4.518
	c-4.958-3.622-9.094-9.049-13.064-13.364c-3.627,5.335-6.406,12.046-9.958,17.847c1.272,0,2.546,0,3.818,0
	c0.546,0,1.17,0.439,0.832,1.028c-0.369,0.644-1.22,0.837-1.9,0.837c-1.307,0-2.613,0-3.92,0c-0.008,0-0.016-0.002-0.023-0.002
	c-3.288,4.898-7.321,8.884-13.195,10.415c2.547,4.735,2.251,9.924,1.761,15.334c-0.083,0.911-2.99,1.491-2.891,0.393
	c0.006-0.066,0.012-0.131,0.018-0.197c-0.203,0.014-0.379-0.008-0.5-0.083c-2.477-1.532-4.516-1.75-6.074-1.197
	c-0.131,0.066-0.26,0.12-0.391,0.195c-0.957,0.547-1.734,1.324-2.326,2.216c-1.802,3.294-0.83,8.516,3.542,9.137
	c4.197,0.597,7.337,0.948,9.816,4.806C254.26,202.703,255.438,205.538,256.259,208.521z M266.429,233.105
	c-0.059,2.519-1.362,4.687-3.459,5.483c1.479,1.571,4.522,2.919,6.885,3.678c0.082-4.867-0.78-9.724-0.923-14.59
	c-0.931,1.639-1.784,3.338-2.569,5.097C266.403,232.871,266.432,232.978,266.429,233.105z M247.427,211.014
	c0.398,0.273,0.789,0.569,1.164,0.916c2.922,2.701,4.864,6.295,6.191,10.168c0.045-2.512-0.079-5.03-0.416-7.495
	c-0.212-1.548-0.52-3.064-0.895-4.551c-0.111,0.013-0.225,0.027-0.336,0.041C251.22,210.327,249.317,210.591,247.427,211.014z
	 M232.98,212.76c0.341,0.121,0.682,0.245,1.017,0.386c0.108,0.046-0.05,0.198-0.34,0.374c9.886,18.081-4.059,41.679-17.059,54.365
	c-0.021,0.021-0.053,0.041-0.08,0.061c0.102,0.038,0.174,0.097,0.207,0.181c1.33,3.392,6.198,6.489,9.053,8.428
	c4.395,2.986,9.196,5.615,14.4,6.62c0.848,0.164,1.705,0.283,2.574,0.354c0.091-0.059,0.175-0.127,0.264-0.189
	c1.491-1.024,2.767-2.334,3.863-3.821c2.668-3.616,4.286-8.257,5.371-12.298c0.416-1.551,0.768-3.122,1.087-4.701
	c1.449-7.149,1.938-14.537,1.537-21.793c-0.114-2.077-0.403-4.953-0.929-8.108c-0.228-0.029-0.368-0.1-0.341-0.226
	c0.06-0.273,0.102-0.556,0.157-0.832c-2.139-11.85-7.647-26.778-20.031-19.041C233.608,212.599,233.318,212.687,232.98,212.76z
	 M136.103,271.483c0,0.001,0,0.001,0,0.002c0.027,0.156-0.054,0.306-0.203,0.442c1.076,0.112,2.105,0.46,2.83,1.252
	c1.034,1.13,1.056,2.694,0.549,4.068c-0.484,1.313-1.36,2.34-2.442,3.071c2.56,22.861,5.181,45.716,7.981,68.549
	c2.538,20.689,4.806,41.531,8.641,62.032c0.015,0.079-0.006,0.155-0.042,0.23c1.848,0.146,3.62,0.651,4.699,1.803
	c1.619,1.727-0.507,2.959-2.673,3.711c0.271,0.698,0.487,1.417,0.816,2.094c0.061,0.126,0.031,0.255-0.052,0.381
	c3.519-0.134,7.118,0.393,10.59,1.5c-0.053-5.545-0.239-11.09-0.272-16.636c-3.225-0.933-6.389-2.062-9.459-3.424
	c-0.381-0.168-0.564-0.394-0.621-0.634c0-0.003-0.006-0.004-0.006-0.008c-0.006-0.06-0.011-0.12-0.018-0.179
	c-2.117-20.011-2.79-40.291-1.069-60.362c0.418-4.883,0.88-9.806,1.809-14.624c0.044-0.226,0.084-0.44,0.125-0.643
	c0.417-28.596,17.791-50.815,35.399-71.742c0.1-0.118,0.311-0.228,0.569-0.32c-0.969-1.096-1.774-2.38-2.433-3.795
	C171.303,252.84,153.887,262.547,136.103,271.483z M159.408,327.937c-0.011,0.102-0.021,0.214-0.033,0.307
	c-0.002,0.012-0.003,0.023-0.005,0.035c0.027-0.114,0.053-0.22,0.076-0.314C159.434,327.955,159.421,327.947,159.408,327.937z
	 M133.763,279.541c-0.063-0.572,1.172-1.022,2.051-1.07c0.341-0.413,0.604-0.927,0.75-1.553c0.413-1.775-0.406-2.68-1.662-2.972
	c0.517,1.528,0.486,3.078-0.711,4.385c-0.493,0.539-1.023,0.957-1.576,1.288c0.396,0.05,0.783,0.045,1.156-0.014
	C133.768,279.584,133.765,279.563,133.763,279.541z M133.048,252.186c0.833,5.722,1.726,11.431,2.691,17.124
	c17.631-8.889,34.962-18.395,54.304-22.983c-2.246-6.439-1.924-14.797,0.014-20.834
	C169.847,230.527,149.438,239.213,133.048,252.186z M126.304,264.208c0.006,0.032-0.002,0.063-0.005,0.093
	c1.991,1.093,3.794,2.885,5.051,4.28c0.475,0.526,1.02,1.159,1.549,1.853c-0.989-5.814-1.901-11.646-2.752-17.491
	c-0.288-0.191-0.39-0.489-0.125-0.858c-4.963-34.338-7.813-69.123-11.376-103.558c-0.022-0.223,0.149-0.426,0.419-0.595
	c-1.959-1.357-6.885-3.265-6.478,0.64c0.122,1.17,0.244,2.341,0.366,3.512c0.261,2.489,0.522,4.979,0.785,7.468
	c0.575,5.441,1.153,10.882,1.739,16.322c1.208,11.201,2.437,22.399,3.717,33.592C121.284,227.725,123.17,246.09,126.304,264.208z
	 M121.98,265.097c-2.565,3.61,0.187,8.304,2.95,10.921c1.539,1.458,7.778,5.451,7.386,0.404c-0.23-2.971-2.425-5.635-4.48-7.628
	c-1.131-1.096-4.012-4.124-5.957-4.153C122.076,264.719,122.146,264.864,121.98,265.097z M115.122,278.724
	c0.954,2.614,3.608,4.581,6.009,5.786c2.111,1.06,5.182,2.422,7.604,1.722c0.228-0.065,0.41-0.165,0.572-0.278
	c0.069-0.182,0.234-0.35,0.458-0.49c0.771-1.303-0.168-3.711-0.705-4.948c-4.096-0.165-8.427-3.821-10.146-7.942
	C116.56,273.802,114.053,275.79,115.122,278.724z M121.061,292.534c-3.096-1.023-6.249-2.901-8.226-5.46
	c0.288,1.761,1.076,3.513,1.948,4.777c0.813,1.177,1.943,2.614,3.438,2.913C119.476,295.015,120.423,293.673,121.061,292.534z
	 M129.598,288.22c-3.265,1.06-7.204-0.168-10.12-1.685c-1.885-0.98-4.037-2.329-5.561-4.081c0.73,3.512,3.811,6.335,7.15,7.836
	c0.549,0.247,1.121,0.467,1.698,0.654c0.717-0.144,1.474-0.034,1.583,0.413C127.176,291.91,129.682,291.319,129.598,288.22z
	 M144.881,412.446c1.116-0.412,2.257-0.738,3.385-0.968c0.64-0.13,1.396-0.244,2.202-0.315c-3.775-20.334-6.039-41.001-8.548-61.518
	c-2.777-22.707-5.392-45.434-7.939-68.168c-0.456,0.084-0.92,0.13-1.386,0.135c0.405,1.606,0.426,3.231-0.278,4.518
	c0.775,3.897-1.463,6.169-4.585,6.9c0.299,0.024,0.511,0.115,0.531,0.293C132.725,333.078,137.541,373.101,144.881,412.446z
	 M183.001,436.379c-5.49-9.592-17.803-16.877-28.828-16.146c-0.877,0.058-0.825-0.159-0.449-0.415
	c-0.162-0.063-0.293-0.159-0.363-0.304c-0.328-0.674-0.544-1.391-0.814-2.086c-0.082,0.018-0.168,0.036-0.231,0.048
	c-0.183,0.037-1.4,0.166-1.179-0.35c0.159-0.368,0.646-0.57,1.099-0.694c0.244-0.621,2.06-1.188,2.721-0.699
	c0.586-0.266,1.005-0.646,0.808-1.192c-0.297-0.825-1.277-1.291-2.057-1.543c-2.094-0.68-4.45-0.803-6.572-0.167
	c-0.662,0.198-1.374,0.439-2.079,0.728c-0.101,0.456-1.08,0.845-1.874,0.931c-0.645,0.39-1.234,0.835-1.708,1.358
	c-1.67,1.846,1.04,2.453,2.508,2.648c0.196,0.026,0.317,0.069,0.384,0.123c0.086,0.027,0.137,0.066,0.137,0.12
	c0,1.324-0.051,2.734,0.377,4.006c0.434-0.022,0.747-0.003,0.718,0.028c-8.621,9.314-13.048,19.601-12.014,32.073
	c0.1-0.035,0.184-0.078,0.303-0.104c8.506-1.849,15.743-6.921,23.809-9.979C166.004,441.611,174.667,439.496,183.001,436.379z
	 M169.712,421.285c0,0.13-0.049,0.252-0.133,0.364c0.986,0.409,1.952,0.869,2.9,1.366c0.438-0.219,0.932-0.343,1.304-0.258
	c5.774,1.32,11.916,1.35,17.929,1.883c0-5.641,0-11.282,0-16.923c-2.449-0.084-4.903-0.236-7.354-0.464
	c-3.955,0.225-8.311,0.014-12.094-1.247c-0.984-0.328-1.918-0.671-2.822-1.02C169.505,410.419,169.687,415.852,169.712,421.285z
	 M176.384,425.384c4.008,2.795,7.398,6.384,9.676,10.504c0.307,0.158,0.478,0.397,0.37,0.653c0.02,0.038,0.044,0.074,0.063,0.113
	c0.051,0.099-0.079,0.236-0.307,0.378c0.182,0.088,0.333,0.214,0.426,0.396c2.187,4.267,6.58,8.616,11.733,11.717
	c0.511-4.074,0.716-8.184,1.304-12.25c0.341-2.356,0.75-4.673,1.437-6.956c0.562-1.869,0.08-1.493-2.017-1.917
	C191.603,426.513,183.899,426.53,176.384,425.384z M209.444,370.099c-0.373-0.093-0.512-0.094-0.512-0.094s-0.203,0.483-0.55,1.32
	C208.733,370.913,209.083,370.5,209.444,370.099z M255.981,281.173c-0.01-0.029-0.021-0.057-0.021-0.091
	c0-0.006,0-0.013,0.001-0.019c-0.095,0.099-0.183,0.202-0.276,0.302C255.776,281.298,255.876,281.234,255.981,281.173z
	 M273.729,265.293c-0.327,0.071-0.674,0.067-0.979,0c-1.321,0-2.644,0-3.965,0c-0.159,0-0.319,0-0.479,0
	c-0.077,0.015-0.155,0.033-0.232,0.046c-0.001,0-0.006,0-0.007,0.001c-0.122,0.021-0.574,0.067-0.89,0
	c-0.054-0.012-0.099-0.028-0.142-0.047c-2.438,0-4.875,0-7.313,0c0,0.016,0.001,0.032,0.001,0.047c0.106,4-0.448,7.957-0.724,11.938
	c0.302,0.129,0.379,0.376-0.045,0.776c-0.003,0.003-0.006,0.006-0.009,0.009c-0.044,0.746-0.077,1.493-0.089,2.242
	c-0.002,0.163-0.081,0.311-0.201,0.444c5.842-0.082,11.689-0.406,17.525-0.708c0.353-4.906,0.72-9.831,0.77-14.748
	C275.878,265.293,274.804,265.293,273.729,265.293z M269.411,263.34c0.147-0.326,0.229-0.692,0.231-0.981
	c0.011-0.864-0.214-1.659-0.556-2.437c-0.05,0-0.1,0-0.15,0c0,1.056,0,2.111,0,3.167c0,0.089-0.043,0.173-0.115,0.251
	C269.018,263.34,269.214,263.34,269.411,263.34z M321.966,221.985c-15.383-0.073-30.762-1.114-45.924-3.787
	c-1.597,1.61-3.035,3.327-4.338,5.141c0.123,0.127,0.195,0.295,0.181,0.519c-0.435,6.586,1.272,13.147,0.84,19.736
	c-0.063,0.962-1.647,1.141-2.32,1.027c-3.005-0.511-9.216-2.854-10.87-5.929c-0.712-0.193-1.351-0.498-1.911-0.893
	c0.692,9.094,0.146,18.436-2.1,27.259c-1.718,6.752-4.482,14.701-10.728,18.558c1.346,0.004-1.324,1.15-1.908,1.154
	c-6.777,0.052-13.25-2.76-18.786-6.521c-3.243-2.203-8.743-5.445-10.274-9.346c-0.058-0.148,0.131-0.328,0.433-0.495
	c-0.362-0.032-0.548-0.147-0.306-0.383c12.907-12.595,26.718-36.086,16.67-53.991c-0.023-0.042-0.021-0.089-0.01-0.136
	c-5.997-2.23-13.338-0.912-19.281,0.737c-2.32,0.644-4.681,1.375-6.986,2.264c-1.2,0.462-2.377,0.982-3.533,1.54
	c-2.499,1.206-4.862,2.649-6.946,4.442c-3.739,8.007-3.88,24.466,3.987,29.705c6.085-0.576,12.305-2.489,17.926-4.791
	c4.771-1.955,12.955-5.034,13.727-11.006c0.124-0.956,3.039-1.497,2.895-0.376c-0.819,6.334-9.301,9.993-14.413,12.087
	c-6.579,2.694-13.708,5.054-20.832,5.678c-0.067,0.006-0.124,0.005-0.185,0.007c-0.491,0.144-1.004,0.165-1.312-0.035
	c-0.427-0.278-0.827-0.592-1.212-0.924c-4.967,5.918-9.891,11.946-14.395,18.2c-1.809,2.51-3.548,5.056-5.194,7.646
	c-8.161,12.834-14.037,26.75-14.628,42.664c0.364,0.035,0.3,0.188,0.035,0.369c0.095-0.037,0.189-0.074,0.284-0.11
	c-0.135,0.196-0.247,0.426-0.348,0.675c-0.007,0.296-0.022,0.589-0.026,0.887c-0.002,0.188-0.142,0.354-0.352,0.496
	c-0.049,0.262-0.09,0.53-0.125,0.802c0.146,0.038,0.272,0.099,0.369,0.189c0.985,0.911,2.043,1.752,3.145,2.548
	c1.207,0.873,2.478,1.679,3.798,2.424c6.47,2.275,16.132,5.531,24.698,7.841c1.01,0.167,2.013,0.326,2.993,0.467
	c7.628,1.1,17.763,2.097,26.372-0.015c1.629-0.47,3.137-0.972,4.488-1.462c3.065-1.289,5.795-3.123,7.952-5.681
	c0.133-0.157,0.368-0.287,0.646-0.386c-0.105-0.069-0.174-0.162-0.178-0.288c-0.006-0.149,0.002-0.297-0.003-0.446
	c-0.566-19.834,7.937-38.236,22.114-51.88c0.296-4.348,0.951-8.671,0.705-13.041c-0.027-0.48,0.597-0.857,1.272-1.042
	c0.388-0.399,0.999-0.743,1.538-0.743c2.143,0,4.285,0,6.428,0c0-1.225,0-2.449,0-3.674c0-0.003,0.002-0.005,0.002-0.008
	c-0.025-0.078,0.004-0.178,0.126-0.307c0.44-0.463,1.312-0.717,1.933-0.717c0.979,0,1.959,0,2.939,0c0.265,0,0.697-0.04,0.838,0.256
	c0.574,1.21,1.074,2.949,0.279,4.194c-0.059,0.092-0.129,0.171-0.193,0.257c0.215,0,0.43,0,0.644,0
	c3.859-4.914,5.653-10.765,2.375-16.57c-0.772-1.368,1.976-2.489,2.646-1.301c1.337,2.367,1.937,4.743,1.965,7.078
	c0.139-0.018,0.27-0.021,0.382-0.001c10.768,1.98,22.365,1.369,33.338,1.107c1.633-4.252,3.143-8.562,4.51-12.905
	C319.642,234.962,322.187,228.227,321.966,221.985z M319.104,245.342c14.561-3.258,30.721-2.395,45.466-2.43
	c8.487-0.02,16.978,0.05,25.462,0.302c4.27,0.127,8.771-0.012,13.005,0.707c-0.092-0.111-0.14-0.253-0.111-0.438
	c0.941-6.063,1.729-12.144,2.437-18.235c-0.452,0.195-0.928,0.329-1.193,0.298c-16.46-1.884-33.282-1.418-49.822-0.851
	c-6.461,0.222-12.919,0.504-19.374,0.836c-2.329,0.12-4.658,0.241-6.985,0.379c-0.527,0.031-3.164,0.354-2.316,0.096
	c0.002-0.007,0.004-0.014,0.007-0.021c-0.251,0.089-0.498,0.144-0.693,0.136c-0.022-0.001-0.044-0.002-0.066-0.002
	c-0.128-0.005-0.231-0.018-0.326-0.034c-0.68,4.912-2.427,9.876-3.86,14.347C320.205,242.075,319.66,243.71,319.104,245.342z
	 M264.271,270.968c-0.442,0.292-0.396,0.684,0.184,0.684c2.939,0,5.879,0,8.818,0c0.702,0,1.454-0.156,2.049-0.549
	c0.442-0.292,0.396-0.684-0.184-0.684c-2.939,0-5.879,0-8.818,0C265.618,270.419,264.866,270.575,264.271,270.968z M272.702,274.35
	c-2.516,0.44-5.042,1.17-7.612,0.829c-1.215-0.162-3.038,1.532-1.088,1.791c2.826,0.376,5.584-0.367,8.349-0.85
	c0.574-0.101,1.494-0.355,1.631-1.044C274.111,274.418,273.144,274.272,272.702,274.35z M386.338,267.466
	c-0.069-0.11-0.245-0.171-0.479-0.191c-0.056-0.005-0.113-0.009-0.176-0.009c-0.002,0-0.004,0-0.006,0
	c-0.344-0.019-0.702,0.052-1.019,0.154c-0.091,0.029-0.188,0.058-0.268,0.089c-0.001,0-0.007,0.003-0.009,0.004
	c-0.346,0.128-0.645,0.3-0.797,0.507c-0.104,0.107-0.143,0.215-0.11,0.315c0.001,0.003-0.001,0.005-0.001,0.008
	c0,0.013,0.005,0.025,0.006,0.038c0.07,1.104,1.146,1.875,2.203,1.917c0.329,0.013,0.672-0.02,1.004-0.096
	c0.256,0.114,0.518,0.221,0.78,0.324c0.253,0.099,0.503,0.203,0.763,0.291c0.633,0.215,1.473-0.026,2.037-0.327
	c0.305-0.162,0.954-0.701,0.311-0.919c-0.511-0.173-0.999-0.375-1.48-0.59C388.142,268.555,387.231,268.053,386.338,267.466z
	 M396.318,261.548c-0.424,0.053-1.646,0.378-1.646,0.989c0,0.56,0,1.12,0,1.68c0,0.645,0.747,0.692,1.253,0.629
	c0.424-0.053,1.646-0.378,1.646-0.989c0-0.56,0-1.12,0-1.68C397.571,261.532,396.824,261.485,396.318,261.548z M381.946,293.124
	c-0.699,0.019-1.385,0.162-2.067,0.299c-0.616,0.124-1.23,0.244-1.853,0.261c-0.119,0.003-0.24,0.017-0.359,0.028
	c-0.714-0.257-1.398-0.67-2.035-1.128c-0.555-0.398-1.32-0.281-1.918-0.029c-0.253,0.106-1.325,0.767-0.773,1.164
	c2.068,1.487,4.288,2.181,6.613,1.771c0.666-0.117,1.34-0.312,2.023-0.622c0.338-0.153,1.237-0.68,0.773-1.164
	c-0.029-0.031-0.067-0.052-0.102-0.077C382.513,293.376,382.438,293.11,381.946,293.124z M381.205,304.835
	c0.474-0.498-0.412-0.571-0.71-0.571c-0.187,0-0.373,0-0.559,0c-0.129,0-0.273,0.018-0.418,0.039
	c0.203-0.311,0.106-0.593-0.406-0.665c-0.085-0.012-0.185-0.006-0.278-0.008c-0.606-0.014-1.356,0.166-1.771,0.557
	c-1.085,1.024-2.495,1.446-3.882,1.909c-0.271,0.091-1.262,0.62-0.809,1.03c0.472,0.426,1.395,0.121,1.898-0.047
	c1.301-0.435,2.643-0.896,3.818-1.62c0.199,0.074,0.48,0.093,0.625,0.093c0.035,0,0.069,0,0.104,0c0.152,0,0.304,0,0.455,0
	C379.894,305.553,380.765,305.298,381.205,304.835z M376.292,317.74c-0.371,0.565,0.312,0.905,0.797,0.896
	c1.164-0.022,2.236-0.251,3.285-0.611c0.595-0.204,1.185-0.439,1.771-0.732c0.353-0.176,1.231-0.696,0.764-1.202
	c-0.433-0.467-1.432-0.296-1.924-0.051c-0.303,0.151-0.604,0.293-0.907,0.425c-0.594,0.259-1.2,0.459-1.876,0.472
	C377.537,316.951,376.687,317.14,376.292,317.74z M383.859,323.023c0.439-0.235,1.179-0.801,0.718-1.37
	c-0.426-0.524-1.423-0.429-1.95-0.146c-0.551,0.294-1.008,0.65-1.403,1.057c-0.654,0.672-1.139,1.484-1.591,2.386
	c-0.316,0.631,0.272,1.034,0.848,1.083c0.425,0.036,0.964-0.069,1.377-0.321c0.222-0.135,0.409-0.309,0.52-0.531
	c0.228-0.454,0.458-0.904,0.726-1.336C383.301,323.524,383.642,323.14,383.859,323.023z M386.396,326.232
	c-1.164,1.224-1.241,2.652-1.242,4.26c0,0.666,2.897,0.189,2.898-0.776c0-1.338,0.031-2.56,1-3.578
	c0.477-0.5-0.408-0.652-0.729-0.641C387.662,325.52,386.865,325.739,386.396,326.232z M393.933,332.248
	c0.694,0.037,1.554-0.199,1.891-0.875c0.306-0.614-0.254-1.124-0.844-1.169c-0.099-0.062-0.1-0.082-0.182-0.172
	c-0.295-0.326-0.508-0.729-0.706-1.117c-0.32-0.625-1.489-0.417-1.962-0.193c-0.593,0.281-1.021,0.816-0.696,1.452
	C391.948,331.177,392.705,332.184,393.933,332.248z M399.798,331.162c0.544,0.544,3.201-0.523,2.727-0.997
	c-0.56-0.56-1.12-1.119-1.68-1.68c-0.542-0.544-3.201,0.522-2.727,0.997C398.677,330.043,399.237,330.603,399.798,331.162z
	 M404.558,327.164c0.039,0,0.077,0.006,0.116,0.01c0.021,0.005,0.049,0.013,0.091,0.022c0.219,0.058,0.434,0.134,0.648,0.206
	c0.446,0.148,0.912,0.298,1.385,0.321c0.683,0.033,1.547-0.205,1.896-0.856c0.327-0.614-0.281-1.074-0.853-1.102
	c-0.039,0-0.077-0.006-0.116-0.01c-0.021-0.005-0.049-0.013-0.091-0.022c-0.219-0.058-0.434-0.134-0.648-0.206
	c-0.446-0.148-0.912-0.298-1.385-0.321c-0.683-0.033-1.547,0.205-1.896,0.856C403.378,326.676,403.986,327.136,404.558,327.164z
	 M409.372,319.973c-0.746,0-1.492,0-2.238,0c-0.701,0-1.454,0.159-2.049,0.549c-0.443,0.291-0.396,0.676,0.182,0.676
	c0.746,0,1.492,0,2.238,0c0.701,0,1.454-0.159,2.049-0.549C409.997,320.358,409.95,319.973,409.372,319.973z M408.987,311.858
	c0.373,0,0.746,0,1.119,0c0.648,0,1.514-0.222,1.916-0.778c0.403-0.556-0.339-0.804-0.771-0.804c-0.373,0-0.746,0-1.119,0
	c-0.648,0-1.514,0.222-1.916,0.778C407.813,311.611,408.555,311.858,408.987,311.858z M413.806,303.723
	c0.184,0.13,0.561,0.164,0.744,0.164c0.187,0,0.373,0,0.561,0c0.623,0,1.494-0.251,1.931-0.723c0.467-0.504-0.405-0.592-0.716-0.592
	c-0.187,0-0.373,0-0.561,0c-0.623,0-1.494,0.251-1.931,0.723c-0.021,0.022-0.024,0.039-0.04,0.059
	c-0.154-0.473-0.849-0.577-1.294-0.577c-0.373,0-0.746,0-1.119,0c-0.614,0-1.513,0.464-1.606,1.136
	c-0.104,0.748,0.792,0.889,1.323,0.889c0.373,0,0.746,0,1.119,0C412.813,304.801,413.669,304.362,413.806,303.723z M412.322,298.537
	c-0.02,0.019-0.041,0.036-0.062,0.054c-0.531,0.113-1.216,0.416-1.349,0.91c-0.172,0.641,0.902,0.604,1.239,0.577
	c0.885-0.07,1.84-0.491,2.481-1.115c0.419-0.408,0.364-0.859-0.262-0.975C413.727,297.869,412.804,298.068,412.322,298.537z
	 M413.473,279.414c-0.187,0-0.374,0-0.561,0c-0.663,0-1.522,0.208-1.909,0.807c-0.37,0.574,0.312,0.912,0.802,0.912
	c0.187,0,0.374,0,0.561,0c0.663,0,1.522-0.208,1.909-0.807C414.645,279.752,413.963,279.414,413.473,279.414z M413.854,286.384
	c-0.561,0-1.12,0-1.68,0c-0.102,0-0.206,0.011-0.311,0.019c-0.577-0.125-1.945,0.108-2.445,0.618
	c-0.451,0.114-0.901,0.312-1.181,0.604c-0.473,0.498,0.412,0.571,0.71,0.57c0.707-0.001,1.822-0.124,2.529-0.596
	c0.168,0,0.338,0,0.506,0c0.7,0,1.455-0.163,2.049-0.549C414.479,286.761,414.43,286.384,413.854,286.384z M413.6,290.385
	c-0.746,0-1.492,0-2.238,0c-0.645,0-1.514,0.491-1.592,1.19c-0.085,0.765,0.765,0.983,1.348,0.983c0.746,0,1.492,0,2.238,0
	c0.645,0,1.514-0.491,1.592-1.19C415.032,290.603,414.183,290.385,413.6,290.385z M410.071,285.411c0.747,0,1.494,0,2.24,0
	c0.623,0,1.494-0.251,1.931-0.724c0.467-0.505-0.404-0.594-0.716-0.594c-0.747,0-1.494,0-2.24,0c-0.623,0-1.494,0.251-1.931,0.724
	C408.889,285.322,409.76,285.411,410.071,285.411z M395.216,276.306c-0.72-0.661-1.518-0.905-2.486-0.907
	c-0.686-0.002-1.533,0.189-1.897,0.847c-0.328,0.594,0.279,1.064,0.843,1.065c0.41,0.001,0.578-0.058,0.873,0.212
	c0.527,0.485,1.328,0.419,1.947,0.138C394.87,277.489,395.747,276.793,395.216,276.306z M398.591,275.623c0,0.56,0,1.12,0,1.68
	c0,0.62,2.898,0.157,2.898-0.776c0-0.56,0-1.12,0-1.68C401.489,274.226,398.591,274.689,398.591,275.623z M390.189,289.961
	c0,0.187,0,0.373,0,0.56c0,0.66,0.738,0.739,1.267,0.678c0.445-0.052,1.638-0.387,1.638-1.017c0-0.187,0-0.373,0-0.56
	c0-0.66-0.738-0.739-1.267-0.678C391.382,288.996,390.189,289.331,390.189,289.961z M416.045,290.333
	c0.187,0.187,0.374,0.373,0.561,0.56c0.651,0.65,3.374-0.415,2.705-1.083c-0.187-0.187-0.374-0.373-0.561-0.56
	C418.099,288.6,415.376,289.665,416.045,290.333z M419.885,297.731c0.351-0.619-0.3-0.998-0.837-1.042
	c0.117,0.01,0.022-0.027-0.063-0.123c-0.065-0.073-0.094-0.154-0.11-0.24c-0.014-0.065-0.021-0.132-0.027-0.204
	c-0.006-0.077-0.031-0.14-0.064-0.198c0.053-0.015,0.105-0.023,0.158-0.041c0.354-0.122,0.684-0.305,0.902-0.548
	c0.459-0.512-0.396-0.619-0.723-0.619c-0.002,0-0.003,0-0.004,0c-0.746,0-1.492,0-2.236,0c-0.626,0-1.497,0.248-1.93,0.73
	c-0.459,0.512,0.396,0.619,0.723,0.619c0.219,0,0.436,0,0.654,0c-0.244,0.208-0.407,0.484-0.379,0.834
	c0.084,1.024,1.111,1.598,2.037,1.673c0.16,0.013,0.334,0.004,0.51-0.021C419.048,298.469,419.62,298.197,419.885,297.731z
	 M385.927,314.412c0.595-0.04,1.588-0.471,1.588-1.203c0-0.187,0-0.373,0-0.56c0-0.737-0.692-1.051-1.354-1.007
	c-0.595,0.04-1.588,0.471-1.588,1.203c0,0.187,0,0.373,0,0.56C384.573,314.142,385.266,314.456,385.927,314.412z M386.918,304.025
	c0.001,0,0.002,0,0.003-0.001c0,0,0,0,0.001,0c0.164-0.088,0.315-0.191,0.44-0.318c0.468-0.475-0.405-0.569-0.703-0.543
	c-0.896,0.077-2.59,0.403-2.625,1.576C384.019,305.254,386.758,304.879,386.918,304.025z M384.978,286.497
	c-0.006,0.005-0.006,0.006-0.012,0.01c-0.314,0.113-0.606,0.272-0.814,0.52c-0.427,0.509,0.363,0.707,0.738,0.674
	c0.652-0.056,1.205-0.19,1.795-0.479c0.146-0.071,0.301-0.185,0.426-0.294c0.006-0.005,0.008-0.007,0.014-0.012
	c0.313-0.112,0.604-0.271,0.811-0.519c0.427-0.509-0.363-0.707-0.738-0.674c-0.652,0.056-1.205,0.19-1.795,0.479
	C385.257,286.273,385.103,286.387,384.978,286.497z M400.281,282.025c0.355-0.582-0.3-0.965-0.815-0.965c-0.188,0-0.374,0-0.561,0
	c-0.671,0-1.526,0.201-1.905,0.821c-0.355,0.582,0.3,0.965,0.815,0.965c0.188,0,0.374,0,0.561,0
	C399.047,282.846,399.902,282.645,400.281,282.025z M392.896,284.266c-0.628,0-1.514,0.476-1.6,1.16
	c-0.096,0.756,0.778,0.932,1.334,0.932c0.373,0,0.746,0,1.119,0c0.628,0,1.514-0.476,1.6-1.16c0.096-0.756-0.778-0.932-1.334-0.932
	C393.642,284.266,393.269,284.266,392.896,284.266z M403.845,287.543c0.561,0,1.12,0,1.68,0c0.655,0,1.514-0.5,1.587-1.208
	c0.079-0.77-0.756-1.015-1.356-1.015c-0.561,0-1.12,0-1.68,0c-0.655,0-1.514,0.5-1.587,1.208
	C402.409,287.298,403.244,287.543,403.845,287.543z M398.741,266.246c-0.373,0-0.747,0-1.121,0c-0.695,0-1.454,0.176-2.049,0.549
	c-0.452,0.284-0.396,0.631,0.17,0.631c0.373,0,0.747,0,1.121,0c0.695,0,1.454-0.176,2.049-0.549
	C399.363,266.593,399.308,266.246,398.741,266.246z M406.744,276.019c-0.653-0.053-1.546,0.234-1.904,0.822
	c-0.371,0.608,0.314,0.927,0.816,0.968c-0.151-0.012,0.143,0.123,0.184,0.155c0.251,0.198,0.475,0.434,0.7,0.659
	c0.486,0.484,1.373,0.335,1.934,0.088c0.369-0.162,1.238-0.776,0.746-1.267C408.498,276.726,407.802,276.105,406.744,276.019z
	 M405.465,270.181c-0.187,0-0.374,0-0.561,0c-0.04,0-0.081,0.007-0.121,0.008c-0.226-0.384-0.823-0.495-1.253-0.495
	c-0.374,0-0.748,0-1.121,0c-0.635,0-1.514,0.482-1.597,1.172c-0.092,0.759,0.772,0.951,1.339,0.951c0.374,0,0.748,0,1.121,0
	c0.445,0,1.005-0.24,1.332-0.62c0.362-0.092,0.714-0.23,1.021-0.417C406.085,270.501,406.021,270.181,405.465,270.181z
	 M397.967,302.304c-0.491,0.05-1.621,0.407-1.623,1.073c-0.001,0.429,0.017,0.872-0.288,1.204c-0.43,0.467-0.313,1.03,0.322,1.205
	c0.664,0.184,1.576-0.034,2.049-0.549c0.585-0.635,0.831-1.301,0.833-2.156C399.261,302.395,398.536,302.246,397.967,302.304z
	 M402.483,298.098c-0.373-0.374-0.747-0.747-1.121-1.12c-0.536-0.536-1.301-0.587-1.978-0.253c-0.458,0.226-1.203,1.023-0.667,1.558
	c0.373,0.374,0.747,0.747,1.121,1.12c0.535,0.536,1.302,0.586,1.978,0.253C402.275,299.43,403.02,298.633,402.483,298.098z
	 M406.76,299.593c-0.374,0-0.747,0-1.121,0c-0.657,0-1.519,0.213-1.911,0.798c-0.381,0.568,0.32,0.876,0.792,0.876
	c0.374,0,0.747,0,1.121,0c0.657,0,1.519-0.213,1.911-0.798C407.933,299.9,407.231,299.593,406.76,299.593z M408.09,298.293
	c0,0.732,0.695,1.031,1.349,0.984c0.584-0.041,1.591-0.464,1.591-1.19c0-0.373,0-0.747,0-1.12c0-0.732-0.695-1.031-1.349-0.984
	c-0.584,0.041-1.591,0.464-1.591,1.19C408.09,297.546,408.09,297.92,408.09,298.293z M397.571,312.359c0-0.374,0-0.747,0-1.12
	c0-0.709-2.898-0.219-2.898,0.776c0,0.374,0,0.747,0,1.12C394.673,313.845,397.571,313.354,397.571,312.359z M389.947,304.932
	c0.46-0.279,0.396-0.596-0.16-0.596c-0.187,0-0.373,0-0.561,0c-0.691,0-1.454,0.189-2.049,0.549c-0.46,0.279-0.396,0.596,0.16,0.596
	c0.187,0,0.373,0,0.561,0C388.59,305.481,389.353,305.292,389.947,304.932z M404.44,305.09c-0.188,0.187-0.374,0.374-0.561,0.56
	c-0.474,0.473-0.258,1.114,0.35,1.306c0.705,0.223,1.537-0.037,2.049-0.549c0.188-0.187,0.374-0.374,0.561-0.56
	c0.474-0.473,0.258-1.114-0.35-1.306C405.784,304.318,404.952,304.578,404.44,305.09z M396.911,314.815c0,0.187,0,0.373,0,0.56
	c0,0.622,2.898,0.158,2.898-0.776c0-0.187,0-0.373,0-0.56C399.81,313.417,396.911,313.88,396.911,314.815z M391.524,326.169
	c0.65,0.017,1.516-0.509,1.588-1.203c0.082-0.78-0.76-0.991-1.354-1.006c0.132,0.003-0.113-0.038-0.113-0.027
	c-0.071-0.023-0.144-0.047-0.213-0.078c0.082,0.056,0.061,0.044-0.064-0.034c-0.145-0.086-0.274-0.196-0.402-0.304
	c-0.165-0.14-0.139-0.123-0.239-0.223c-0.298-0.298-0.671-0.43-1.059-0.442c-0.021-0.041-0.034-0.083-0.063-0.123
	c-0.438-0.61-1.383-0.552-1.981-0.262c-0.425,0.206-0.521,0.247-0.95,0.335c0.268-0.056-0.309,0.008-0.366,0.01
	c-0.237,0.01-0.475,0.007-0.712,0.007c-0.66,0-1.514,0.505-1.584,1.218c-0.076,0.772,0.752,1.033,1.361,1.032
	c0.977,0,1.869-0.124,2.753-0.431c0.353,0.354,0.701,0.708,1.133,0.968C389.966,326.032,390.71,326.148,391.524,326.169z
	 M383.012,292.013c0.187,0.187,0.373,0.373,0.559,0.56c0.651,0.652,3.376-0.412,2.705-1.084c-0.187-0.187-0.373-0.373-0.559-0.56
	C385.065,290.277,382.341,291.341,383.012,292.013z M391.135,309.866c-0.373,0-0.746,0-1.119,0c-0.621,0-1.492,0.255-1.933,0.716
	c-0.475,0.496,0.413,0.566,0.708,0.566c0.373,0,0.746,0,1.119,0c0.621,0,1.492-0.255,1.933-0.716
	C392.317,309.936,391.43,309.866,391.135,309.866z M390.095,316.183c-0.558,0.044-1.6,0.447-1.6,1.158c0,0.187,0,0.374,0,0.561
	c0,0.721,0.701,0.978,1.334,0.928c0.558-0.044,1.6-0.447,1.6-1.158c0-0.187,0-0.374,0-0.561
	C391.429,316.39,390.728,316.133,390.095,316.183z M394.982,299.513c0.637,0.013,1.515-0.236,1.919-0.767
	c0.42-0.552-0.356-0.751-0.761-0.759c-0.215-0.004-0.591-0.079-0.87-0.279c-0.355-0.253-0.482-0.603-0.5-1.026
	c-0.035-0.829-2.942-0.269-2.898,0.776c0.012,0.28,0.094,0.513,0.203,0.727c-0.202,0-0.404,0-0.605,0
	c-0.691,0-1.455,0.194-2.05,0.549c-0.103,0.061-0.394,0.229-0.347,0.404c0.047,0.174,0.384,0.177,0.502,0.177
	c0.373,0,0.746,0,1.119,0c0.645,0,1.348-0.175,1.922-0.485C393.263,299.313,394.21,299.497,394.982,299.513z M422.134,292.166
	c0.247-0.479-0.062-0.891-0.49-1.056c0-0.012,0.004-0.011,0.002-0.027c-0.061-0.702-1.264-0.66-1.699-0.543
	c-0.128,0.034-0.255,0.083-0.377,0.14c-0.479,0.222-0.871,0.614-0.822,1.18c0.035,0.4,0.287,0.707,0.617,0.907
	c0.265,0.162,0.578,0.256,0.877,0.265C420.933,293.052,421.786,292.838,422.134,292.166z M415.082,313.134
	c0.531-0.174,0.966-0.442,0.966-0.775c0-0.187,0-0.374,0-0.56c0-0.139-0.212-0.207-0.518-0.219
	c-0.833-0.033-2.381,0.365-2.381,0.996c0,0.187,0,0.374,0,0.56C413.149,313.452,414.239,313.411,415.082,313.134z M398.182,327.058
	c0.462-0.052,1.632-0.393,1.633-1.036c0-0.137,0.003-0.274,0.009-0.411c0.001-0.016,0.002-0.018,0.004-0.031
	c0.271-0.167,0.489-0.39,0.548-0.677c0.052-0.255-0.055-0.425-0.231-0.535c0.184-0.184,0.368-0.367,0.552-0.551
	c0.491-0.491,0.222-1.199-0.379-1.413c-0.727-0.259-1.525,0.026-2.049,0.549c-0.187,0.187-0.374,0.373-0.561,0.56
	c-0.362,0.362-0.309,0.841-0.017,1.154c-0.204,0.136-0.392,0.292-0.523,0.497c-0.236,0.368-0.26,0.76-0.261,1.184
	C396.905,327.016,397.64,327.119,398.182,327.058z M376.196,309.216c0,0.187,0,0.374,0,0.56c0,0.435,2.213,0.165,2.771-0.477
	c0.08-0.093,0.127-0.193,0.127-0.3c0-0.187,0-0.374,0-0.56c0-0.078-0.076-0.13-0.195-0.165
	C378.256,308.087,376.196,308.499,376.196,309.216z M384.396,299.515c0.407-0.408,0.376-0.847-0.257-0.959
	c-0.635-0.113-1.579,0.078-2.05,0.549c-0.069,0.07-0.14,0.14-0.209,0.209c0.01-0.039,0.026-0.076,0.031-0.116
	c0.093-0.758-0.775-0.943-1.338-0.943c-0.455,0-0.911,0-1.366,0c-0.478,0-0.955,0-1.433,0c-0.632,0-1.513,0.479-1.598,1.167
	c-0.093,0.758,0.775,0.943,1.338,0.943c0.499,0,0.998,0,1.497,0c0.434,0,0.868,0,1.302,0c0.31,0,0.679-0.116,0.984-0.315
	c-0.074,0.266,0.06,0.497,0.489,0.574c0.635,0.113,1.579-0.078,2.05-0.549C384.023,299.888,384.21,299.702,384.396,299.515z
	 M387.278,296.521c-0.654,0-1.514,0.499-1.587,1.207c-0.079,0.769,0.757,1.012,1.356,1.012c0.187,0,0.373,0,0.561,0
	c0.654,0,1.514-0.499,1.587-1.207c0.079-0.769-0.757-1.012-1.356-1.012C387.652,296.521,387.466,296.521,387.278,296.521z
	 M377.876,282.901c0.479,0.897,1.109,1.577,1.826,2.097c-0.133,0.063-0.264,0.13-0.383,0.214c-0.44,0.31-0.388,0.733,0.201,0.749
	c0.729,0.02,1.202,0.401,1.693,0.881c0.037,0.036,0.074,0.068,0.111,0.105c0.498,0.496,2.511-0.198,2.762-0.756
	c0.39-0.02,0.785-0.062,1.184-0.131c0.531-0.093,1.482-0.324,1.658-0.945c0.172-0.611-0.908-0.608-1.232-0.551
	c-1.413,0.247-2.679-0.093-3.669-0.903c-0.49-0.401-0.919-0.91-1.253-1.536C380.273,281.188,377.479,282.16,377.876,282.901z
	 M371.833,285.931c1.823,1.752,3.919,2.849,6.216,3.565c-0.095,0.128-0.164,0.27-0.187,0.423c-0.108,0.744,0.798,0.867,1.316,0.867
	c0.393,0,0.785,0,1.179,0c0.354,0,0.708,0,1.062,0c0.607,0,1.513-0.459,1.609-1.124c0.029-0.197-0.017-0.348-0.104-0.467
	c0.146-0.409-0.039-0.813-0.841-0.956c-0.384-0.068-0.764-0.148-1.14-0.236c-2.403-0.564-4.629-1.564-6.447-3.312
	C373.609,283.84,370.866,285.002,371.833,285.931z M369.478,315.375c0.186,0.69,1.141,0.891,1.736,0.682
	c2.205-0.776,4.068-2.069,5.73-3.702c0.06-0.059,0.104-0.117,0.151-0.174c0.053,0,0.106,0,0.159,0c0.655,0,1.379-0.188,1.96-0.506
	c0.028-0.016,0.062-0.027,0.089-0.043c0.098-0.057,0.395-0.222,0.35-0.393c-0.046-0.17-0.387-0.166-0.5-0.166
	c-0.004,0-0.008,0-0.012,0c-0.556,0-1.111,0-1.668,0c-0.064,0-0.133,0.01-0.198,0.014c-0.364-0.642-1.566-0.897-2.288-0.188
	c-1.258,1.234-2.661,2.424-4.348,3.017C370.046,314.125,369.275,314.619,369.478,315.375z M375.969,322.268
	c1.152-0.397,2.322-0.911,3.413-1.543c0.499,0,0.998,0,1.497,0c0.03,0,0.06,0,0.09,0c0.63,0,1.501-0.242,1.927-0.74
	c0.447-0.523-0.384-0.657-0.733-0.657c-0.272,0-0.546,0-0.819,0c0.082-0.073,0.178-0.133,0.257-0.208
	c0.426-0.405,0.358-0.861-0.262-0.975c-0.282-0.052-0.612-0.032-0.936,0.032c-0.423,0.084-0.836,0.253-1.113,0.518
	c-0.244,0.232-0.514,0.435-0.785,0.634c-0.647,0-1.294,0-1.941,0c-0.63,0-1.501,0.242-1.927,0.74
	c-0.447,0.523,0.384,0.657,0.733,0.657c0.195,0,0.39,0,0.585,0c-0.369,0.151-0.741,0.291-1.112,0.419
	c-0.33,0.114-1.235,0.669-0.784,1.12C374.524,322.73,375.45,322.446,375.969,322.268z M379.303,331.42
	c1.227-0.003,2.482-0.281,3.41-1.132c0.425-0.39,0.37-0.819-0.246-0.918c-0.644-0.104-1.538,0.093-2.035,0.54
	c-0.638,0.009-1.481,0.235-1.887,0.761C378.126,331.216,378.899,331.421,379.303,331.42z M387.197,278.453
	c-1.08-0.368-2.138-0.793-3.201-1.201c-0.425-0.163-0.847-0.332-1.277-0.479c-0.677-0.231-1.443-0.1-2.052,0.271
	c-0.33,0.201-0.936,0.898-0.255,1.13c0.087,0.03,0.172,0.066,0.259,0.097c0.009,0.781,0.119,1.431,0.676,2.037
	c0.319,0.347,0.983,0.356,1.59,0.186c0.608-0.171,1.151-0.524,1.231-0.912c0.241,0.089,0.479,0.188,0.723,0.271
	c0.678,0.231,1.443,0.1,2.052-0.271C387.272,279.383,387.878,278.685,387.197,278.453z M379.598,271.639
	c-0.288,0.143-0.964,0.618-0.337,0.823c1.853,0.606,3.747,1.075,5.6,1.68c0.086,0.028,0.186,0.028,0.281,0.039
	c0.004,0,0.008,0.001,0.011,0.001c-0.111,0.524,0.417,0.9,0.937,0.94c-0.099-0.008,0.098,0.042,0.16,0.082
	c0.109,0.068,0.382,0.325,0.145,0.095c0.524,0.509,1.324,0.476,1.958,0.179c0.413-0.194,1.229-0.917,0.702-1.428
	c-0.447-0.434-0.974-0.747-1.574-0.877c-0.017-0.08-0.088-0.152-0.252-0.206c-0.424-0.138-0.854-0.256-1.279-0.384
	c-1.441-0.43-2.891-0.829-4.32-1.296C381.012,271.085,380.146,271.366,379.598,271.639z M391.463,263.371
	c-0.437,0.117-1.069,0.36-1.23,0.826c-0.443,0.226-0.733,0.522-0.599,0.788c0.281,0.553,0.604,1.078,1.077,1.487
	c0.353,0.306,0.773,0.529,1.208,0.716c0.264,0.114,0.533,0.217,0.799,0.308c0.654,0.223,1.459,0.031,2.044-0.301
	c0.317-0.18,0.946-0.792,0.284-1.019c-0.104-0.036-0.193-0.079-0.292-0.117c-0.216-0.082-0.425-0.17-0.616-0.269
	c-0.044-0.066-0.106-0.13-0.214-0.186c-0.322-0.167-0.601-0.371-0.726-0.715c-0.14-0.386-0.107-0.838-0.107-1.241
	C393.09,263.069,391.718,263.303,391.463,263.371z M414.387,278.632c-0.208,0.245-0.132,0.407,0.04,0.512
	c-0.012,0.014-0.031,0.022-0.043,0.037c-0.43,0.527,0.366,0.708,0.744,0.696c0.605-0.018,1.195-0.109,1.779-0.272
	c0.082-0.023,0.906-0.294,0.597-0.193c0.284-0.093,0.21-0.088,0.423-0.094c0.176-0.005,0.367-0.028,0.561-0.064
	c0.482-0.089,0.973-0.287,1.29-0.624c0.458-0.109,0.913-0.305,1.191-0.634c0.439-0.52-0.376-0.676-0.736-0.667
	c-0.257,0.007-0.509,0.042-0.763,0.076c0.162-0.112,0.305-0.245,0.408-0.416c0.353-0.582-0.298-0.973-0.818-0.973
	c-0.186,0-0.372,0-0.559,0c-0.326,0-0.695,0.05-1.033,0.17c-0.356,0.127-0.677,0.333-0.871,0.652
	c-0.314,0.52,0.17,0.885,0.647,0.958c-0.31,0.047-0.619,0.084-0.932,0.093C415.675,277.907,414.819,278.121,414.387,278.632z
	 M421.041,283.248c-0.552-0.182-1.126-0.061-1.606,0.222c-0.121,0.071-0.229,0.16-0.336,0.249c-0.147,0.011-0.295,0.016-0.442,0.017
	c-0.365,0-0.825,0.167-1.161,0.44c-0.092,0-0.184,0-0.275,0c-0.693,0-1.455,0.185-2.049,0.549c-0.458,0.28-0.396,0.607,0.162,0.607
	c0.374,0,0.748,0,1.121,0c0.217,0,0.439-0.024,0.661-0.06c0.204,0.404,0.84,0.501,1.262,0.5c0.462-0.001,0.886-0.078,1.292-0.198
	c0.629-0.186,1.205-0.499,1.731-0.983C421.905,284.125,421.626,283.44,421.041,283.248z M422.706,308.154
	c1.765-0.538,1.244-2.555-0.539-2.012c-1.328,0.404-2.677,0.405-4.018,0.207c0.081-0.13,0.141-0.271,0.157-0.423
	c0.075-0.674-0.572-0.925-1.128-0.976c-0.076-0.007-0.15-0.011-0.221-0.011c-0.188,0-0.374,0-0.561,0
	c-0.646,0-1.514,0.492-1.591,1.192c-0.013,0.114,0.001,0.212,0.025,0.303c-0.511,0.151-1.126,0.444-1.126,0.889
	c0,0.187,0,0.373,0,0.56c0,0.653,0.742,0.717,1.261,0.655c0.218-0.026,0.629-0.122,0.985-0.289c0.139,0.031,0.277,0.059,0.418,0.086
	C418.466,308.75,420.646,308.781,422.706,308.154z M413.798,318.301c0.422,0.382,1.445,0.056,1.881-0.109
	c0.223-0.084,1.264-0.535,0.838-0.92c-0.643-0.583-1.606-0.548-2.238-1.12c-0.046-0.042-0.102-0.072-0.161-0.098
	c-0.48-0.211-1.331,0.06-1.72,0.207c-0.075,0.028-0.246,0.102-0.421,0.197c0.091-0.137,0.155-0.288,0.173-0.452
	c0.083-0.767-0.762-0.995-1.352-0.995c-0.56,0-1.119,0-1.68,0c-0.648,0-1.514,0.494-1.59,1.196
	c-0.083,0.767,0.762,0.995,1.352,0.995c0.56,0,1.119,0,1.68,0c0.293,0,0.628-0.105,0.916-0.28c-0.023,0.087-0.01,0.175,0.084,0.26
	c0.516,0.467,1.237,0.542,1.829,0.848C413.534,318.104,413.674,318.188,413.798,318.301z M410.005,325.926
	c0.314,0.32,0.704,0.467,1.23,0.522c0.628,0.065,1.544-0.255,1.912-0.792c0.328-0.478-0.097-0.709-0.504-0.805
	c0.067,0.012,0.075,0.001-0.013-0.094c-0.116-0.126-0.18-0.274-0.247-0.43c-0.182-0.417-0.244-0.88-0.256-1.331
	c-0.008-0.276-0.283-0.384-0.607-0.417c-0.398-0.041-0.873,0.034-1.037,0.078c-0.531,0.143-1.271,0.473-1.254,1.115
	c0.016,0.61,0.148,1.195,0.455,1.728C409.782,325.671,409.89,325.809,410.005,325.926z M416.627,309.801
	c-0.257-0.021-0.417-0.24-0.504-0.481c-0.038-0.107-0.067-0.217-0.075-0.32c-0.064-0.785-2.978-0.202-2.898,0.776
	c0.068,0.842,0.873,1.374,1.659,1.438c0.271,0.022,0.555,0,0.834-0.049c0.44-0.076,0.87-0.231,1.216-0.5
	C417.298,310.322,417.228,309.85,416.627,309.801z M417.438,299.191c-0.373,0-0.746,0-1.119,0c-0.626,0-1.497,0.247-1.928,0.732
	c-0.457,0.514,0.394,0.625,0.725,0.625c0.373,0,0.746,0,1.119,0c0.626,0,1.497-0.247,1.928-0.732
	C418.62,299.302,417.77,299.191,417.438,299.191z M416.28,287.844c-0.188,0-0.374,0-0.561,0c-0.656,0-1.519,0.214-1.912,0.793
	c-0.386,0.566,0.323,0.862,0.787,0.862c0.188,0,0.374,0,0.561,0c0.656,0,1.519-0.214,1.912-0.793
	C417.453,288.139,416.744,287.844,416.28,287.844z M416.476,280.748c0.475-0.476-0.414-0.557-0.701-0.538
	c-0.639,0.041-1.467,0.239-1.936,0.709c-0.186,0.187-0.372,0.373-0.559,0.56c-0.475,0.476,0.414,0.557,0.701,0.538
	c0.639-0.041,1.467-0.239,1.936-0.709C416.103,281.121,416.289,280.935,416.476,280.748z M156.636,423.732
	c-1.563,0.168-2.277,2.199-0.293,1.985c7.399-0.797,13.647,4.012,18.411,9.146c0.84,0.905,3.597-0.233,2.662-1.239
	C171.986,427.771,164.976,422.834,156.636,423.732z M163.149,435.722c-8.448,4.036-17.828,5.806-25.517,11.381
	c-1.596,1.157,0.811,1.929,1.877,1.155c7.466-5.414,16.663-7.093,24.874-11.015C166.184,436.383,164.561,435.048,163.149,435.722z
	 M165.963,480.275c-8.492-0.884-16.61-8.567-18.663-16.747c-0.318-1.267-3.218-0.499-2.898,0.776
	c2.269,9.039,11.238,17,20.528,17.967C166.278,482.413,167.923,480.479,165.963,480.275z M191.042,473.879
	c-7.277,0.328-14.285-0.417-20.977-3.409c-4.398-1.966-8.104-5.1-11.91-7.984c-1.1-0.833-3.585,0.704-2.215,1.742
	c4.021,3.047,7.91,6.085,12.478,8.292c6.937,3.352,14.821,3.955,22.401,3.613C192.511,476.058,193.01,473.791,191.042,473.879z
	 M206.638,464.694c-10.743,2.747-22.199-0.306-31.104-6.607c-0.952-0.674-3.552,0.667-2.258,1.582
	c9.707,6.869,22.208,9.807,33.846,6.831C208.903,466.044,208.412,464.24,206.638,464.694z M211.976,459.625
	c-5.561,2.405-14.136-0.554-18.344-4.431c-0.535-0.493-3.107,0.618-2.738,0.959c5.657,5.213,15.647,6.827,22.727,3.764
	C215.367,459.161,212.612,459.349,211.976,459.625z M128.146,416.391c0.14,0.079,0.188,0.203-0.015,0.405
	c-0.456,0.455-1.311,0.689-1.936,0.706c-1.757,0.047-2.661,2.657-2.987,4.177c-0.039,0.181-0.236,0.345-0.51,0.48
	c0.186,0.342,0.364,0.691,0.527,1.056c0.484,1.083-2.374,1.947-2.898,0.776c-1.434-3.204-3.834-5.507-7.477-5.591
	c-0.56-0.013-1.175-0.465-0.843-1.066c0.212-0.385,0.604-0.603,1.026-0.725c-0.044-0.458,0.448-0.906,0.838-1.075
	c2.576-1.117,3.723-3.742,4.201-6.361c0.17-0.93,1.928-1.388,2.641-0.942c0.893-0.337,2.068-0.21,1.964,0.68
	c-0.401,3.418,2.063,5.377,5.219,5.876C129.19,414.994,128.884,415.88,128.146,416.391z M125.724,416.509
	c-2.635-0.647-4.886-2.079-5.696-4.44c-0.866,1.946-2.22,3.593-4.153,4.653c2.156,0.461,3.924,1.589,5.309,3.205
	C122.146,418.181,123.729,416.984,125.724,416.509z M360.501,300.494c0.14,0.079,0.188,0.203-0.015,0.405
	c-0.456,0.455-1.311,0.689-1.936,0.706c-1.759,0.047-2.663,2.656-2.989,4.177c-0.039,0.181-0.236,0.345-0.51,0.48
	c0.186,0.342,0.364,0.691,0.527,1.056c0.484,1.083-2.374,1.947-2.898,0.776c-1.434-3.203-3.834-5.506-7.477-5.59
	c-0.561-0.013-1.175-0.465-0.843-1.066c0.212-0.385,0.604-0.603,1.026-0.725c-0.045-0.458,0.448-0.906,0.838-1.075
	c2.576-1.117,3.724-3.741,4.201-6.361c0.169-0.93,1.928-1.388,2.641-0.942c0.893-0.338,2.067-0.21,1.963,0.68
	c-0.4,3.418,2.065,5.377,5.222,5.877C361.546,299.097,361.239,299.983,360.501,300.494z M358.078,300.612
	c-2.634-0.648-4.887-2.08-5.697-4.441c-0.866,1.947-2.221,3.594-4.154,4.654c2.157,0.461,3.925,1.589,5.31,3.206
	C354.501,302.284,356.085,301.087,358.078,300.612z M437.771,284.878c0.169-0.931,1.928-1.388,2.641-0.942
	c0.893-0.338,2.067-0.21,1.963,0.68c-0.4,3.418,2.065,5.378,5.222,5.877c1.294,0.205,0.987,1.091,0.249,1.602
	c0.139,0.079,0.188,0.203-0.015,0.405c-0.456,0.454-1.311,0.689-1.936,0.706c-1.759,0.047-2.663,2.655-2.989,4.177
	c-0.039,0.181-0.236,0.345-0.51,0.48c0.186,0.342,0.364,0.691,0.527,1.056c0.484,1.083-2.374,1.947-2.898,0.776
	c-1.434-3.203-3.834-5.506-7.477-5.59c-0.561-0.013-1.175-0.465-0.843-1.066c0.213-0.385,0.604-0.604,1.028-0.726
	c-0.044-0.458,0.448-0.906,0.838-1.075C436.146,290.123,437.293,287.497,437.771,284.878z M435.571,292.426
	c2.156,0.461,3.924,1.589,5.309,3.205c0.965-1.746,2.549-2.943,4.543-3.418c-2.635-0.648-4.887-2.08-5.697-4.441
	C438.86,289.719,437.505,291.366,435.571,292.426z M484.929,328.179c0.14,0.079,0.188,0.203-0.015,0.405
	c-0.456,0.455-1.311,0.689-1.936,0.706c-1.759,0.047-2.663,2.655-2.989,4.177c-0.039,0.181-0.236,0.345-0.51,0.48
	c0.186,0.342,0.364,0.691,0.527,1.056c0.484,1.083-2.374,1.947-2.898,0.776c-1.434-3.203-3.834-5.506-7.477-5.59
	c-0.561-0.013-1.175-0.465-0.843-1.066c0.213-0.385,0.604-0.604,1.028-0.725c-0.044-0.458,0.448-0.906,0.838-1.075
	c2.575-1.117,3.722-3.743,4.199-6.361c0.169-0.93,1.928-1.388,2.641-0.942c0.893-0.338,2.067-0.21,1.963,0.68
	c-0.4,3.418,2.065,5.378,5.222,5.877C485.974,326.782,485.667,327.669,484.929,328.179z M482.507,328.297
	c-2.635-0.648-4.887-2.08-5.697-4.441c-0.865,1.947-2.221,3.594-4.154,4.654c2.156,0.461,3.924,1.589,5.309,3.205
	C478.929,329.969,480.513,328.771,482.507,328.297z M335.968,407.141c0.139,0.079,0.188,0.203-0.015,0.405
	c-0.456,0.454-1.311,0.689-1.936,0.706c-1.759,0.047-2.663,2.655-2.989,4.177c-0.039,0.181-0.236,0.345-0.51,0.48
	c0.186,0.342,0.364,0.691,0.527,1.056c0.484,1.083-2.374,1.947-2.898,0.776c-1.434-3.203-3.834-5.506-7.477-5.59
	c-0.561-0.013-1.175-0.465-0.843-1.066c0.213-0.385,0.604-0.604,1.028-0.726c-0.044-0.458,0.448-0.906,0.838-1.075
	c2.575-1.117,3.722-3.743,4.199-6.361c0.169-0.931,1.928-1.388,2.641-0.942c0.893-0.338,2.067-0.21,1.963,0.68
	c-0.4,3.418,2.065,5.378,5.222,5.877C337.013,405.743,336.706,406.63,335.968,407.141z M333.546,407.258
	c-2.635-0.648-4.887-2.08-5.697-4.441c-0.865,1.947-2.221,3.594-4.154,4.654c2.156,0.461,3.924,1.589,5.309,3.205
	C329.968,408.93,331.552,407.733,333.546,407.258z M467.853,334.193c-1.324,0.787-2.438,8.573-3.092,10.588
	c-0.387,1.191-0.752,2.458-1.682,3.097c0,42.096,0,84.192,0,126.288c0,1.12-2.898,1.667-2.898,0.776c0-42.215,0-84.43,0-126.645
	c-17.313-0.037-34.625-0.233-51.938-0.461c-17.816-0.234-35.634-0.496-53.452-0.6c-2.51-0.015-5.418,0.297-8.171,0.28
	c0,42.216,0,84.433,0,126.649c0,1.12-2.898,1.667-2.898,0.776c0-42.537,0-85.074,0-127.611c-0.377-0.051-0.754-0.104-1.113-0.183
	c-0.902-0.197-1.356-1.032-1.691-1.825c-0.86-2.031-2.018-9.796-4.174-10.587c-0.683-0.25-0.171-0.765,0.571-1.116
	c-0.01-0.5,0.46-1.063,1.243-1.063h57.593h10.538h59.525c0.561,0,0.861,0.216,0.98,0.492
	C468.155,333.059,469.025,333.497,467.853,334.193z M465.045,334.368H340.28c1.295,1.841,1.824,5.366,2.322,6.872
	c0.713,2.154,0.828,4.258,3.422,4.266c3.954,0.013,7.907,0.03,11.86,0.058c16.499,0.116,32.997,0.344,49.495,0.562
	c16.481,0.217,32.964,0.428,49.447,0.478c1.357,0.004,4.305,0.65,4.591-0.164c0.243-0.69,0.474-1.384,0.681-2.087
	c0.531-1.804,1.021-3.619,1.539-5.426C463.979,337.736,464.256,335.714,465.045,334.368z M442.923,359.387
	c0,9.518,0,19.037,0,28.555c0,0.997-2.294,1.538-2.797,1.015H365.36c-0.123,0-0.227-0.028-0.313-0.078
	c-0.496,0.019-0.891-0.113-0.891-0.441c0-9.519,0-19.037,0-28.555c0-0.332,0.258-0.612,0.617-0.821
	c0.09-0.396,0.34-0.752,0.711-0.752h76.354c0.403,0,0.587,0.305,0.617,0.663C442.735,359.028,442.923,359.161,442.923,359.387z
	 M440.03,360.123h-72.975c0,9.007,0,18.014,0,27.021h72.969c0-8.994,0-17.987,0-26.981
	C440.024,360.149,440.03,360.137,440.03,360.123z M442.923,398.859c0,9.518,0,19.037,0,28.555c0,0.997-2.294,1.538-2.797,1.015
	H365.36c-0.123,0-0.225-0.028-0.311-0.077c-0.497,0.02-0.893-0.112-0.893-0.441c0-9.518,0-19.037,0-28.555
	c0-0.332,0.258-0.612,0.616-0.821c0.09-0.396,0.341-0.753,0.712-0.753h76.354c0.403,0,0.587,0.305,0.617,0.663
	C442.735,398.5,442.923,398.633,442.923,398.859z M440.03,399.595h-72.975c0,9.007,0,18.015,0,27.021h72.969
	c0-8.994,0-17.987,0-26.981C440.024,399.622,440.03,399.609,440.03,399.595z M442.923,440.011c0,9.519,0,19.037,0,28.555
	c0,0.997-2.294,1.538-2.797,1.015H365.36c-0.123,0-0.227-0.028-0.313-0.078c-0.496,0.019-0.891-0.113-0.891-0.441
	c0-9.518,0-19.037,0-28.555c0-0.332,0.258-0.612,0.616-0.821c0.09-0.396,0.341-0.752,0.712-0.752h76.354
	c0.402,0,0.587,0.305,0.617,0.663C442.735,439.652,442.923,439.785,442.923,440.011z M440.03,440.748h-72.975
	c0,9.007,0,18.015,0,27.021h72.969c0-8.994,0-17.987,0-26.981C440.024,440.774,440.03,440.761,440.03,440.748z M397.403,372.177
	c0.806-2.875,3.295-4.437,6.232-4.299c0.361,0.017,0.725,0.21,0.876,0.5c0.373-0.102,0.774-0.11,1.137-0.013
	c2.869,0.768,4.336,3.479,3.104,6.27c-1.303,2.949-4.301,4.145-7.351,3.571C398.616,377.68,396.603,375.042,397.403,372.177z
	 M400.188,373.036c0.036,1.849,1.21,2.941,2.94,3.306c1.544,0.326,2.778-1.119,3.038-2.535c0.325-1.777-0.45-3.106-2.216-3.579
	c-0.28-0.075-0.444-0.251-0.528-0.456c-0.274,0.074-0.557,0.115-0.818,0.103C400.971,369.798,400.16,371.614,400.188,373.036z
	 M397.403,412.069c0.806-2.876,3.295-4.438,6.232-4.3c0.361,0.017,0.725,0.21,0.877,0.5c0.373-0.102,0.773-0.11,1.136-0.013
	c2.869,0.767,4.336,3.479,3.104,6.269c-1.303,2.949-4.301,4.146-7.351,3.572C398.616,417.572,396.603,414.934,397.403,412.069z
	 M400.188,412.929c0.036,1.848,1.21,2.941,2.94,3.307c1.544,0.325,2.778-1.121,3.038-2.536c0.325-1.777-0.45-3.107-2.216-3.579
	c-0.28-0.075-0.445-0.251-0.528-0.456c-0.274,0.073-0.557,0.115-0.818,0.103C400.971,409.69,400.16,411.506,400.188,412.929z
	 M397.403,451.962c0.806-2.876,3.295-4.438,6.232-4.3c0.361,0.017,0.725,0.21,0.876,0.5c0.373-0.102,0.774-0.11,1.137-0.013
	c2.869,0.768,4.336,3.48,3.104,6.27c-1.303,2.949-4.301,4.146-7.351,3.571C398.616,457.465,396.603,454.826,397.403,451.962z
	 M400.188,452.821c0.036,1.849,1.21,2.941,2.94,3.306c1.544,0.326,2.778-1.12,3.038-2.536c0.325-1.777-0.45-3.107-2.216-3.579
	c-0.28-0.075-0.445-0.251-0.528-0.456c-0.274,0.073-0.557,0.115-0.818,0.103C400.971,449.583,400.16,451.398,400.188,452.821z
	 M246.395,187.701c-1.813-0.068-3.36,0.788-4.639,2.013c-0.456,0.437-0.305,0.985,0.305,1.137c0.683,0.17,1.542-0.063,2.049-0.549
	c0.242-0.232,0.918-0.86,1.095-0.834c0.753,0.109,1.293,0.993,1.613,1.595c0.567,1.064,3.387,0.142,2.898-0.776
	C249.017,188.974,248.005,187.762,246.395,187.701z" fill="#c1ff70"></path>
</svg>