<svg xmlns="http://www.w3.org/2000/svg" xmlns:xlink="http://www.w3.org/1999/xlink" zoomAndPan="magnify" preserveAspectRatio="xMidYMid meet" version="1.0" viewBox="9.43 91.14 358.84 198.11"><defs><g/></defs><g fill="#c1ff72" fill-opacity="1"><g transform="translate(-4.102109, 286.283528)"><g><path d="M 180.671875 -193.15625 C 183.273438 -193.15625 184.578125 -191.679688 184.578125 -188.734375 L 184.578125 -4.6875 C 184.578125 -3.300781 184.007812 -2.171875 182.875 -1.296875 C 181.75 -0.429688 180.316406 0 178.578125 0 L 142.921875 0 C 141.359375 0 140.097656 -0.257812 139.140625 -0.78125 C 138.191406 -1.300781 137.109375 -2.34375 135.890625 -3.90625 L 64.296875 -101 C 63.609375 -101.875 63.003906 -102.222656 62.484375 -102.046875 C 61.960938 -101.867188 61.703125 -101.347656 61.703125 -100.484375 L 61.703125 -5.734375 C 61.867188 -3.648438 61.472656 -2.171875 60.515625 -1.296875 C 59.566406 -0.429688 57.878906 0 55.453125 0 L 20.046875 0 C 15.703125 0 13.53125 -1.734375 13.53125 -5.203125 L 13.53125 -187.171875 C 13.53125 -191.160156 15.441406 -193.15625 19.265625 -193.15625 L 61.703125 -193.15625 C 63.953125 -193.15625 65.640625 -192.851562 66.765625 -192.25 C 67.898438 -191.644531 69.160156 -190.390625 70.546875 -188.484375 L 133.03125 -101.53125 C 134.070312 -99.96875 135.023438 -99.1875 135.890625 -99.1875 C 136.753906 -99.1875 137.1875 -100.3125 137.1875 -102.5625 L 137.1875 -187.703125 C 137.1875 -191.335938 139.097656 -193.15625 142.921875 -193.15625 Z M 180.671875 -193.15625 "/></g></g></g><g fill="#ffffff" fill-opacity="1"><g transform="translate(180.288933, 286.658528)"><g><path d="M 98.796875 2.59375 C 80.773438 2.59375 64.875 -1.5625 51.09375 -9.875 C 37.3125 -18.195312 26.648438 -29.765625 19.109375 -44.578125 C 11.566406 -59.398438 7.796875 -76.4375 7.796875 -95.6875 C 7.796875 -115.4375 11.78125 -132.851562 19.75 -147.9375 C 27.726562 -163.019531 38.867188 -174.71875 53.171875 -183.03125 C 67.472656 -191.351562 83.8125 -195.515625 102.1875 -195.515625 C 117.09375 -195.515625 130.394531 -192.785156 142.09375 -187.328125 C 153.789062 -181.867188 163.234375 -174.804688 170.421875 -166.140625 C 177.617188 -157.472656 182.34375 -148.285156 184.59375 -138.578125 C 185.113281 -136.492188 185.375 -134.847656 185.375 -133.640625 C 185.375 -132.078125 185.023438 -131.035156 184.328125 -130.515625 C 183.640625 -129.992188 182.515625 -129.648438 180.953125 -129.484375 L 136.5 -122.71875 C 134.59375 -122.71875 133.378906 -123.0625 132.859375 -123.75 C 132.335938 -124.445312 131.816406 -125.835938 131.296875 -127.921875 C 129.910156 -135.890625 126.660156 -142.429688 121.546875 -147.546875 C 116.429688 -152.660156 109.539062 -155.21875 100.875 -155.21875 C 90.65625 -155.21875 82.898438 -150.835938 77.609375 -142.078125 C 72.328125 -133.328125 69.6875 -118.378906 69.6875 -97.234375 C 69.6875 -75.046875 72.546875 -59.617188 78.265625 -50.953125 C 83.984375 -42.285156 92.210938 -37.953125 102.953125 -37.953125 C 116.992188 -37.953125 126.359375 -44.019531 131.046875 -56.15625 L 131.8125 -58.5 L 132.34375 -60.578125 C 132.34375 -62.140625 131.390625 -62.921875 129.484375 -62.921875 L 105.046875 -62.921875 C 103.140625 -62.921875 101.796875 -63.351562 101.015625 -64.21875 C 100.234375 -65.082031 99.84375 -66.554688 99.84375 -68.640625 L 99.84375 -93.59375 C 99.84375 -96.539062 101.660156 -98.015625 105.296875 -98.015625 L 178.09375 -97.5 C 181.21875 -97.5 183.644531 -96.757812 185.375 -95.28125 C 187.113281 -93.8125 187.984375 -91.863281 187.984375 -89.4375 L 187.984375 -4.421875 C 187.984375 -3.203125 187.546875 -2.160156 186.671875 -1.296875 C 185.804688 -0.429688 184.769531 0 183.5625 0 L 173.6875 0 C 170.5625 0 167.785156 -1.644531 165.359375 -4.9375 L 154.953125 -20.015625 C 154.785156 -20.535156 154.441406 -20.796875 153.921875 -20.796875 C 153.578125 -20.796875 152.96875 -20.363281 152.09375 -19.5 C 147.59375 -15.164062 143.304688 -11.523438 139.234375 -8.578125 C 135.160156 -5.628906 129.742188 -3.03125 122.984375 -0.78125 C 116.222656 1.46875 108.160156 2.59375 98.796875 2.59375 Z M 98.796875 2.59375 "/></g></g></g></svg>