<?xml version="1.0" standalone="no"?>
<svg version="1.1" id="Layer_1" xmlns="http://www.w3.org/2000/svg" xmlns:xlink="http://www.w3.org/1999/xlink" x="0px" y="0px" width="595.28px" height="595.28px" viewBox="0 0 595.28 595.28" enable-background="new 0 0 595.28 595.28" xml:space="preserve">
<path id="color_x5F_2" fill="#c1ff70" d="M175.795,196.307c0,0,2.667,30-2.667,38s-13.333,8.667-13.333,8.667s0.667,10-4,10
	s-7.333-11.333-7.333-11.333s-10.667,4-16-6.667s-7.333-38.667-7.333-38.667H175.795z M460.462,308.307
	c-4.667-30-20.666-65.333-39.333-75.333s-32.668-14.667-41.334-14.667s-23.333-2.666-23.333-2.666l-4.667,2l-0.666,4
	c0,0,4.556,5.342,5.333,14.666c0.667,8.001-3.333,11.334-3.333,11.334l-42,2.333c0,0-11.333,8.334-10,21
	c1.333,12.667,5.333,34.667,5.333,34.667l1.333,5.333l-23.333,34l-32-10.667l-10.667,24c0,0,2.667,6.667,10,12
	c7.333,5.334,21.333,10,21.333,10v32.667c0,0,14,18.667,43.334,24c29.333,5.333,36.667,5.333,42,0.667c5.333-4.667,22-28,22-28
	l-11.333,35.333l18,2.667l10-9.334c0,0-12,2.667-8-2.666c4-5.334,12-8,16-12.667s12.666-19.333,12.666-19.333l2.667-0.667l28,12.667
	C448.462,415.641,465.129,338.307,460.462,308.307z"></path>
<path id="color_x5F_1" d="M324.455,161.639c0.389-0.518,1.293-0.813,1.918-0.77c0.456,0.031,0.906,0.08,1.266,0.392
	c0.096,0.083,0.18,0.177,0.274,0.259c0.032,0.028,0.048,0.043,0.053,0.051c0.397,0.075,0.849,0.276,0.504,0.736
	c-0.389,0.518-1.292,0.813-1.918,0.77c-0.456-0.031-0.906-0.08-1.267-0.392c-0.096-0.083-0.179-0.177-0.274-0.259
	c-0.032-0.028-0.048-0.043-0.053-0.051C324.561,162.299,324.11,162.098,324.455,161.639z M329.327,167.741
	c2.624,2.063,4.306,5.054,5.02,8.287c0.261,1.176,3.164,0.427,2.898-0.776c-0.797-3.604-2.746-6.764-5.648-9.045
	C330.728,165.522,328.104,166.78,329.327,167.741z M342.435,217.549c0.022-1.323,0.397-2.403,1.505-3.186
	c0.533-0.377,0.702-1.172,0.13-1.595c-0.624-0.46-1.5-0.264-2.085,0.149c-1.604,1.133-2.462,2.863-2.495,4.814
	C339.462,219.325,342.411,218.951,342.435,217.549z M291.801,227.41c-1.545,1.216-2.407,1.344-3.218-0.571
	c-0.591-1.394-0.701-3.015-0.805-4.505c-0.217-3.128,0.106-6.25,0.132-9.377c0.009-1.196-2.889-0.57-2.896,0.369
	c-0.036,4.48-0.718,9.125,0.42,13.527c1.219,4.714,5.763,3.321,8.688,1.019C295.421,226.849,292.519,226.845,291.801,227.41z
	 M304.81,202.747c-2.171,0.837-4.406,1.26-6.73,1.293c-0.636,0.009-1.105,0.331-1.337,0.726c-0.955,0.041-2.05,0.641-1.729,1.263
	c1.531,2.976,3.527,5.599,5.61,8.204c0.692,0.866,3.477-0.186,2.678-1.185c-1.432-1.792-2.847-3.596-4.074-5.526
	c1.323,0.656,2.692,1.225,4.07,1.776c0.628,0.251,1.484,0.014,2.044-0.302c0.344-0.194,0.923-0.758,0.286-1.013
	c-1.564-0.626-3.129-1.266-4.614-2.052c1.734-0.286,3.431-0.751,5.102-1.396c0.564-0.218,1.086-0.974,0.671-1.543
	C306.326,202.36,305.426,202.509,304.81,202.747z M285.073,207.017c-2.333,0-4.667,0-7,0c-1.702,0-2.184,2.248-0.224,2.248
	c0.549,0,1.098,0,1.647,0c-0.66,0.415-1.287,0.877-1.86,1.435c-0.497,0.483,0.428,0.623,0.721,0.609
	c0.67-0.029,1.438-0.25,1.93-0.728c0.562-0.546,1.192-0.953,1.864-1.317c0.001,0,0.003,0,0.005,0
	c-0.633,1.398-1.676,2.563-2.546,3.836c-0.393,0.576,0.332,0.864,0.792,0.878c0.656,0.02,1.52-0.226,1.911-0.798
	c0.896-1.312,1.919-2.51,2.599-3.921C286.562,209.203,287.009,207.017,285.073,207.017z M293.838,193.953
	c2.812,2.189,6.014,3.609,9.611,3.699c0.695,0.018,1.545-0.189,1.892-0.87c0.311-0.61-0.269-1.138-0.866-1.153
	c-3.205-0.081-5.893-1.356-8.39-3.301C295.121,191.578,292.551,192.95,293.838,193.953z M278.491,201.077
	c3.21-1.13,5.354-3.317,5.419-6.824c0.012-0.634-2.88-0.184-2.897,0.776c-0.046,2.468-1.227,4.346-3.581,5.176
	c-0.22,0.078-1.284,0.583-0.828,0.959C277.073,201.55,278.006,201.248,278.491,201.077z M300.282,177.743
	c0.721,0.218,3.319-0.914,2.359-1.205c-8.14-2.468-16.589-2.069-24.932-1.011c-1.243,0.157-2.53,1.484-0.497,1.227
	C284.948,175.773,292.74,175.456,300.282,177.743z M267.9,152.422c0.455-1.73,1.31-3.129,2.928-3.972
	c0.319-0.167,0.943-0.713,0.305-0.939c-0.637-0.227-1.469,0.024-2.039,0.321c-2.087,1.088-3.472,2.747-4.072,5.028
	C264.799,153.71,267.677,153.269,267.9,152.422z M259.29,185.271c1.509,0.48,3.002,0.57,4.576,0.57c0.63,0,1.501-0.242,1.926-0.741
	c0.446-0.524-0.382-0.661-0.734-0.661c-1.185-0.001-2.287-0.067-3.424-0.43c-0.647-0.206-1.46,0.01-2.039,0.321
	C259.297,184.491,258.633,185.063,259.29,185.271z M245.683,256.542c0.352-1.479,3.107-2.138,4.25-2.951
	c1.596-1.135,1.777-3.181,4.038-3.108c0.716,0.023,1.556-0.178,1.883-0.904c0.281-0.623-0.253-1.26-0.9-1.281
	c-2.984-0.096-4.536,0.831-6.284,3.139c-1.703,2.25-5.177,2.145-5.929,5.302C242.392,258.201,245.365,257.874,245.683,256.542z
	 M264.039,269.181c1.399-2.104,3.871-3.245,5.304-5.388c0.413-0.618-0.355-1.124-0.873-1.181c-0.758-0.084-1.473,0.254-1.89,0.877
	c-0.891,1.332-2.335,2.366-3.587,3.335c-0.554,0.429-0.967,0.936-1.357,1.515c-0.577,0.856-0.466,0.901-1.583,0.595
	c-1.211-0.332-3.431,1.436-1.684,1.914C260.662,271.475,262.658,271.257,264.039,269.181z M262.281,253.594
	c-5.202,2.948-9.689,6.895-14.257,10.713c-1.332,1.114,1.537,1.368,2.375,0.667c4.401-3.679,8.731-7.447,13.743-10.287
	C265.846,253.721,263.354,252.986,262.281,253.594z M444.926,256.887c12.283,20.712,18.745,46.51,19.074,70.568
	c0.244,17.771-3.527,35.829-6.989,53.176c-1.645,8.238-3.396,16.458-5.351,24.628c-0.682,2.85-1.01,7.356-2.612,10.028
	c-0.056,0.264-0.091,0.427-0.098,0.458l-0.13,0.605l-0.569-0.258c-0.152,0.066-0.32,0.122-0.496,0.165
	c-0.632,0.326-1.595,0.601-1.976,0.471c-3.099-1.057-6.18-2.224-9.227-3.491c-4.084,16.019,6.931,39.154-7.931,51.136
	c-0.48,0.387-2.639,1.155-2.608-0.05c0.089-3.562,0.592-7.087,0.869-10.626c-1.82,4.669-3.424,9.402-6.572,13.47
	c-0.403,0.52-2.492,1.403-2.798,0.361c-1.701-5.813,1.804-10.96,3.085-16.464c-3.824,7.059-6.705,16.023-14.443,18.293
	c-0.361,0.106-1.848,0.255-1.641-0.534c1.188-4.524,3.193-8.745,5.038-13.015c-0.737,1.282-1.511,2.544-2.351,3.769
	c-2.501,3.646-5.657,7.95-10.439,8.358c-0.327,0.028-1.452,0.033-1.248-0.612c3.346-10.582,9.901-20.811,9.985-32.174
	c-2.729,0.543-5.269,1.594-7.804,2.519l1.115-0.248l-0.74,0.691c0.093,0.102,0.173,0.218,0.221,0.364
	c0.732,2.24-2.183,5.345-3.551,6.776c-0.11,0.116-0.231,0.208-0.345,0.316c-8.187,17.527-9.454,36.565-9.484,55.684
	c-0.002,1.09-2.899,1.623-2.898,0.776c0.03-18.515,1.146-36.976,8.571-54.068c-5.356,2.016-12.148,0.332-17.622-0.261
	c-0.745-0.081-0.983-0.43-0.916-0.821c-0.944-0.047-1.887-0.173-2.745-0.567c-0.087-0.04-0.147-0.086-0.192-0.135
	c-0.358,0.005-0.61-0.044-0.596-0.147c0.029-0.209,0.065-0.417,0.096-0.627l-0.136-0.02l0.264-0.82
	c1.466-9.438,4.407-18.526,7.082-27.68c-0.512,0.695-1.05,1.423-1.605,2.171c-4.061,6.522-8.367,12.951-13.99,18.016
	c-6.848,6.167-15.418,5.185-24.096,4.335c-21.191-2.074-49.201-8.08-63.222-25.998c0.003,0.115,0.001,0.231,0.005,0.346
	c0.006,0.186-0.173,0.352-0.445,0.491c-1.333,14.254-1.738,28.64-1.495,42.939c0.129,7.622,0.366,15.28,1.249,22.858
	c0.508,4.359,0.845,9.554,3.067,13.457c0.763,1.341-1.994,2.439-2.65,1.286c-2.18-3.829-2.696-8.661-3.197-12.956
	c-0.841-7.213-1.208-14.482-1.357-21.739c-0.343-16.628,0.096-33.356,1.867-49.902c-0.03-9.637,0.875-19.553,2.679-29.369v-0.98
	c-0.341,0.058-0.649,0.053-0.833-0.047c-10.122-5.519-22.25-9.708-29.419-19.251c-0.279-0.371-0.503-0.742-0.689-1.112
	c-1.492,2.943-2.902,5.928-4.19,8.97c-1.732,4.089-3.265,8.047-6.321,11.382c-0.767,0.836-1.598,1.615-2.464,2.362
	c0.575,37.125,1.661,74.246,1.714,111.371c0.001,1.206-2.923,1.706-2.926,0.259c-0.002-1.384-0.025-2.769-0.043-4.153
	c-0.372-28.146-0.866-56.289-1.274-84.433c-0.101-6.932-0.199-13.864-0.294-20.796c-3.479,2.585-7.226,4.923-10.219,7.898
	c0.172,11.523,0.365,23.046,0.569,34.569c0.394,22.21,1.143,44.442,1.188,66.657c0.002,1.206-2.923,1.706-2.926,0.259
	c-0.044-22.215-0.794-44.446-1.188-66.657c-0.185-10.442-0.36-20.884-0.52-31.326c-2.42,3.839-2.994,8.361-4.384,12.66
	c-1.41,4.358-3.713,8.503-7.167,11.588c-6.278,5.606-15.056,8.463-23.476,7.615c-15.413-1.551-20.251-16.993-21.719-30.294
	c-2.035-18.44-0.397-36.921-2.75-55.389c-3.906-30.652-0.872-61.228-0.786-92.014c-2.866-0.731-4.35-3.607-4.021-6.719
	c0.002-0.021,0.011-0.038,0.014-0.058c-10.051-2.418-17.786-9.087-21.71-19.219c-3.693-9.535-3.878-19.295-4.418-29.253
	c-1.097-0.272-0.985-1.492-0.113-1.982c-0.034-0.557-0.068-1.114-0.106-1.672c-0.839-12.269-2.531-26.249,2.009-37.99
	c2.255-5.833,8.952-8.129,15.417-8.923c-0.04-0.03-0.068-0.064-0.068-0.107c0-1.167,0-2.333,0-3.5c0-0.241,0.236-0.447,0.57-0.608
	c0.027-0.098,0.102-0.205,0.272-0.309c0.594-0.364,1.355-0.549,2.049-0.549c0.517,0,1.081,0,1.662,0.012
	c-0.038-0.096-0.067-0.199-0.072-0.319c-0.137-3.37,3.629-8.081,2.79-11.191c-0.623,0.028-1.245-0.001-1.836-0.122
	c-2.717-0.556-5.299-3.047-4.095-6.03c1.188-2.941,4.602-3.896,7.513-3.493c0.057,0.008,0.088,0.033,0.136,0.047
	c0.041,0.009,0.084,0.008,0.125,0.02c2.593,0.723,5.021,3.315,3.782,6.171c-0.532,1.225-1.525,2.105-2.698,2.674
	c0.611,3.346-2.942,7.776-2.783,11.694c0.012,0.294-0.14,0.542-0.374,0.736c2.33,0.35,4.344,1.331,4.358,4.024
	c9.196,0.75,17.451,4.778,21.999,13.725c4.77,9.382,5.425,20.323,5.188,30.672c-0.247,10.772,0.628,21.919-0.79,32.588
	c-1.57,11.804-7.421,20.014-18.154,22.834c0.317,2.95-0.76,6.094-3.754,6.852c-0.032,8.251-0.233,16.499-0.499,24.746
	c-0.511,15.9-1.89,32.127-0.731,48.013c0.994,13.627,3.675,27.084,3.841,40.776c0.186,15.382-1.412,32.079,3.822,46.846
	c2.397,6.766,6.77,13.552,14.258,15.243c12.415,2.804,25.907-4.221,29.423-16.747c1.158-4.125,1.841-8.955,4.243-12.604
	c0.866-1.315,1.884-2.464,2.986-3.525c-0.049-3.322-0.105-6.646-0.149-9.968c-0.096-7.246-0.634-14.691-0.098-21.93
	c-3.448-1.819-6.283-4.75-6.502-8.054c-0.018-0.268,0.103-0.498,0.297-0.684c-1.091-0.663-2.107-1.459-2.986-2.436
	c-2.494-2.768-3.03-6.046-0.987-8.892c-2.978-2.052-4.393-5.135-2.195-9.09c0.415-0.747,3.298-1.142,2.676-0.021
	c-0.025,0.044-0.04,0.088-0.063,0.132c2.975-1.178,6.487-1.266,9.789-0.7c-0.002-0.012-0.01-0.021-0.012-0.033
	c-0.48-3.65-0.499-7.325-0.5-11c0-0.324,0.273-0.597,0.65-0.798c-1.841-2.406,0.038-5.747,2.342-7.069
	c2.368-1.359,5.703-1.579,8.342-1.85c0.117-0.012,0.224-0.01,0.339-0.02c-0.114-0.134-0.187-0.303-0.187-0.522
	c-0.013-15.482-0.331-30.969-0.514-46.45c-0.396-33.549-0.797-67.099-1.139-100.649c-0.206-20.206-1.357-40.706-0.348-60.901
	c0.003-0.063,0.019-0.123,0.037-0.182c-4.793-0.411-9.873,0.134-14.64,0.232c-9.807,0.202-19.613,0.445-29.418,0.697
	c-13.169,0.339-26.338,0.696-39.507,1.07c0.14,2.194,0.512,5.472-0.116,7.58c12.872-0.111,25.764-0.816,38.627-1.205
	c8.592-0.26,17.186-0.519,25.78-0.706c3.484-0.076,7.164-0.43,10.691-0.209c0.835-0.61,2.529-0.631,2.472,0.463
	c-0.646,12.458,0.021,25.097,0.137,37.562c0.504,54.14,1.813,108.296,1.863,162.438c0.001,1.206-2.924,1.706-2.926,0.259
	c-0.011-12.643-0.276-25.29-0.431-37.932c-0.408-33.247-0.824-66.495-1.181-99.743c-0.218-20.233-1.393-40.781-0.438-61.018
	c-4.234-0.351-8.702,0.118-12.907,0.219c-8.484,0.204-16.967,0.455-25.449,0.714c-8.553,0.262-17.119,0.666-25.683,0.922
	c0,1.273,0,2.547,0,3.821c0,0.874-2.897,1.309-2.897,0.776c0-1.504,0-3.009,0-4.514c-3.078,0.079-6.155,0.134-9.231,0.151
	c-0.324,0.001-0.57-0.054-0.759-0.142c-0.818-0.053-1.456-0.482-0.76-1.26c1.046-1.168,0.25-7.148,0.236-8.994
	c-0.005-0.669,1.086-1.106,1.61-1.121c14.396-0.411,28.792-0.8,43.188-1.167c9.916-0.252,19.831-0.502,29.748-0.693
	c4.546-0.087,9.4-0.622,13.936-0.107c1.021,0.116,1.056,0.689,0.671,1.192c0.179,0.143,0.288,0.35,0.273,0.637
	c-0.764,15.272,0.057,30.761,0.201,46.042c0.511,53.979,1.753,107.977,1.799,161.958c0,0.302-0.184,0.56-0.459,0.754
	c12.786,0.868,13.68,19.008,23.543,24.972c0.368-0.948,0.716-1.905,1.012-2.888c0.238-0.787,2.554-1.198,2.86-0.653
	c0.374-0.1,0.723-0.135,0.949-0.039c2.886,1.233,5.779,2.451,8.682,3.639l21.25,7.083l2.494-3.634
	c1.205-2.325,2.451-4.617,3.781-6.833c4.927-8.208,10.404-16.073,15.482-24.184c-0.281-0.004-0.48-0.065-0.507-0.2
	c-2.346-12.108-7.022-28.583-4.899-42.435c0.176-1.888,0.606-3.657,1.203-5.29c1.162-3.732,2.988-7.17,5.678-10.158
	c-7.441,0.502-15.071,0.089-21.159-4.204c-1.406-0.992-2.612-2.125-3.679-3.35c-2.363,1.206-1.391,4.045-2.983,5.722
	c-1.092,1.151-2.242,1.979-3.633,2.77c-5.786,3.288-11.299,7.39-16.829,11.104c-2.725,1.831-12.801,12.17-16.633,7.052
	c-4.072-5.439,6.466-12.969,9.932-15.484c8.483-6.157,18.03-10.511,26.848-16.123c-2.829-5.633-3.807-12.349-4.577-18.582
	c-1.593-12.897-4.074-25.698-4.265-38.724c-2.545,0.032-5.09,0.066-7.634,0.074c-1.093,0.003-0.914-0.474-0.369-0.895
	c0.126-9.276,1.925-19.484,6.519-27.615c0.153-0.271,0.617-0.464,1.128-0.581c-0.443-0.438,0.963-1.521,1.856-1.526
	c15.102-0.096,30.357-2.425,45.326,0.541c0.471,0.093,0.604,0.279,0.545,0.493c0.447,0.109,0.704,0.395,0.452,0.896
	c8.913,0.106,18.79,1.59,23.609,10.098c6.606,11.664,6.897,27.101,6.972,40.179c0.003,0.494-0.57,0.875-1.209,1.03
	c3.172,0.309,6.015,2.409,6.835,5.629c0.498,1.957,0.479,3.906,0.06,5.741l1.798-0.771l0.148,0.027
	c0.04,0.007,1.19,0.215,3.009,0.51c8.768-0.153,17.561,0.529,26.157,2.285C410.125,222.931,431.967,235.035,444.926,256.887z
	 M149.063,127.316c0.529-0.576,0.808-1.413,0.718-2.29c-0.199-1.931-1.523-3.117-3.293-3.667c-1.776-0.207-3.115,1.123-2.987,2.985
	c0.035,0.503,0.158,0.976,0.352,1.406c0.482-0.462,1.337-0.793,1.947-0.575C147.435,125.759,148.46,126.485,149.063,127.316z
	 M141.7,145.925c0.414-0.031,0.821-0.058,1.228-0.079c0.275-0.284,0.711-0.519,1.218-0.559c1.271-0.099,2.534-0.135,3.789-0.126
	c-0.508-2.391-3.06-2.841-5.524-2.924c0,1.005,0,2.01,0,3.015C142.41,145.526,142.108,145.756,141.7,145.925z M125.205,194.518
	c16.623,0,33.246,0,49.868,0c0.029,0,0.053,0.005,0.081,0.006c0.015-1.74,0.03-3.479,0.054-5.218
	c0.124-9.085-0.354-18.847-4.12-27.268c-4.445-9.939-12.789-14.747-22.97-15.134c-0.333,0.069-0.664,0.13-0.995,0.182
	c-0.378,0.247-0.836,0.429-1.213,0.422c-4.877-0.087-10.856,0.94-15.327,2.879c-4.38,1.899-5.271,9.567-5.738,13.717
	C123.704,174.25,124.616,184.377,125.205,194.518z M154.513,244.273c0.017,0.001,0.028,0.005,0.045,0.007
	c0.494-0.05,0.977-0.11,1.448-0.182c0.219-1.048,2.251-1.539,2.805-0.59c12.585-3.42,15.839-15.731,16.121-28.515
	c0.133-6.079,0.159-12.168,0.203-18.254c-0.091,0.014-0.185,0.023-0.285,0.023c-16.506,0-33.013,0-49.519,0
	c0.479,9.301,0.531,18.536,3.959,27.386C133.683,235.488,142.159,243.058,154.513,244.273z M154.387,249.895
	c1.902-0.152,2.077-2.431,1.85-4.187c-0.687,0.111-1.38,0.215-2.102,0.286c-0.167,0.017-0.307,0.015-0.435,0.006
	c-0.099,0.011-0.197,0.017-0.29,0.008c-0.679-0.067-1.345-0.159-2.006-0.26C151.425,247.583,152.193,250.07,154.387,249.895z
	 M272.99,180.29c10.848-0.13,21.687-0.146,32.378,2.017c0.211-0.072,0.425-0.115,0.626-0.105c3.785,0.19,5.592-13.628,6.097-16.121
	c0.845-4.168,1.395-8.797,3.323-12.656c-14.373-2.809-29.062-0.625-43.573-0.444c-4.521,8.054-6.309,18.122-6.431,27.271
	c0,0.041-0.013,0.079-0.026,0.118c1.984-0.013,3.968-0.036,5.953-0.061C271.878,180.087,272.555,180.053,272.99,180.29z
	 M281.32,242.404c-0.325-0.457-0.631-0.925-0.923-1.403c-6.368,3.957-13.117,7.252-19.479,11.219
	c-3.514,2.191-7.023,4.489-10.117,7.258c-1.548,1.387-3.435,2.945-4.619,4.702c-0.477,0.67-0.867,1.386-1.171,2.148
	c-1.036,2.12,0.106,2.967,3.425,2.543c6.914-5.031,14.048-9.68,21.059-14.584c3.688-2.58,7.644-4.229,8.853-8.941
	C278.755,243.766,279.964,243.016,281.32,242.404z M309.63,249.527c0.095-0.083,0.18-0.172,0.276-0.255
	c0.508-0.434,3.185-0.754,2.611-0.264c-0.103,0.088-0.192,0.183-0.293,0.271c2.743-0.29,5.449-0.632,8.048-0.857
	c5.851-0.505,11.837-0.315,17.778-0.446l7.502-0.417c1.902-0.19,3.791-0.459,5.662-0.843c0.346-0.071,0.628-0.042,0.871,0.027
	c1.833-1.608,3.142-4.083,3.857-6.861c0.107-1.055,0.129-2.23,0.021-3.536c-0.51-6.111-2.691-10.501-4.066-12.726
	c-0.425-0.304-0.883-0.567-1.369-0.792c-3.121,2.88-7.527,4.339-11.96,3.074c-1.617-0.461,0.907-1.779,1.787-1.527
	c4.723,1.348,9.003-1.829,10.822-6.074l0.169-1.014l0.247-0.106c0.567-1.812,0.69-3.754,0.224-5.588
	c-0.552-2.166-1.813-4.383-4.039-5.192c-2.939-1.068-4.81,1.003-5.87,3.548c-0.385,0.923-3.26,1.26-2.893,0.381
	c1.312-3.147,3.937-5.657,7.458-5.852c-0.279-0.122-0.468-0.345-0.47-0.691c-0.042-7.42-0.438-14.885-1.661-22.215
	c-0.955-5.718-1.902-12.054-5.067-17.059c-4.966-7.851-13.124-9.31-21.804-9.434c-2.598,6.214-2.7,13.72-4.653,20.089
	c-1.193,3.891-2.949,9.156-7.889,8.909c-0.332-0.017-0.55-0.086-0.689-0.184c-0.065,0-0.125-0.005-0.179-0.016
	c-10.109-2.109-20.354-2.196-30.613-2.085c0.213,12.765,2.625,25.346,4.229,37.982c0.756,5.956,1.621,12.737,4.386,18.321
	c0.275-0.051,0.554-0.082,0.828-0.082c1.236,0.001,2.832,0.025,3.519,1.238c0.275,0.485-2.462,1.544-2.897,0.776
	c-0.171-0.302-0.435-0.482-0.738-0.593c1.435,2.497,3.306,4.704,5.813,6.404C294.78,250.037,302.254,250.166,309.63,249.527z
	 M356.47,232.771c-0.229-2.2-0.832-4.301-1.843-6.056C355.334,228.377,356.008,230.403,356.47,232.771z M215.41,332.252
	c0.068,0.52-0.667,0.941-1.415,1.111c1.207,0.281,2.37,0.64,3.444,1.061c3.915,1.534,8.263,5.154,3.726,8.932
	c-0.55,0.458-1.21,0.84-1.941,1.159c2.359,1.633,4.379,4.029,3.441,6.998c-0.056,0.176-0.123,0.343-0.194,0.509
	c1.131,0.418,2.167,1.048,2.968,1.882c-0.143-5.715-0.302-11.466,0.059-17.134c0.016-0.244,0.149-0.457,0.347-0.631
	c-0.63-1.905-1.154-3.897-2.042-5.896c-2.123-4.775-5.458-5.014-8.886-7.16C214.934,326.147,215.01,329.208,215.41,332.252z
	 M204.581,341.192c0.82-0.008,1.596,0.355,1.419,0.951c0.479,0.268,0.982,0.508,1.501,0.712c1.807,0.712,4.514,1.533,7.002,1.541
	c-0.046-0.827,1.325-1.736,2.281-1.283c0.361,0.171,0.735,0.365,1.114,0.577c0.642-0.332,1.208-0.789,1.651-1.417
	c4.486-6.347-12.564-9.182-16.208-7.273c-0.279,0.146-0.742,0.216-1.182,0.215C201.549,337.618,202.693,339.691,204.581,341.192z
	 M213.446,354.026c1.622,0.137,4.291,0.001,5.629-1.316c0.066-0.272,0.268-0.546,0.546-0.759c0.137-0.286,0.228-0.606,0.26-0.968
	c0.24-2.654-2.006-4.407-4.16-5.524c-3.573,0.506-7.795-0.024-11.102-1.461C201.931,348.737,208.813,353.634,213.446,354.026z
	 M219.674,362.673c5.476,0.403,5.491-6.74,1.361-8.626c-1.739,1.625-4.381,2.378-6.701,2.309c-1.789-0.053-3.57-0.38-5.251-0.971
	C210.136,359.198,216.254,362.421,219.674,362.673z M225.855,384.188c-0.099-7.391-0.189-14.782-0.27-22.173
	c-0.927,1.156-2.232,2.023-3.734,2.438c-1.87,0.516-4.208,0.294-6.513-0.446c-0.391,7.044,0.097,14.252,0.192,21.279
	c0.031,2.314,0.071,4.629,0.105,6.944c1.371-1.058,2.801-2.056,4.215-3.077C222.071,387.55,224.064,385.927,225.855,384.188z
	 M240.945,357.709c-3.449,2.954-8.006,3.959-12.482,3.496c-0.012-0.001-0.021-0.004-0.032-0.006
	c0.053,6.652,0.133,13.304,0.23,19.955c2.077-2.521,3.815-5.345,5.243-8.716C236.033,367.412,238.373,362.51,240.945,357.709z
	 M242.498,352.726c1.72-4.704,4.25-9.014,6.236-13.587c-0.047-0.009-0.103-0.005-0.143-0.021
	c-10.668-4.305-10.348-19.211-20.121-24.306c-3.122-1.627-14.824-2.917-13.561,3.441c0.822,4.134,4.264,3.858,7.248,5.699
	c6.64,4.098,4.927,13.269,10.673,18.213c0.343,0.295-2.183,1.432-2.739,0.953c-0.681-0.585-1.243-1.203-1.73-1.843
	c-0.009,6.016,0.011,12.032,0.054,18.049c0.316-0.18,0.683-0.285,1.045-0.247c3.738,0.387,7.26-0.503,10.038-3.108
	c0.556-0.522,1.431-0.5,1.953-0.176C241.733,354.785,242.118,353.765,242.498,352.726z M273.202,379.804
	c1.847-9.089,4.466-18.052,7.85-26.574c-0.077-0.115-0.105-0.261-0.05-0.447c0.642-2.158,1.552-4.198,2.658-6.133
	c-10.497-3.08-20.635-7.164-30.691-11.442c-1.905,5.485-5.105,10.313-7.091,15.744c-0.372,1.018-0.761,2.005-1.087,2.974
	c0.476,0.053,0.771,0.271,0.515,0.725c-0.421,0.747-0.825,1.501-1.235,2.253c-0.211,1.873,0.165,3.707,1.778,5.578
	c6.971,8.083,17.028,12.115,26.302,16.958C272.686,379.627,273.051,379.753,273.202,379.804z M395.016,440.963l-5.707,5.328
	c1.486-0.462,2.547-1.282,3.629-2.612C393.376,443.141,394.619,441.887,395.016,440.963z M434.083,412.185
	c-5.03-2.204-9.947-4.705-14.665-7.52c-0.125,5.058-6.344,11.445-9.023,14.233c-1.412,1.47-2.84,2.642-4.345,3.744
	c-0.187,0.234-0.369,0.458-0.541,0.658c-1.912,2.23-4.625,3.958-7.497,5.788c-3.015,1.92-6.116,3.91-8.203,6.515
	c-0.347,0.525-0.606,1-0.731,1.376c1.324,0.587,2.707,0.678,4.122,0.658c4.723-0.806,9.202-3.654,13.963-4.291
	c0.26-0.035,1.242-0.066,1.249,0.407c0.156,11.438-6.104,21.572-9.649,32.153c3.95-1.775,7.129-8.386,8.883-11.549
	c2.057-3.71,3.84-7.576,5.969-11.243c0.36-0.62,2.969-1.35,2.797-0.156c-1.225,8.528-6.051,15.782-8.545,23.906
	c3.201-2.296,5.319-7.132,6.943-10.217c1.898-3.605,3.651-7.405,6.305-10.533c0.333-0.392,2.71-1.46,2.798-0.361
	c0.489,6.176-3.866,11.733-3.929,17.706c2.854-5.21,4.261-11.082,7.131-16.345c0.288-0.526,2.741-1.358,2.798-0.361
	c0.27,4.804-0.496,9.535-0.847,14.305c4.944-6.452,4.645-15.75,4.203-23.614c-0.462-8.229-1.784-17.101,0.746-25.12
	C434.029,412.276,434.055,412.23,434.083,412.185z M442.614,413.544l-14.511-6.564C432.814,409.451,437.675,411.64,442.614,413.544z
	 M445.157,262.61c-4.219-8.015-9.499-15.345-16.121-21.438c-13.454-12.379-30.94-19.498-49.029-22.359
	c-0.069,0-0.144-0.007-0.212-0.007c-4.529,0-10.731-0.732-15.617-1.431c-3.152-0.082-6.293-0.047-9.403,0.105
	c-0.255,0.013-0.462-0.005-0.628-0.044c-0.484,1.325-1.179,2.567-2.042,3.679c10.042,4.097,9.132,21.122,1.265,26.983
	c-0.012,0.008-0.025,0.015-0.037,0.023l-0.01,0.008h-0.004c-0.32,0.214-0.788,0.309-1.221,0.297
	c-0.121,0.05-0.234,0.104-0.389,0.136c-11.25,2.31-23.048,0.916-34.446,2.116c-2.276,0.24-4.659,0.521-7.083,0.745
	c-0.181,0.164-0.378,0.347-0.586,0.547c-11.769,14.07-5.05,37.971-1.624,54.584c1.424-2.352,2.816-4.724,4.13-7.144
	c6.096-11.232,12.236-24.279,9.913-37.384c-0.112-0.636,2.808-1.284,2.898-0.776c2.236,12.618-3.372,25.473-9.263,36.327
	c-2.349,4.327-4.894,8.525-7.519,12.673l0.205,0.818l-0.128,0.186l-11.706,17.057c-0.661,1.052-1.322,2.104-1.97,3.165
	c-1.18,1.932-2.297,3.917-3.385,5.924c3.78-3.541,8.118-6.548,12.384-9.051c8.081-4.742,17.255-9.184,26.735-9.998
	c23.506-2.02,44.218,12.398,57.531,30.681c0.804,1.104-1.981,2.159-2.67,1.214c-12.29-16.877-32.093-31.985-54.149-30.09
	c-9.057,0.778-17.878,4.625-25.58,9.312c-6.979,4.246-14.31,9.607-18.646,16.749c-7.001,15.428-11.432,32.435-13.124,49.365v15.994
	c1.896,2.936,4.16,5.578,6.708,7.956c4.09,3.5,10.036,7.747,17.876,11.274c3.726,1.611,7.6,2.971,11.512,4.12
	c2.178,0.594,4.449,1.122,6.828,1.554c16.146,2.936,24.702,4.08,30.518,4.08c2.421,0,4.307-0.213,5.85-0.593
	c2.95-0.992,5.218-2.942,7.677-5.777c6.746-7.779,11.794-16.734,17.438-25.294c0.295-0.448,2.545-1.101,2.83-0.679l1.053-1.474
	l-5.181,16.152c-2.142,7.216-4.188,14.455-5.258,21.919l13.406,1.986c0.873,0.006,1.73-0.047,2.573-0.152l7.199-6.721
	c-0.151-0.041-0.329-0.069-0.567-0.064c-0.612,0.011-2.772-0.073-4.874-0.467c-1.018-0.039-2.06-0.178-3.142-0.476
	c-0.233-0.064-0.706-0.246-0.56-0.599c0.024-0.059,0.054-0.114,0.079-0.172c-0.854-0.578-1.244-1.343-0.741-2.354
	c0.752-1.514,3.386-2.886,4.695-3.91c0.68-0.531,1.363-1.058,2.045-1.586c2.481-2.191,5.282-4.098,7.925-6.133
	c7.234-5.572,13.498-11.482,16.497-20.345c0.04-0.118,0.119-0.227,0.225-0.325c-0.034-0.073-0.063-0.148-0.103-0.219
	c-0.141-0.248-0.159-0.487-0.092-0.706c-3.999-2.569-7.834-5.372-11.443-8.426c-0.252-0.213,0.242-0.588,0.887-0.853
	c0.018-0.166,0.094-0.353,0.267-0.565c13.826-17.054,11.873-43.503,10.861-64.07c-1.137-23.067-8.254-48.416-22.481-66.887
	c-0.895-1.161,1.869-2.285,2.656-1.264c14.801,19.215,21.703,45.233,22.816,69.153c0.967,20.775,2.506,46.692-11.437,63.889
	c-0.045,0.055-0.098,0.104-0.153,0.151c3.862,3.209,7.97,6.139,12.257,8.803l0.236-0.059l26.053,11.786
	c0.013-0.049,0.025-0.104,0.038-0.149c4.03-14.243,6.875-28.941,9.489-43.508c2.252-14.884,4.199-31.047,4.61-44.428
	c-0.094-4.561-0.417-9.149-1.044-13.787c-1.741-12.892-4.678-26.616-9.729-39.327C448.451,269.451,446.856,265.958,445.157,262.61z
	 M311.013,447.821c-1.163,4.016-1.767,8.205-2.079,12.436c-6.001-3.539-10.933-9.357-13.023-16.004
	c-0.339-1.08-3.227-0.271-2.897,0.776c2.324,7.388,7.99,13.74,14.803,17.338c0.237,0.125,0.602,0.124,0.983,0.047
	c-0.222,4.291-0.191,8.602-0.173,12.795c0.034,7.621-0.125,15.807,1.387,23.32c0.203,1.007,3.111,0.284,2.898-0.776
	c-1.354-6.731-1.227-13.987-1.357-20.815c-0.185-9.667-0.359-20.102,2.357-29.477C314.213,446.417,311.299,446.835,311.013,447.821z
	 M468.008,331.801c-0.058,4.506-0.936,8.701-2.906,12.769c-0.646,1.336,2.267,1.079,2.721,0.142
	c2.04-4.215,3.035-8.546,3.094-13.231C470.933,330.172,468.021,330.746,468.008,331.801z M470.911,312.252
	c-0.398-1.032-3.264-0.171-2.898,0.776c1.87,4.847,2.926,9.799,3,15c0.014,0.93,2.914,0.362,2.898-0.776
	C473.837,322.051,472.78,317.1,470.911,312.252z M166.484,169.668c-1.5,0-3,0-4.5,0c-0.689,0-1.535,0.186-1.896,0.854
	c-0.321,0.595,0.274,1.091,0.85,1.091c1.5,0,3,0,4.5,0c0.689,0,1.535-0.186,1.896-0.854
	C167.655,170.165,167.06,169.668,166.484,169.668z M165.071,180.51c-1.333,0-2.667,0-4,0c-0.663,0-1.514,0.507-1.583,1.222
	c-0.074,0.773,0.75,1.04,1.363,1.04c1.333,0,2.667,0,4,0c0.663,0,1.514-0.507,1.583-1.222
	C166.509,180.776,165.685,180.51,165.071,180.51z M161.334,206.705c1.5,0,3,0,4.5,0c0.635,0,1.513-0.482,1.596-1.174
	c0.09-0.76-0.772-0.955-1.341-0.955c-1.5,0-3,0-4.5,0c-0.635,0-1.513,0.482-1.596,1.174
	C159.903,206.51,160.765,206.705,161.334,206.705z M160.432,217.589c1.333,0,2.667,0,4,0c0.684,0,1.532-0.19,1.898-0.844
	c0.332-0.591-0.281-1.053-0.839-1.053c-1.333,0-2.667,0-4,0c-0.684,0-1.532,0.19-1.898,0.844
	C159.261,217.127,159.874,217.589,160.432,217.589z M404.606,113.382c0.272-0.111,0.558-0.175,0.816-0.152
	c0.033,0.003,0.062,0.011,0.095,0.014c0.008,0,0.016-0.003,0.023-0.003c0.457-0.041,0.759,0.027,0.943,0.151
	c12.779,2.534,6.963,28.842,5.152,37.051c-0.525,2.381,0.025,1.44,2.096,2.451c1.325,0.647,2.718,1.494,3.578,2.74
	c1.854,2.688,2.44,6.071,1.573,9.249c-1.697,6.215-6.51,10.617-12.706,11.598c-0.291,0.139-0.601,0.227-0.877,0.215
	c-0.196-0.008-0.385-0.034-0.578-0.05c-0.166,0.011-0.328,0.032-0.496,0.039c-0.504,0.02-0.826-0.08-1.004-0.242
	c-12.121-2.325-17.417-20.101-4.289-24.037C396.564,142.615,390.731,115.793,404.606,113.382z M399.231,134.613
	c0.462,6.003,1.369,11.998,2.803,17.849c0.198,0.812-1.079,1.179-1.624,1.277c-6.073,1.094-7.751,7.452-5.615,12.635
	c1.926,4.672,5.674,7.916,10.678,8.452c10.622-1.354,16.221-18.803,3.317-21.125c-0.311-0.056-0.673-0.336-0.585-0.693
	c1.594-6.5,2.678-13.265,2.926-19.956c0.188-5.085,0.662-16.898-6.391-17.965C397.875,116.272,398.862,129.826,399.231,134.613z
	 M397.129,163.307c0,4.418,3.582,8,8,8s8-3.582,8-8c0-4.039-2.996-7.369-6.884-7.913c0-9.825,0-19.65,0-29.476
	c0-0.518-2.898-0.086-2.898,0.776c0,9.606,0,19.213,0,28.818C399.787,156.324,397.129,159.501,397.129,163.307z M381.897,125.79
	c2.222,0,4.444,0,6.667,0c0.653,0,1.517-0.216,1.913-0.789c0.39-0.564-0.328-0.846-0.784-0.846c-2.222,0-4.444,0-6.667,0
	c-0.653,0-1.517,0.216-1.913,0.789C380.724,125.508,381.441,125.79,381.897,125.79z M393.771,107.496
	c0.442,0.647,3.248-0.266,2.715-1.047c-1.43-2.093-3.24-3.904-5.333-5.333c-0.513-0.35-1.367-0.116-1.888,0.085
	c-0.176,0.068-1.325,0.622-0.827,0.962C390.531,103.593,392.342,105.404,393.771,107.496z M405.245,99.918c0-2.222,0-4.445,0-6.667
	c0-0.667-2.898-0.19-2.898,0.776c0,2.222,0,4.445,0,6.667C402.347,101.362,405.245,100.885,405.245,99.918z M413.25,108.529
	c0.689,0.036,1.5-0.234,1.905-0.819c1.26-1.814,3.081-3.032,4.891-4.24c0.418-0.279,0.847-0.902,0.226-1.238
	c-0.61-0.33-1.514-0.122-2.06,0.243c-2.162,1.443-4.274,2.932-5.775,5.094C412.029,108.155,412.779,108.505,413.25,108.529z
	 M417.789,123.642c-0.416,0.548,0.351,0.763,0.761,0.763c1.778,0,3.556,0,5.333,0c0.643,0,1.51-0.228,1.919-0.768
	c0.416-0.548-0.351-0.763-0.761-0.763c-1.778,0-3.556,0-5.333,0C419.065,122.875,418.198,123.102,417.789,123.642z M367.544,237.55
	c-5.21,12.324-13.982,18.732-27.486,18.922c-1.073,0.015-1.509,1.356-0.191,1.338c14.257-0.2,23.979-6.984,29.514-20.078
	C369.801,236.737,367.857,236.809,367.544,237.55z" fill="#c1ff70"></path>
</svg>