<?xml version="1.0" standalone="no"?>
<svg version="1.1" id="Layer_1" xmlns="http://www.w3.org/2000/svg" xmlns:xlink="http://www.w3.org/1999/xlink" x="0px" y="0px" width="595.28px" height="595.28px" viewBox="0 0 595.28 595.28" enable-background="new 0 0 595.28 595.28" xml:space="preserve">
<path id="color_x5F_2" fill="#c1ff70" d="M331.674,297.504c13.169-3.476,26.371-5.863,40.104-6.979
	c0.318-0.026,0.639-0.045,0.957-0.07C361.404,292.167,344.842,294.813,331.674,297.504z M326.368,279.499
	c-15.17,6.344-30.598,13.085-43.53,23.42V199.504c0.63,0.156,1.814,0.007,2.23-0.336c2.335-1.935,4.772-3.698,7.283-5.336
	c3.913-2.214,8.571-4.807,13.381-7.383c8.015-3.802,16.386-6.955,24.571-10.305c8.595-3.518,17.266-6.615,26.049-9.347
	c4.885-1.418,9.87-2.842,14.573-4.171c4.449-1.165,8.932-2.246,13.455-3.241c3.126-0.688,6.263-1.342,9.402-1.982
	c1.248,33.395,5.739,66.702,9.646,99.864c0.003,0.024,0.016,0.042,0.021,0.064c-4.896,0.941-9.783,1.927-14.656,2.956
	c-0.554,0.003-1.141,0.12-1.656,0.356c-0.122,0.026-0.244,0.053-0.366,0.079c-0.601-0.173-1.53,0.037-2.019,0.435
	c-0.85,0.184-1.702,0.362-2.551,0.549C362.977,265.938,344.518,271.909,326.368,279.499z M376.51,210.309
	c-13.396,1.646-26.493,4.64-39.245,9.065c-1.957,0.679-0.097,1.009,0.994,0.631c12.018-4.171,24.365-7.004,36.989-8.556
	C375.972,211.36,378.403,210.076,376.51,210.309z M352.784,193.919c6.552-1.516,13.161-2.652,19.836-3.466
	c1.212-0.148,2.557-1.397,0.518-1.148c-6.94,0.847-13.804,2.062-20.615,3.638C350.804,193.341,351.086,194.313,352.784,193.919z
	 M319.642,205.413c8.354-3.829,16.909-7.072,25.739-9.629c1.671-0.483,1.449-1.356-0.232-0.869
	c-9.316,2.697-18.355,6.1-27.171,10.14C316.239,205.852,318.971,205.721,319.642,205.413z M292.018,221.032
	c6.408-4.18,12.994-8.053,19.774-11.598c1.723-0.9-0.915-1.085-1.742-0.652c-6.971,3.644-13.723,7.646-20.31,11.943
	C288.441,221.572,291.375,221.452,292.018,221.032z M294.819,242.463c11.437-7.451,23.39-13.958,36.021-19.149
	c1.851-0.76,0.193-2.123-1.236-1.535c-12.858,5.284-25.026,11.933-36.666,19.516C291.289,242.37,293.724,243.177,294.819,242.463z
	 M314.879,249.07c-6.195,3.327-12.218,6.937-18.105,10.781c-1.196,0.781,1.711,0.381,2.211,0.055
	c5.888-3.844,11.91-7.454,18.105-10.78C318.318,248.466,315.393,248.795,314.879,249.07z M323.258,246.349
	c17.849-8.564,36.784-14.191,56.439-16.607c1.452-0.178,2.363-1.971,0.363-1.725c-20.17,2.479-39.66,8.229-57.98,17.02
	C320.271,245.904,321.923,246.989,323.258,246.349z M370.313,289.113c5.073-0.412,10.17-0.747,15.277-1.018
	c-1.293-8.278-1.151-17.019-1.162-25.383c-0.615,0.136-1.232,0.265-1.847,0.402c-18.419,4.133-36.209,9.646-53.628,16.93
	c-15.784,6.601-31.947,13.421-45.217,24.46c-0.185,0.153-0.524,0.268-0.898,0.334v10.327c10.915-7.804,24.212-11.938,36.921-15.779
	C336.427,294.349,352.905,290.526,370.313,289.113z M349.803,348.747c-9.199,0-20.762-2.644-29.148,2.63
	c-6.996,4.399-9.356,16.726-6.198,24.042c3.778,8.75,15.036,8.606,23.107,8.269c6.831-0.285,13.604-0.542,20.442-0.542
	c8.243,0.061,16.903,1.723,25.055-0.048c10.787-2.343,13.055-11.988,10.469-21.846C388.718,342.907,363.922,348.747,349.803,348.747
	z M373.884,386.542c0,0,0.589-0.147,1.554-0.409c-1.648,0.024-3.308-0.01-4.949-0.076L373.884,386.542z M315.466,352.858
	c1.67-1.95,3.698-3.499,6.041-4.426c0.198-0.079,0.401-0.145,0.601-0.219c-0.572,0.104-1.098,0.214-1.557,0.329
	C318.257,349.115,316.705,350.558,315.466,352.858z M158.052,476.099c-0.177-10.851-11.615-17.698-17.028-26.136
	c-6.232-1.57-12.563-2.765-18.929-3.659l-0.401,0.631c-2.27,5.052-4.103,10.261-5.866,15.522
	c14.226,4.761,28.452,9.522,42.679,14.283C158.238,476.627,158.057,476.421,158.052,476.099z M158.586,476.767
	c0.388,0.13,0.775,0.26,1.162,0.39c0.298-0.122,0.553-0.327,0.69-0.665C159.914,476.808,159.114,476.945,158.586,476.767z
	 M235.127,473.332c-3.163-9.02-13.564-12.356-21.395-17.299c-0.173-0.055-0.323-0.143-0.431-0.274
	c-0.698-0.452-1.371-0.919-2.017-1.404c-4.826,1.5-9.715,1.673-14.669,1.296l-4.733,0.225l-0.003,0.005
	c-0.741,6.133-0.851,12.277-0.854,18.454c15.496,0,30.991,0,46.485,0c0.937,0,0.13,0.514-0.722,0.874h1.76
	c0,0-0.006-0.008-1.285-1.606C236.478,473.959,235.358,473.992,235.127,473.332z M221.918,458.039L216,454.301
	c0.01,0.085,0.016,0.17,0.025,0.255c0.003,0.022-0.002,0.044,0,0.066C217.889,455.833,219.893,456.939,221.918,458.039z
	 M223.043,205.391c-0.15,0.041-0.3,0.088-0.449,0.142c0.007-0.001,0.014-0.001,0.021-0.002
	C222.758,205.485,222.9,205.43,223.043,205.391z M212.065,262.063c12.089,1.155,18.648-9.569,21.041-20.515
	c1.252-5.729,2.63-11.454,3.536-17.25c0.455-2.918,2.375-10.1-0.18-12.506c-0.121-0.114-0.197-0.231-0.251-0.348
	c-0.087-0.061-0.166-0.117-0.257-0.18c-0.283-0.01-0.539-0.077-0.717-0.223c-3.05-2.513-7.766-5.343-11.849-3.958
	c-0.063,0.037-0.124,0.073-0.2,0.108c-5.333,2.473-8.655,7.628-11.518,12.546c-1.443,2.481-2.75,5.397-4.811,7.489
	c1.647,4.298,2.877,8.768,3.676,13.339C211.781,247.678,212.175,254.868,212.065,262.063z M187.379,307.379l2.146-0.113
	c-0.925-0.035-1.852-0.083-2.782-0.152L187.379,307.379z M194.961,306.319c4.104-0.113,9.254-0.841,13.475-2.874
	c0.001-0.136,0.002-0.271,0.002-0.406c0.002-1.042,1.642-1.517,2.474-1.03c1.678-1.166,3.096-2.614,4.058-4.429
	c3.084-5.814,0.191-11.532-3.758-16.085c-0.055-0.049-0.107-0.096-0.16-0.142c-0.088,1.363-0.151,3.053,0.608,3.975
	c0.875,1.062-1.896,2.162-2.666,1.229c-1.449-1.758-1.337-5.188-0.978-8.346c-0.103-0.096-0.205-0.192-0.308-0.286
	c-0.126-0.116,0.068-0.313,0.403-0.508c0.219-1.734,0.479-3.333,0.554-4.452c0.201-3.027,0.357-6.063,0.441-9.1
	c-0.695-0.342-0.507-1.063,0.042-1.544c0.104-5.718-0.097-11.437-0.897-17.108c-0.816-5.786-2.164-11.544-4.202-17.03
	c-0.34-0.176-0.517-0.468-0.318-0.839c-1.883-4.871-4.318-9.516-7.441-13.751c-4.016-5.446-8.814-10.303-14.382-14.174
	c-3.039-2.113-6.193-3.95-9.46-5.685c-4.61-2.448-8.988-5.663-14.394-5.815c-0.504-0.014-0.763-0.152-0.852-0.349
	c-3.158-0.028-6.937-0.321-10.404-1.25c-7.36,0.158-14.356,12.398-4.912,15.192c2.237,0.662,4.511,0.982,6.802,1.123l2.273,0.086
	c2.164,0.028,4.338-0.064,6.508-0.176c9.213-0.476,19.666-1.762,28.183,2.629c1.659,0.855-0.393,2.688-1.65,2.039
	c-3.25-1.676-6.635-2.458-10.092-2.756c0.063,0.072,0.134,0.156,0.201,0.236c7.671,5.17,10.381,16.771,10.778,25.501
	c0.48,10.525-1.032,25.411-11.454,31.027c-0.332,0.179-1.014,0.271-1.546,0.244c-0.07,0.825-0.13,1.651-0.161,2.482
	c-0.19,5.077-0.38,10.028-2.198,14.828c-0.109,0.287-0.425,0.518-0.809,0.683c2.005,3.502,4.352,6.834,5.755,10.617
	c1.83,4.93,3.065,10.049,5.23,14.825c0.022,0.001,0.048,0,0.066,0.003c0.558,0.087,1.117,0.173,1.677,0.258l-0.07-0.283l1.018,0.424
	C186.557,305.923,190.762,306.435,194.961,306.319z M178.127,308.332c-3.086-5.545-4.018-11.734-6.549-17.48
	c-2.294-5.206-5.825-9.735-7.951-15.02c-0.354-0.881,2.502-1.761,2.898-0.776c0.249,0.619,0.525,1.225,0.816,1.823
	c1.143-4.103,1.295-8.294,1.48-12.595c0.192-4.448,1.108-8.809,1.278-13.243c0.286-7.46,0.636-14.052,3.046-21.1
	c-0.078-11.269-7.631-21.322-19.262-24.608c-1.842,0.07-3.673,0.067-5.484-0.064c-4.835,7.719-3.828,17.546-4.748,26.241
	c-1.316,12.454-3.469,24.744-3.662,37.303c-0.168,10.84,0.027,20.307,7.382,29.018c6.723,7.962,14.442,14.97,22.053,22.06
	c0.094,0.087,0.13,0.182,0.121,0.278l0.577,0.492c4.727-2.754,8.651-6.734,9.918-12.11
	C179.309,308.802,178.407,308.835,178.127,308.332z M180.448,306.43c0.185,0.363,0.359,0.73,0.558,1.089
	c0.31-0.11,0.658-0.187,0.979-0.215l-0.172-0.692C181.357,306.554,180.902,306.491,180.448,306.43z"></path>
<path id="color_x5F_1" d="M177.025,156.306c0.467,0.935,0.936,1.893,1.668,2.653c0.344,0.356-0.67,0.712-0.874,0.785
	c-0.362,0.129-0.744,0.221-1.128,0.257c-0.155,0.015-0.597,0.07-0.732-0.071c-0.798-0.828-1.322-1.828-1.832-2.847
	C173.915,156.658,176.684,155.622,177.025,156.306z M173.764,151.873c-0.621-0.153-1.479,0.067-2.027,0.363
	c-1.34,0.724-2.164,1.871-2.841,3.208c-0.245,0.484,1.025,0.328,1.166,0.303c0.501-0.087,1.435-0.288,1.695-0.804
	c0.376-0.744,0.903-1.885,1.659-2.292C173.645,152.527,174.422,152.035,173.764,151.873z M249.642,190.084
	c5.857,6.5-4.794,15.818-9.76,20.729c-0.083,0.082-0.237,0.16-0.427,0.231c2.212,3.428,0.711,9.586,0.126,13.044
	c-1.198,7.078-2.417,14.446-4.748,21.253c-3.817,11.146-10.771,19.856-22.823,18.972c-0.055,1.852-0.131,3.705-0.242,5.556
	c-0.158,2.613-0.382,5.226-0.533,7.84c7.032,6.844,12.329,17.549,1.748,24.128c-0.533,0.332-1.071,0.63-1.61,0.926
	c0.003,0.031,0.011,0.058,0.011,0.09c-0.03,20.816-0.554,41.554,0.966,62.346c1.057,14.469,2.547,28.684,2.434,43.221
	c-0.119,15.314-0.562,30.634,1.218,45.879c0.01,0.085,0.016,0.17,0.025,0.255c0.003,0.022-0.002,0.044,0,0.066
	c1.863,1.211,3.867,2.317,5.893,3.417c6.674,3.623,13.544,7.208,16.107,14.517c0.148,0.423-0.232,0.808-0.762,1.047
	c-0.786,0.356-1.905,0.39-2.137-0.271c-3.163-9.02-13.564-12.356-21.395-17.299c-0.173-0.055-0.323-0.143-0.431-0.274
	c-0.698-0.452-1.371-0.919-2.017-1.404c-4.826,1.5-9.715,1.673-14.669,1.296c-1.544-0.118-3.094-0.287-4.649-0.486
	c-0.031,0.239-0.058,0.478-0.087,0.717c-0.741,6.133-0.851,12.277-0.854,18.454c15.496,0,30.991,0,46.485,0
	c0.937,0,0.13,0.514-0.722,0.874c-0.457,0.194-0.928,0.344-1.147,0.344c-15.285,0-30.57,0-45.854,0
	c-0.788,0.222-1.66,0.189-1.66-0.221c0.002-6.76,0.107-13.47,1.008-20.18c0.021-0.16,0.139-0.309,0.313-0.439
	c-0.623-0.388-0.105-1.17,0.654-1.542c-4.263-25.147-5.472-50.378-5.623-75.813c-2.528,7.384-5.284,14.674-8.942,21.597
	c-8.823,16.697-18.503,33.038-28.62,48.983c-0.229,0.36-1.044,0.626-1.733,0.679c0.407,0.11,0.817,0.214,1.224,0.328
	c1.553,0.432,0.083,1.926-1.168,2.036c5.959,7.817,15.551,14.341,15.722,24.794c0.005,0.282-0.21,0.529-0.521,0.717
	c-0.524,0.316-1.324,0.454-1.853,0.275c0.388,0.13,0.775,0.26,1.162,0.39c0.104,0.034,0.207,0.069,0.311,0.104
	c0.892,0.298-1.702,1.373-2.375,1.147c-14.76-4.939-29.521-9.879-44.282-14.819c-0.386-0.039-0.636-0.182-0.542-0.462
	c1.971-5.886,4.021-11.707,6.665-17.32c-0.354-0.232-0.602-0.618-0.338-1.044c3.181-5.147,5.417-10.374,6.569-16.331
	c1.09-5.637,2.027-11.245,4.138-16.614c4.718-12.004,12.938-22.991,16.161-35.534c5.565-21.66,2.017-44.642,1.742-66.732
	c-2.745,1.365-5.748,2.315-8.684,1.337c-4.867-1.621-9.965-3.877-13.872-7.224c-4.125-3.535-8.011-6.332-10.066-11.434
	c-1.886-4.677-2.965-9.346-4.097-14.215c-0.846-3.641-2.688-4.638-0.225-7.837c4.637-6.024,7.025-12.556,6.05-20.244
	c-0.051-0.399-0.122-0.793-0.183-1.19c-0.194-0.035-0.365-0.102-0.486-0.218c-5.272-5.079-9.219-12.327-12.486-18.795
	c-2.698-5.338-7.479-13.848-4.038-19.83c3.998-6.95,11.474-11.688,19.144-13.669c4.639-1.199,11.515-2.374,15.705,0.835
	c-0.495-4.666,3.367-10.073,8.414-12.131c-3.068-1.468-5.465-3.707-6.275-7.079c-0.088-0.031-0.168-0.07-0.226-0.128
	c-5.788-5.819-10.295-14.168-6.866-22.449c2.658-6.421,8.231-11.1,13.696-15.169c4.138-3.081,9.765-7.279,15.276-6.86
	c7.234,0.55,13.6,7.652,19.039,11.912c1.26-0.759,2.52-1.52,3.772-2.29c4.669-2.87,10.138-4.588,14.556-7.801
	c0.447-0.326,2.202-0.535,2.52-0.234c0.322,0.006,0.552,0.072,0.561,0.22c0.215,3.747-4.752,6.818-7.4,8.633
	c-3.605,2.47-7.493,4.5-11.115,6.933c0.647,1.302,1.443,2.524,2.442,3.529c1.329,1.336,2.378,2.146,4.155,1.274
	c0.662-0.325,1.359-0.621,2.11-0.612c4.653,0.051,1.013,5.053-0.812,6.81c1.322,1.237,2.314,2.822,0.476,4.157
	c-1.427,1.036-3.502,1.463-4.698,2.788c1.39,0.829,2.842,1.321,4.494,1.196c0.187-0.014,0.506,0.026,0.697,0.143
	c0.612-0.089,1.15-0.052,1.15,0.148c-0.008,3.765-0.021,7.194-2.742,10.098c-4.463,4.763-7.959,7.776-8.242,14.629
	c0.436,0.281,0.866,0.558,1.287,0.828c5.674,3.635,10.994,7.949,15.311,13.154c4.078,4.917,7.343,10.387,9.813,16.208
	c2.227-2.893,3.701-6.927,5.646-9.726c2.76-3.974,5.912-7.485,10.365-9.55c0.209-0.097,0.424-0.146,0.631-0.164
	c0.007-0.001,0.014-0.001,0.021-0.002c0.144-0.045,0.286-0.1,0.429-0.14c0.052-0.014,0.104-0.023,0.157-0.036
	c0.093-0.024,0.186-0.042,0.278-0.063c1.037-0.246,2.07-0.349,3.094-0.326c-0.49-8.196,3.15-14.922,10.405-19.022
	c0.311-0.176,2.349-0.999,2.548-0.388c0.115,0.354,0.195,0.694,0.258,1.03c2.874-4.942,6.423-9.628,12.007-9.351
	C258.604,177.574,251.735,187.035,249.642,190.084z M235.955,211.264c-0.283-0.01-0.539-0.077-0.717-0.223
	c-3.05-2.513-7.766-5.343-11.849-3.958c-0.063,0.037-0.124,0.073-0.2,0.108c-5.333,2.473-8.655,7.628-11.518,12.546
	c-1.443,2.481-2.75,5.397-4.811,7.489c1.647,4.298,2.877,8.768,3.676,13.339c1.244,7.112,1.638,14.302,1.528,21.498
	c12.089,1.155,18.648-9.569,21.041-20.515c1.252-5.729,2.63-11.454,3.536-17.25c0.455-2.918,2.375-10.1-0.18-12.506
	c-0.121-0.114-0.197-0.231-0.251-0.348c-0.028-0.06-0.049-0.119-0.062-0.178C236.084,211.269,236.02,211.267,235.955,211.264z
	 M209.148,262.322c0.104-5.718-0.097-11.437-0.897-17.108c-0.816-5.786-2.164-11.544-4.202-17.03
	c-0.34-0.176-0.517-0.468-0.318-0.839c-1.883-4.871-4.318-9.516-7.441-13.751c-4.016-5.446-8.814-10.303-14.382-14.174
	c-3.039-2.113-6.193-3.95-9.46-5.685c-4.61-2.448-8.988-5.663-14.394-5.815c-0.504-0.014-0.763-0.152-0.852-0.349
	c-3.158-0.028-6.937-0.321-10.404-1.25c-7.36,0.158-14.356,12.398-4.912,15.192c2.237,0.662,4.511,0.982,6.802,1.123
	c0.756,0.047,1.514,0.076,2.273,0.086c2.164,0.028,4.338-0.064,6.508-0.176c9.213-0.476,19.666-1.762,28.183,2.629
	c1.659,0.855-0.393,2.688-1.65,2.039c-3.25-1.676-6.635-2.458-10.092-2.756c-0.065-0.006-0.13-0.013-0.196-0.018
	c0.133,0.084,0.268,0.166,0.397,0.253c7.671,5.17,10.381,16.771,10.778,25.501c0.48,10.525-1.032,25.411-11.454,31.027
	c-0.332,0.179-1.014,0.271-1.546,0.244c-0.07,0.825-0.13,1.651-0.161,2.482c-0.19,5.077-0.38,10.028-2.198,14.828
	c-0.109,0.287-0.425,0.518-0.809,0.683c2.005,3.502,4.352,6.834,5.755,10.617c1.83,4.93,3.065,10.049,5.23,14.825
	c0.022,0.001,0.048,0,0.066,0.003c0.558,0.087,1.117,0.173,1.677,0.258c0.315,0.048,0.632,0.094,0.947,0.142
	c4.16,0.62,8.365,1.132,12.564,1.016c4.104-0.113,9.254-0.841,13.475-2.874c0.001-0.136,0.002-0.271,0.002-0.406
	c0.002-1.042,1.642-1.517,2.474-1.03c1.678-1.166,3.096-2.614,4.058-4.429c3.084-5.814,0.191-11.532-3.758-16.085
	c-0.052-0.061-0.105-0.12-0.157-0.179c-0.001,0.013-0.002,0.025-0.003,0.038c-0.088,1.363-0.151,3.053,0.608,3.975
	c0.875,1.062-1.896,2.162-2.666,1.229c-1.449-1.758-1.337-5.188-0.978-8.346c-0.103-0.096-0.205-0.192-0.308-0.286
	c-0.126-0.116,0.068-0.313,0.403-0.508c0.219-1.734,0.479-3.333,0.554-4.452c0.201-3.027,0.357-6.063,0.441-9.1
	C208.411,263.524,208.6,262.804,209.148,262.322z M168.846,204.32c-3.305,0.078-6.646,0.416-9.979,0.691
	c9.888,3.821,16.407,12.652,17.113,22.665c0.417,0.055,0.684,0.242,0.549,0.601c-0.172,0.458-0.334,0.913-0.488,1.366
	c-0.02,3.3-0.664,6.697-2.031,10.062c-0.037,0.092-0.111,0.176-0.207,0.254c-0.409,3.469-0.57,6.986-0.797,10.747
	c-0.197,3.293-0.713,6.536-1.034,9.811c9.502-5.388,10.732-21.039,9.955-30.568C181.196,220.992,178.26,207.921,168.846,204.32z
	 M177.584,151.353c-0.143-0.041-0.193-0.117-0.113-0.234c-0.545-1.16-0.981-2.355-1.331-3.496c-2.255,1.357-4.498,2.733-6.683,4.195
	c-1.653,1.106-3.271,2.254-4.873,3.422c2.298,6.792,1.625,14.123,0.455,21.077c-0.107,0.637-0.959,1.052-1.72,1.111
	c-0.524,0.167-1.089,0.199-1.392-0.014c-0.646-0.456-2.486-1.877-3.335-1.244c-0.752,0.562-1.03,1.77-1.054,2.652
	c-0.067,2.458,1.641,4.905,4.334,4.363c0.357-0.072,1.581-0.274,1.652,0.372c0.125,1.148,0.66,2.157,1,3.25
	c0.013,0.04,0.012,0.079,0.015,0.118c4.28,1.301,8.506,3.739,12.332,6.152c0.491-3.338,1.77-6.298,4.349-8.835
	c4.471-4.397,6.336-6.869,6.4-13.136c-0.048,0.005-0.1,0.015-0.146,0.018c-2.281,0.174-4.331-0.447-6.256-1.656
	c-0.196-0.124-0.058-0.346,0.03-0.471c1.007-1.425,2.762-2.067,4.263-2.819c0.52-0.26,1.424-0.6,1.534-1.269
	c0.165-1.003-0.925-1.864-1.577-2.441c-0.109-0.097-0.107-0.214-0.028-0.336c-0.206-0.159-0.198-0.4,0.209-0.729
	c1.001-0.806,4.642-5.241,1.587-4.073c-1.344,0.514-2.664,0.69-4.031,0.095C180.629,156.302,178.834,153.934,177.584,151.353z
	 M178.34,146.3c0.333,0.059,0.598,0.216,0.686,0.506c0.265,0.869,0.578,1.756,0.943,2.627c2.646-1.644,5.396-3.134,7.986-4.864
	c2.419-1.616,7.513-4.471,8.109-7.878c-3.58,2.084-7.574,3.44-11.107,5.627C182.771,143.671,180.553,144.982,178.34,146.3z
	 M138.392,175.841c7.252-7.308,14.883-14.345,23.217-20.409c0.114-0.477,0.723-0.841,1.362-0.959
	c0.905-0.641,1.809-1.286,2.73-1.903c3.15-2.107,6.387-4.076,9.633-6.03c-0.04-0.019-0.08-0.036-0.112-0.061
	c-4.702-3.609-11.391-11.292-17.612-11.765c-5.973-0.454-12.588,5.885-16.777,9.583c-4.307,3.803-8.649,8.192-9.296,14.23
	C130.803,165.371,133.844,171.012,138.392,175.841z M147.807,307.469c0.17-0.593,0.942-0.948,1.649-0.952
	c0.063-0.037,0.128-0.075,0.191-0.112c0.323-0.189,0.778-0.254,1.208-0.226c-2.973-3.056-5.752-6.252-8.128-9.681
	c-6.101-8.804-5.673-18.277-5.61-28.527c0.077-12.58,2.853-24.87,3.756-37.362c0.619-8.565,0.146-18.13,4.998-25.618
	c-1.908-0.282-3.791-0.734-5.635-1.438c-2.51-0.958-4.089-2.381-4.939-4.025c-0.703,0.342-1.696,0.448-2.063-0.002
	c-4.443-5.46-14.866-2.062-19.941,0.571c-5.881,3.052-13.064,8.668-11.522,16.111c1.372,6.625,4.688,12.906,8.161,18.65
	c1.781,2.946,3.631,6.061,5.787,8.867c-2.75-11.113-8.546-21.297-12.459-32.039c-0.948-0.053-1.75-0.552-0.602-1.243
	c8.614-5.184,18.32-7.835,27.324-12.174c1.348-0.65,2.993,0.48,1.188,1.351c-8.248,3.975-17.135,6.461-25.144,10.939
	c4.131,11.478,10.756,22.318,13.098,34.393c0.964,4.967,1.481,10.387-0.034,15.313c-0.018,0.058-0.038,0.114-0.057,0.171
	c0.555-0.057,1.01-0.017,0.992,0.121c-1.784,13.593,7.336,26.912,14,38c0.228,0.379-2.471,1.487-2.898,0.776
	c-5.959-9.916-13.875-21.616-14.209-33.7c-0.237,0.43-0.479,0.857-0.754,1.265c-0.818,1.213-3.934,4.082-3.922,5.521
	c0.009,1.101,1.192,2.493,1.446,3.584c0.441,1.9,0.654,3.835,1.157,5.724c1.149,4.315,2.382,9.289,4.844,13.072
	c1.192,1.831,3.133,3.119,4.74,4.578c2.547,2.311,5.172,4.943,8.37,6.35c2.351,1.035,4.808,2.332,7.244,3.143
	C142.911,309.824,145.377,308.82,147.807,307.469z M158.506,476.74c-0.268-0.113-0.449-0.319-0.454-0.641
	c-0.177-10.851-11.615-17.698-17.028-26.136c-6.232-1.57-12.563-2.765-18.929-3.659c-0.038-0.006-0.076-0.011-0.114-0.016
	c-0.098,0.215-0.19,0.432-0.287,0.647c-2.27,5.052-4.103,10.261-5.866,15.522C130.053,467.218,144.279,471.979,158.506,476.74z
	 M208.434,304.207c-6.044,2.608-12.412,3.303-18.909,3.06c-0.925-0.035-1.852-0.083-2.782-0.152
	c-1.638-0.123-3.282-0.295-4.93-0.502c-0.455-0.057-0.91-0.12-1.364-0.182c0.185,0.363,0.359,0.73,0.558,1.089
	c0.31-0.11,0.658-0.187,0.979-0.215c0.603-0.054,1.102,0.055,1.027,0.41c-2.07,9.892-12.846,15.395-21.791,17.77
	c-1.705,0.453-1.995-0.625-0.289-1.077c3.069-0.815,6.279-2.049,9.191-3.745c4.727-2.754,8.651-6.734,9.918-12.11
	c-0.732,0.252-1.634,0.285-1.914-0.218c-3.086-5.545-4.018-11.734-6.549-17.48c-2.294-5.206-5.825-9.735-7.951-15.02
	c-0.354-0.881,2.502-1.761,2.898-0.776c0.249,0.619,0.525,1.225,0.816,1.823c1.143-4.103,1.295-8.294,1.48-12.595
	c0.192-4.448,1.108-8.809,1.278-13.243c0.286-7.46,0.636-14.052,3.046-21.1c-0.078-11.269-7.631-21.322-19.262-24.608
	c-1.842,0.07-3.673,0.067-5.484-0.064c-4.835,7.719-3.828,17.546-4.748,26.241c-1.316,12.454-3.469,24.744-3.662,37.303
	c-0.168,10.84,0.027,20.307,7.382,29.018c6.723,7.962,14.442,14.97,22.053,22.06c0.094,0.087,0.13,0.182,0.121,0.278
	c-0.056,0.654-2.196,1.41-2.818,0.83c-4.826-4.495-10.056-8.977-14.855-13.792c-0.091,0.089-0.204,0.181-0.367,0.277
	c-0.258,0.151-0.521,0.306-0.788,0.461c0.136,22.854,4.234,46.991-2.063,69.346c-3.474,12.332-11.548,22.913-15.981,34.891
	c-3.964,10.708-4.266,21.504-9.884,31.522c0.224,0.061,0.336,0.177,0.248,0.356c-0.012,0.023-0.022,0.048-0.034,0.071
	c7.124,1,14.202,2.381,21.159,4.213c-0.043-0.102-0.03-0.229,0.074-0.394c10.389-16.371,20.508-33.143,29.354-50.401
	c5.378-10.489,8.766-21.932,12.438-33.104c4.71-14.329,9.118-28.753,13.105-43.301c0.25-0.912,3.146-1.348,2.887-0.401
	c-4.148,15.139-8.727,30.162-13.686,45.055c-0.569,1.709-1.133,3.42-1.698,5.13c0.414-0.004,0.724,0.086,0.724,0.298
	c0.014,27.304,1.081,54.366,5.666,81.33c0.039,0.233-0.145,0.45-0.434,0.63c5.961,0.805,11.995,1.333,17.787-0.454
	c0.404-0.325,1.127-0.582,1.738-0.59c0.229-0.066,0.459-0.091,0.678-0.076c-1.359-13.814-1.081-27.673-0.973-41.546
	c0.118-15.172-1.373-30.026-2.419-45.134C207.988,344.973,208.39,324.637,208.434,304.207z M246.826,190.99
	c-0.102-0.05-0.168-0.119-0.184-0.211c-0.195-0.203-0.411-0.403-0.643-0.601c-0.732,2.588,0.456,5.311,1.525,7.878
	c0.196,0.473-2.627,1.429-2.898,0.776c-0.298-0.715-0.598-1.438-0.864-2.164c-2.166,3.789-5.343,9.539-9.957,9.225
	c-2.607-0.177-3.39-2.943-2.539-5.029c0.941-2.31,2.492-4.192,3.814-6.274c-0.933,0.213-2.211,0.288-1.809-0.007
	c2.606-1.911,4.175-4.113,3.628-7.154c-5.605,4.162-8.059,10.386-7.375,17.627c0.009,0.095-0.039,0.186-0.124,0.272
	c3.072,0.726,5.973,2.435,8.476,4.489c0.201-0.001,0.395,0.034,0.564,0.116C243.544,204.988,252.057,196.824,246.826,190.99z
	 M249.514,178.854c-3.197,0.874-5.428,5.378-7.029,8.017c-1.48,2.441-2.83,4.984-4.439,7.346c-0.012,0.088-0.041,0.183-0.11,0.294
	c-0.976,1.566-2.175,2.989-3.063,4.611c-0.492,0.897-1.057,1.927-1.069,2.982c-0.003,0.324,0.56,2.334,1.135,2.062
	c3.099-1.465,5.102-5.975,6.781-8.788c0.215-0.36,0.829-0.607,1.432-0.694c-0.487-2.041-0.437-4.069,1.001-5.974
	c0.436-0.577,2.129-1.134,2.794-0.749c0.354,0.205,0.683,0.414,0.989,0.628C250.189,184.896,254.16,177.582,249.514,178.854z
	 M496.691,147.89c0,34.444,0,68.889,0,103.333c0,0.698-1.203,1.157-2.059,1.175c-0.059,0.003-0.113,0.002-0.164-0.002
	c-0.164-0.009-0.315-0.029-0.428-0.078c-6.728-1.519-13.557-2.237-20.416-2.393c-0.079,15.526-0.399,31.046-0.471,46.573
	c0,0.004-0.002,0.008-0.002,0.013c-0.002,0.055-0.012,0.108-0.027,0.16c-0.258,0.851-2.309,1.279-2.771,0.821
	c-7.406-3.34-15.186-5.441-23.127-6.719c0.463,28.582,0.591,57.161-0.25,85.737c-0.432,14.682-1.025,29.358-1.645,44.033
	c-0.408,9.642-0.559,19.337-1.242,28.962c-0.374,5.256-2.329,10.244-6.421,13.733c-9.728,8.294-22.33,9.104-34.499,9.96
	c-17.375,1.222-34.825,1.534-52.239,1.52c-17.274-0.014-34.618-0.231-51.845-1.621c-12.065-0.973-29.207-2.425-34.488-15.576
	c-2.578-6.418-1.897-14.01-2.189-20.804c-0.329-7.691-0.645-15.383-0.934-23.077c-0.576-15.351-1.076-30.705-1.457-46.062
	c-0.726-29.271-1.074-58.55-0.939-87.83c0.137-29.848,0.72-59.692,1.684-89.525c0.518-16.034,0.683-32.178,1.82-48.181
	c0.697-9.802,7.217-15.696,15.813-19.419c10.409-4.508,23.228-4.277,34.333-4.831c18.134-0.903,36.313-1.116,54.468-0.896
	c15.931,0.193,32.026,0.404,47.867,2.267c5.036,0.592,9.912,1.343,14.547,3.527c4.423,2.084,8.95,4.926,11.415,9.318
	c2.689,4.79,2.688,9.874,2.907,15.205c17.263-2.391,34.985-3.641,52.11,0.271C496.419,147.51,496.691,147.636,496.691,147.89z
	 M438.236,149.555c-13.865,2.183-27.76,4.514-41.547,7.259c1.258,33.332,5.738,66.577,9.639,99.677
	c0.013,0.108-0.014,0.211-0.061,0.309c11.346-2.141,22.741-4.056,34.131-5.744c17.625-2.612,35.8-4.262,53.395-0.707
	c0-33.805,0-67.61,0-101.415C475.537,144.867,456.538,146.674,438.236,149.555z M423.838,142.444h-141v56.208
	c13.584-11.224,30.264-17.009,46.332-23.66c17.785-7.363,36.014-12.949,54.834-17.016c13.186-2.849,26.493-5.42,39.834-7.657
	V142.444z M403.451,257.331c-0.006-0.021-0.019-0.04-0.021-0.064c-3.907-33.162-8.398-66.47-9.646-99.864
	c-3.14,0.64-6.276,1.293-9.402,1.982c-4.523,0.996-9.006,2.077-13.455,3.241c-4.896,1.281-9.752,2.672-14.573,4.171
	c-8.783,2.731-17.454,5.829-26.049,9.347c-8.186,3.35-16.557,6.503-24.571,10.305c-4.615,2.189-9.109,4.596-13.381,7.383
	c-2.511,1.638-4.948,3.401-7.283,5.336c-0.416,0.344-1.601,0.492-2.23,0.336v103.415c12.933-10.335,28.36-17.076,43.53-23.42
	c18.149-7.59,36.608-13.561,55.835-17.793c0.849-0.187,1.701-0.365,2.551-0.549c0.488-0.398,1.418-0.607,2.019-0.435
	c0.122-0.026,0.244-0.053,0.366-0.079c0.516-0.236,1.103-0.354,1.656-0.356C393.668,259.258,398.555,258.272,403.451,257.331z
	 M384.428,262.712c-0.615,0.136-1.232,0.265-1.847,0.402c-18.419,4.133-36.209,9.646-53.628,16.93
	c-15.784,6.601-31.947,13.421-45.217,24.46c-0.185,0.153-0.524,0.268-0.898,0.334v10.327c10.915-7.804,24.212-11.938,36.921-15.779
	c16.668-5.038,33.146-8.86,50.554-10.274c5.073-0.412,10.17-0.747,15.277-1.018C384.297,279.816,384.438,271.076,384.428,262.712z
	 M282.838,433.444h141V289.001c-0.188-0.001-0.376-0.006-0.563-0.007c-11.789-0.079-23.663,0.03-35.489,0.551
	c-0.61,0.261-1.373,0.327-1.768,0.078c-4.438,0.212-8.867,0.484-13.283,0.832c-0.318,0.025-0.639,0.044-0.957,0.07
	c-13.732,1.116-26.935,3.503-40.104,6.979c-2.932,0.773-5.862,1.583-8.796,2.465c-13.691,4.116-28.376,8.252-39.81,17.202
	c-0.061,0.047-0.142,0.089-0.23,0.128V433.444z M444.314,290.666c-0.002-0.109,0.045-0.212,0.125-0.307
	c-5.822-0.796-11.717-1.176-17.602-1.31v147.395h-147v-297h147v10.373c4.723-0.773,9.447-1.502,14.173-2.185
	c-0.465-9.185-1.643-17.021-10.525-22.071c-4.403-2.503-8.833-3.994-13.784-4.712c-10.799-1.567-21.808-1.957-32.7-2.312
	c-18.98-0.619-37.994-0.659-56.978-0.117c-13.892,0.397-28.471,0.315-42.142,3.149c-11.349,2.353-18.997,10.138-19.487,21.692
	c-0.68,16.015-1.293,32.032-1.795,48.054c-0.933,29.792-1.529,59.597-1.631,89.404c-0.099,29.299,0.234,58.598,0.992,87.887
	c0.398,15.389,0.893,30.774,1.483,46.157c0.322,8.368,0.663,16.735,1.032,25.101c0.255,5.77-0.435,12.665,2.512,17.913
	c7.563,13.477,25.484,13.697,38.988,14.516c17.928,1.086,35.92,1.316,53.877,1.17c16.934-0.138,33.979-0.41,50.842-2.093
	c6.013-0.6,12.008-1.203,17.456-4.04c5.433-2.829,10.38-7.224,11.583-13.515c1.373-7.176,0.952-14.991,1.265-22.287
	C444.012,384.542,445.089,337.695,444.314,290.666z M470.75,249.898c-10.885-0.005-21.818,1.306-32.514,2.99
	c-15.668,2.467-31.38,5.113-46.928,8.348c-0.34,0.119-0.697,0.19-1.051,0.216c-0.977,0.205-1.95,0.418-2.926,0.627
	c0.016,8.502-0.143,17.461,1.249,25.868c12.491-0.596,25.034-0.781,37.474-0.54c15.073,0.292,30.215,1.902,44.219,7.673
	c0.092-15.028,0.391-30.052,0.459-45.081C470.732,249.965,470.744,249.932,470.75,249.898z M392.682,352.735
	c4.452,5.435,5.964,14.718,4.099,21.418c-2.704,9.709-11.827,11.84-21.343,11.979c-1.648,0.024-3.308-0.01-4.949-0.076
	c-4.621-0.187-9.09-0.616-12.701-0.643c-6.496,0-12.927,0.229-19.416,0.5c-6.765,0.282-14.84,0.685-20.897-2.92
	c-9.734-5.794-9.218-21.711-2.008-30.134c1.67-1.95,3.698-3.499,6.041-4.426c0.198-0.079,0.401-0.145,0.601-0.219
	c7.964-2.959,16.904-2.502,25.238-1.935c8.726,0.593,17.388-0.657,26.107-0.291C380.093,346.266,388.151,347.205,392.682,352.735z
	 M383.061,383.098c10.787-2.343,13.055-11.988,10.469-21.846c-4.812-18.345-29.607-12.505-43.727-12.505
	c-9.199,0-20.762-2.644-29.148,2.63c-6.996,4.399-9.356,16.726-6.198,24.042c3.778,8.75,15.036,8.606,23.107,8.269
	c6.831-0.285,13.604-0.542,20.442-0.542C366.249,383.207,374.909,384.869,383.061,383.098z M352.784,193.919
	c6.552-1.516,13.161-2.652,19.836-3.466c1.212-0.148,2.557-1.397,0.518-1.148c-6.94,0.847-13.804,2.062-20.615,3.638
	C350.804,193.341,351.086,194.313,352.784,193.919z M319.642,205.413c8.354-3.829,16.909-7.072,25.739-9.629
	c1.671-0.483,1.449-1.356-0.232-0.869c-9.316,2.697-18.355,6.1-27.171,10.14C316.239,205.852,318.971,205.721,319.642,205.413z
	 M310.05,208.782c-6.971,3.644-13.723,7.646-20.31,11.943c-1.299,0.847,1.635,0.726,2.277,0.307
	c6.408-4.18,12.994-8.053,19.774-11.598C313.515,208.534,310.877,208.35,310.05,208.782z M338.259,220.005
	c12.018-4.171,24.365-7.004,36.989-8.556c0.724-0.089,3.155-1.374,1.262-1.141c-13.396,1.646-26.493,4.64-39.245,9.065
	C335.308,220.053,337.168,220.383,338.259,220.005z M329.604,221.779c-12.858,5.284-25.026,11.933-36.666,19.516
	c-1.649,1.075,0.785,1.882,1.881,1.168c11.437-7.451,23.39-13.958,36.021-19.149C332.691,222.554,331.034,221.191,329.604,221.779z
	 M380.061,228.017c-20.17,2.479-39.66,8.229-57.98,17.02c-1.81,0.868-0.157,1.953,1.178,1.313
	c17.849-8.564,36.784-14.191,56.439-16.607C381.149,229.563,382.061,227.771,380.061,228.017z M314.879,249.07
	c-6.195,3.327-12.218,6.937-18.105,10.781c-1.196,0.781,1.711,0.381,2.211,0.055c5.888-3.844,11.91-7.454,18.105-10.78
	C318.318,248.466,315.393,248.795,314.879,249.07z M434.59,182.554c5.602-1.19,11.276-1.999,16.992-2.364
	c0.189-0.153,0.378-0.306,0.567-0.459c2.922-2.363,6.005-5.488,9.499-7.021c5.662-2.485,10.291-0.006,16.133,0.223
	c0.382,0.015,1.246,0.277,0.777,0.824c-4.954,5.794-11.687,9.156-17.767,13.579c-0.046,0.033-0.1,0.064-0.161,0.092
	c-0.374,5.02-2.152,10.265-3.514,15.026c-1.118,3.908-2.159,11.163-5.449,14.021c-2.811,2.442-5.551-0.014-5.904-3.074
	c-0.578-5.012,0.712-10.125,0.308-15.102c-4.795,3.096-7.972,8.617-13.448,10.668c-4.648,1.741-7.561-0.346-11.141-3.263
	c-2.305-1.878-7.424-4.906-4.816-8.249c2.246-2.879,7.979-0.531,10.541,0.477c0.213,0.083,0.366,0.186,0.473,0.298
	c4.104-1.747,7.8-5.172,11.255-7.885c-5.665,0.213-18.14,0.482-16.706-2.512C423.867,184.409,431.394,183.233,434.59,182.554z
	 M459.287,176.319c-3.629,2.852-7.189,5.79-10.781,8.688c-6.072,4.9-12.665,11.577-20.025,14.527
	c-0.407,0.163-0.857,0.183-1.225,0.111c-0.479,0.354-1.148,0.555-1.693,0.34c-1.537-0.604-3.168-1.288-4.822-1.44
	c-4.1-0.379-0.126,2.785,0.591,3.415c2.071,1.816,4.478,4.212,7.059,5.287c5.44,2.268,13.577-9.766,18.354-11.887
	c1.047-0.465,2.111,0.196,2.109,0.916c0,0,0,0.001,0,0.001c0.003,0.02,0.003,0.04,0.006,0.06c0.549,3.905-0.346,8.022-0.39,11.943
	c-0.02,1.75-0.396,5.79,1.163,7.155c-0.326,0.623-0.324,0.673,0.006,0.151c0.189-0.303,0.362-0.614,0.521-0.935
	c0.38-0.792,0.726-1.603,1.034-2.425c2.896-7.707,6.276-17.004,6.61-25.313c0.024-0.611,1.239-1.076,2.087-1.015
	c5.265-3.638,10.969-6.738,15.317-11.484c-2.313-0.24-4.517-0.771-6.836-1.185C464.775,172.589,461.939,174.235,459.287,176.319z
	 M438.556,183.349c-2.656,0.484-12.134,1.459-13.45,4.209c-0.507,1.06,11.611,1.053,16.048,1.019
	c2.753-2.186,5.491-4.388,8.223-6.601C445.751,182.261,442.129,182.698,438.556,183.349z M456.78,222.978
	c-11.888,1.44-23.665,3.929-35.187,7.166c-1.795,0.504-1.229,2.644,0.572,2.138c10.773-3.027,21.719-5.314,32.807-6.831
	c7.973-1.09,16.387-2.073,24.424-1.119c1.506,0.179,2.92-2.006,0.967-2.238C472.56,221.167,464.538,222.038,456.78,222.978z" fill="#c1ff70"></path>
</svg>