<svg xmlns="http://www.w3.org/2000/svg" xmlns:xlink="http://www.w3.org/1999/xlink" version="1.1" id="Layer_1" x="0px" y="0px" enable-background="new 0 0 595.279 595.281" xml:space="preserve" viewBox="29.9 178.11 535.48 239.06">
<path id="color_x5F_2" fill="#c1ff70" d="M481.542,378.65c6.096,6.959,9.688,19.738,5.426,28.373  c-2.551-0.75-5.063-1.619-7.459-2.696c0.947-8.048,0.563-17.39-3.11-24.716C478.12,379.314,479.835,378.993,481.542,378.65z   M562.456,376.943c-0.271-20.371-1.933-42.551-9.865-61.563c-4.211-10.097-10.346-16.468-20.859-20.358  c-12.031-4.451-25.161-5.078-36.654-11.08c-8.171,5.652-17.684,9.204-25.682,15.129c-0.354,0.263-1.604,0.472-2.271,0.465  c-0.515,0.027-0.941-0.104-0.985-0.455c-0.429-3.402-1.528-7.227-4.208-9.468c-1.104,2.462-1.944,5.061-2.658,7.549  c-4.164,14.5-5.589,29.743-5.714,44.791c7.073-0.362,14.372-0.097,20.12,3.403c4.244,2.582,7.521,7.83,5.318,12.859  c-2.277,5.203-7.082,8.477-11.263,12.08c3.328,1.893,5.833,4.496,7.681,7.537c0.217-0.156,0.479-0.275,0.775-0.324  c13.936-2.351,27.195-6.594,41.251-7.43c0.556-10.924,0.594-21.914-0.056-32.83c-0.043-0.73,2.871-1.205,2.896-0.775  c0.663,11.134,0.612,22.345,0.023,33.484c0.852-0.021,1.703-0.035,2.561-0.027c1.961,0.018,1.438,2.195-0.24,2.182  c-13.072-0.113-25.378,3.221-37.955,5.893c6.307,7.603,9.601,20.822,4.729,29.697c1.861,0.5,3.73,0.957,5.572,1.404  c6.981,1.699,14.297,3.359,21.701,4.555c5.088,0.604,11.063,1.248,16.849,1.711c4.329,0.135,8.627-0.006,12.844-0.509  c5.95-0.709,12.956-2.192,14.142-9.019C562.163,396.33,562.583,386.588,562.456,376.943z M386.162,339.207  c0.2,0.594-0.432,1.418-1.469,1.415c-4.144-0.011-10.128,0.169-13.579-2.724c-1.181,2.256-1.457,6.082-1.793,8.885  c0.131,0.029,0.259,0.064,0.372,0.134c1.156,0.722,2.496,1.028,3.819,1.341c4.51-3.808,10.812-4.871,17.23-4.957  c-0.285-1.998-0.953-3.908-1.635-5.816C388.21,338.178,387.216,338.758,386.162,339.207z M452.265,288.314  c0.091-0.004,0.171,0,0.25,0.004c-0.406-3.079-0.786-6.161-1.159-9.243c-4.709,2.131-5.429,8.041-5.431,13.431  C447.239,290.196,449.175,288.446,452.265,288.314z M452.722,289.855c-0.232,0.124-0.506,0.208-0.811,0.221  c-3.652,0.155-4.664,5.656-5.369,8.459c-0.123,0.494-0.813,0.848-1.492,0.973c-0.844,0.28-1.916,0.164-1.92-0.664  c-0.013-2.633-0.143-5.674,0.066-8.65c-8.174,1.392-16.406,6.543-23.29,10.771c-9.163,5.625-13.545,13.276-17.35,23.09  c-0.044,0.115-0.126,0.221-0.232,0.317c-0.136,0.556-0.327,1.091-0.569,1.579c-1.285,2.58-3.963,5.467-7.082,5.555  c-0.522,0.016-0.983-0.043-1.399-0.15c-0.349,1.379-0.978,2.648-1.822,3.773c0.923,2.695,2.034,5.346,2.281,8.197  c3.834,0.104,7.614,0.456,10.981,0.68c0-0.113,0.015-0.234,0.067-0.375c3.847-10.123,8.363-28.488,21.671-29.516  c11.852-0.915,15.377,20.426,17.947,28.467c2.001-0.127,4.095-0.301,6.236-0.451c0.098-12.881,0.906-26.521,4.104-39.266  C453.958,298.549,453.309,294.206,452.722,289.855z M371.536,350.236c0.151-0.182,0.311-0.35,0.467-0.521  c-1.01-0.264-2.023-0.486-3-0.816c-1.395,7.613-2.644,15.275-3.393,22.98c-0.605,6.229-1.5,13.18,0.78,19.188  c2.839,7.48,11.306,15.359,19.139,8.627c0.001-0.452,0.009-0.895,0.029-1.314c0.317-6.636,2.038-12.945,3.688-19.336  C382.634,373.361,363.272,360.184,371.536,350.236z M468.962,297.79c6.433-4.342,13.596-7.549,20.229-11.558  c0.437-0.263,3.437-2.167,4.803-3.089c0.027-0.205,0.272-0.419,0.604-0.602c-0.493-0.652-0.979-1.31-1.454-1.975  c-2.126-2.98-4.14-6.032-6.108-9.116c-0.172-0.082-0.314-0.199-0.396-0.369c-0.057-0.117-0.109-0.235-0.166-0.352  c-1.271,0.45-2.506,0.974-3.717,1.552c-1.461,0.79-3.143,1.704-4.895,2.672c-1.164,0.707-2.313,1.442-3.445,2.193  c-2.664,1.766-6.135,3.424-8.299,5.811c-1.201,1.325-2.203,2.833-3.074,4.431C466.755,289.417,468.371,293.738,468.962,297.79z"/>
<path id="color_x5F_1" d="M440.026,255.273c-1.1,0.698-1.881,1.56-3.199,1.818c-0.535,0.105-1.484,0.185-1.689-0.508  c-1.297-4.399-0.584-8.756-0.512-13.252c0.02-1.178,2.945-1.688,2.922-0.271c-0.063,3.856-0.608,7.614,0.16,11.386  c0.147-0.12,0.293-0.235,0.44-0.328C439.243,253.422,441.687,254.219,440.026,255.273z M458.052,251.572  c0.399-1.302-2.561-0.954-2.928,0.246c-0.81,2.64-2.594,4.302-5.396,4.362c-1.617,0.034-2.259,2.071-0.282,2.029  C453.686,258.12,456.827,255.569,458.052,251.572z M451.138,234.373c0,1.667,0,3.333,0,5c0,1.231,2.899,0.612,2.899-0.355  c0-1.667,0-3.333,0-5C454.037,232.786,451.138,233.406,451.138,234.373z M430.638,234.373c0,1.667,0,3.333,0,5  c0,1.231,2.899,0.612,2.899-0.355c0-1.667,0-3.333,0-5C433.537,232.786,430.638,233.406,430.638,234.373z M448.978,224.877  c1.257-2.28,3.875-2.635,5.998-1.33c1.121,0.688,3.642-0.834,2.225-1.705c-3.787-2.329-8.808-1.309-11.002,2.67  C445.396,225.967,448.343,226.029,448.978,224.877z M433.151,225.874c-1.667,0-3.333,0-5,0c-0.655,0-1.518,0.216-1.913,0.791  c-0.388,0.564,0.327,0.852,0.785,0.852c1.667,0,3.333,0,5,0c0.655,0,1.517-0.216,1.913-0.791  C434.325,226.161,433.61,225.874,433.151,225.874z M564.478,397.607c-0.594,5.523-0.606,11.625-5.792,14.873  c-11.408,7.145-28.87,4.463-41.377,2.713c-13.107-1.834-27.691-3.963-39.914-9.449c-0.03-0.002-0.058-0.008-0.086-0.01  c-4,0.707-10.052,0.843-13.375-1.176c-0.54-0.328-0.952-0.633-1.298-0.939c-1.272,5.415-5.328,10.206-11.418,10.479  c-10.529,0.469-19.31-7.83-27.355-13.68c-8.281,6.266-20.914,17.082-31.607,13.395c-4.849-1.672-6.427-7.575-6.685-12.521  c-4.133,2.301-9.479,2.967-13.694,0.84c-7.896-3.986-10.033-13.256-9.729-21.408c0.334-9,1.668-17.98,3.199-26.846  c0.656-3.805,1.348-7.606,2.145-11.385c0.273-1.298,0.346-3.615,1.148-4.73c0.156-0.215,0.619-0.493,1.13-0.693  c0-0.01-0.005-0.02-0.005-0.029c0.047-10.404,1.287-20.945,0.584-31.336c-0.404-5.972-3.824-14.636-1.285-20.405  c0.998-2.268,5.424-4.663,7.669-2.76c4.083,3.458,3.313,10.275,6.924,14.272c9.884-2.612,24.726-4.746,20.813,7.041  c-0.092,0.275-0.32,0.49-0.606,0.639c1.134,1.85,0.995,4.531,0.401,7.041c-0.04,0.168-0.153,0.318-0.307,0.451  c0.364,0.699,0.498,1.496,0.438,2.35c3.485-5.98,7.972-10.875,14.667-14.832c7.359-4.35,15.678-9.42,24.284-10.905  c0.567-4.791,2.267-9.182,7.138-11.108c0.219-0.087,0.443-0.125,0.663-0.132c-0.194-1.616-0.392-3.231-0.59-4.847  c-30.181,10.364-27.363-34.53-27.283-53.542c-7.202,3.044-14.676,3.274-20.408-4.528c-9.457-12.873-2.05-30.592,12.452-35.319  c7.131-2.325,14.439-0.31,21,2.736c3.995,1.854,7.991,4.023,12.271,5.161c5.83,1.549,10.729,0.856,16.297-1.146  c5.387-1.936,12.152-5.157,18.039-3.709c7.005,1.723,10.478,10.121,9.8,16.897c12.013-5.512,14.28,15.44,14.176,24.592  c-0.099,8.566-1.54,18.228-5.993,25.666c-3.339,5.578-8.275,8.722-14.066,10.86c-0.51,0.318-0.967,0.598-1.344,0.828  c1.129,2.831,2.304,5.643,3.612,8.399c2.69,4.265,5.44,8.525,8.511,12.531c0.004,0.112-0.043,0.201-0.141,0.266  c-0.121,0.094-0.247,0.182-0.369,0.275c18.104,9.583,45.143,6.148,55.895,26.792c9.203,17.672,11.358,39.525,12.142,59.129  C565.534,378.113,565.518,387.924,564.478,397.607z M494.184,200.007c0.429-0.096,0.907-0.192,1.437-0.29  C495.167,199.732,494.686,199.836,494.184,200.007z M486.474,270.731c-1.271,0.45-2.506,0.975-3.717,1.552  c-1.676,0.802-3.303,1.705-4.895,2.672c-1.164,0.707-2.313,1.441-3.445,2.193c-2.664,1.766-6.135,3.424-8.299,5.811  c-1.201,1.325-2.203,2.833-3.074,4.431c3.711,2.027,5.328,6.348,5.918,10.4c6.433-4.342,13.596-7.549,20.229-11.559  c0.437-0.263,3.437-2.167,4.803-3.089c0.027-0.205,0.272-0.419,0.604-0.601c-0.493-0.652-0.979-1.31-1.454-1.975  c-2.126-2.98-4.14-6.032-6.108-9.116c-0.172-0.082-0.313-0.199-0.396-0.369C486.581,270.967,486.529,270.849,486.474,270.731z   M451.318,270.592c0.368-0.148,1.929-0.543,2.022,0.215c1.052,8.477,1.998,16.986,3.317,25.431c0.455-1.374,0.931-2.739,1.453-4.081  c0.493-1.263,1.032-2.578,1.64-3.874c-0.276-0.225-0.045-0.534,0.377-0.8c1.344-2.693,3.059-5.221,5.519-6.873  c6.407-4.303,12.722-8.923,20.03-11.564c-2.342-5.101-4.256-10.375-6.379-15.57c-2.039-0.1-4-0.785-5.554-2.204  c-0.825-0.753,1.901-1.87,2.687-1.154c4.646,4.242,12.353-0.53,11.707-6.535c-0.692-6.456-7.567-5.641-10.196-0.839  c-0.144,0.26-0.505,0.466-0.923,0.596c-0.146,0.352-0.534,0.642-0.987,0.802l-0.442,1.153c0,0-0.31-0.411-0.801-1.091  c-0.211-0.069-0.396-0.184-0.523-0.364c-6.077-8.542-11.663-16.471-7.463-26.884c-10.991,1.198-20.275-2.606-30.612-5.894  c-3.113,2.33-6.64,4.791-10.302,6.674c0.177,0.108,0.289,0.274,0.287,0.514C426.136,234.15,422.409,282.212,451.318,270.592z   M445.925,292.506c1.314-2.311,3.25-4.062,6.34-4.192c0.091-0.004,0.171,0,0.25,0.004c-0.406-3.079-0.786-6.161-1.159-9.243  C446.646,281.206,445.927,287.116,445.925,292.506z M402.324,324.372c-0.136,0.556-0.327,1.091-0.569,1.579  c-1.285,2.58-3.963,5.467-7.082,5.555c-0.522,0.016-0.983-0.043-1.399-0.15c-0.349,1.379-0.978,2.648-1.822,3.773  c0.923,2.695,2.034,5.346,2.281,8.197c3.834,0.104,7.614,0.456,10.981,0.68c0-0.113,0.015-0.234,0.067-0.375  c3.847-10.123,8.363-28.488,21.671-29.516c11.852-0.915,15.377,20.426,17.947,28.467c2.001-0.127,4.095-0.301,6.236-0.451  c0.098-12.881,0.906-26.521,4.104-39.266c-0.782-4.318-1.431-8.66-2.019-13.011c-0.232,0.124-0.506,0.208-0.811,0.221  c-3.652,0.155-4.664,5.656-5.369,8.459c-0.123,0.493-0.813,0.847-1.492,0.974c-0.844,0.279-1.916,0.162-1.92-0.664  c-0.013-2.634-0.143-5.675,0.066-8.651c-8.174,1.392-16.406,6.543-23.29,10.77c-9.163,5.627-13.545,13.277-17.35,23.092  C402.511,324.17,402.429,324.275,402.324,324.372z M371.277,288.058c0.021,2.691,0.517,5.344,0.919,7.996  c2,13.17,0.609,26.333,0.48,39.581c0.09,0.051,0.175,0.109,0.242,0.188c2.568,2.996,8.342,2.787,11.981,2.793  c1.433-0.529,2.666-1.563,3.624-2.842c-0.012-0.146,0.109-0.301,0.316-0.443c1.25-1.861,1.942-4.146,1.836-6.162  c-0.004-0.055,0.006-0.107,0.024-0.158c-0.383-0.931-0.55-2.043-0.579-3.199c-0.033-1.26,2.893-1.732,2.932-0.234  c0.041,1.589,0.548,4.804,2.837,3.539c1.622-0.895,3.063-2.691,3.497-4.51c0.562-2.34,0.046-5.35-2.857-5.59  c-2.5-0.207-5.006,0.607-7.308,1.506c-1.476,0.576-3.125-0.932-1.271-1.656c3.536-1.381,8.049-2.943,11.762-1.322  c0.256,0.111,0.486,0.247,0.705,0.393c0.898-1.475,1.899-3.5,0.996-4.832c-0.824-1.213-2.345-1.502-3.728-1.586  c-3.464-0.207-7.078,0.506-10.337,1.656c-1.762,0.623-2.244-1.354-0.525-1.959c4.15-1.466,9.182-2.438,13.551-1.539  c0.49,0.102,0.912,0.24,1.303,0.396c0.421-3.418-0.465-6.555-4.865-6.191c-3.26,0.27-6.36,1.309-9.516,2.096  c-1.752,0.437-2.183-1.123-0.42-1.563c4.24-1.058,8.697-2.763,13.135-2.179c0.74,0.098,1.363,0.289,1.904,0.543  c2.795-11.056-19.518-3.729-24.57-1.949c-1.758,0.62-2.234-1.332-0.519-1.938c0.917-0.322,2.257-0.768,3.847-1.244  c-2.805-3.313-3.114-7.891-4.994-11.714C373.841,282.188,371.255,284.946,371.277,288.058z M369.321,346.783  c0.131,0.029,0.259,0.064,0.372,0.135c1.156,0.721,2.496,1.028,3.819,1.34c4.51-3.807,10.812-4.871,17.23-4.957  c-0.285-1.998-0.953-3.908-1.635-5.815c-0.9,0.692-1.895,1.272-2.947,1.722c0.2,0.594-0.432,1.418-1.469,1.416  c-4.145-0.011-10.128,0.168-13.579-2.725C369.934,340.154,369.658,343.98,369.321,346.783z M389.246,379.043  c-6.612-5.682-25.974-18.859-17.71-28.807c0.151-0.182,0.311-0.35,0.467-0.521c-1.01-0.264-2.023-0.486-3-0.815  c-1.395,7.612-2.644,15.274-3.393,22.979c-0.605,6.229-1.5,13.18,0.779,19.188c2.84,7.479,11.307,15.358,19.14,8.626  c0.001-0.451,0.009-0.895,0.028-1.314C385.876,391.744,387.597,385.434,389.246,379.043z M459.782,397.398  c-0.52-0.623-1.206-1.053-2.121-1.713c-3.053-2.205-11.213-8.602-5.304-9.781c-0.162-0.088-0.327-0.168-0.485-0.264  c-0.88-0.53-2.283-1.324-2.211-2.533c0.079-1.32,1.844-2.053,2.866-2.465c0.056-0.021,0.114-0.039,0.171-0.057  c-0.976-0.758-1.736-1.703-1.816-2.904c-0.166-2.469,1.011-3.518,2.723-3.795c-0.907-1.004-1.16-2.143-0.195-3.403  c2.415-3.157,8.17-2.864,11.52-1.537c0.244,0.097,0.477,0.205,0.714,0.31c3.739-3.211,9.927-6.936,10.844-12.106  c1.042-5.877-3.242-10.125-8.542-11.625c-8.314-2.353-16.92-1.265-25.404-0.849c-1.23,0.06-1.437-0.697-1.033-1.299  c-1.5-4.648-2.646-9.408-4.416-13.971c-1.625-4.191-4.868-13.035-10.506-13.258c-6.819-0.27-11.266,8.636-13.646,13.85  c-2.073,4.539-3.634,9.246-5.404,13.901c-0.051,0.136-0.14,0.254-0.251,0.358c0.898,0.465-0.489,1.918-1.641,1.861  c-5.229-0.257-10.444-0.842-15.688-0.578c-5.244,0.262-14.543,0.805-16.769,6.762c-3.66,9.795,12.563,20.068,18.642,25.414  c0.332,0.115,0.53,0.357,0.428,0.756c-1.359,5.281-2.932,10.545-3.491,15.99c-0.526,5.121-1.017,14.504,4.741,17.264  c5.599,2.684,13.258-2.189,17.863-5.107c4.061-2.574,7.896-5.439,11.764-8.289c0.055-0.039,0.125-0.056,0.185-0.088  c0.099-0.055,0.204-0.105,0.313-0.148c0.541-0.213,1.17-0.26,1.568,0.021c5.871,4.148,11.51,9.428,18.262,12.131  c5.371,2.148,10.592,2.705,14.485-2.432C460.52,404.416,460.787,401.32,459.782,397.398z M472.566,378.67  c-3.104-4.607-7.965-8.904-13.853-8.754c-4.098,0.104-2.582,3.131-0.875,4.018c0.545,0.283,1.092,0.537,1.645,0.781  c1.377,0.436,2.635,0.938,3.513,1.303c0.991,0.324,1.983,0.646,2.964,1.002c1.652,0.6-0.74,2.052-1.744,1.688  c-1.084-0.395-5.205-1.447-8.187-3.055c-0.705-0.165-1.392-0.247-2.014-0.156c-0.533,0.075-0.192,1.984-0.054,2.278  c0.314,0.667,0.907,1.235,1.513,1.644c2.665,1.805,5.972,3.094,9.153,3.609c1.681,0.271-0.75,1.834-1.748,1.674  c-2.405-0.391-4.855-1.273-7.049-2.322c-0.519-0.248-1.117-0.535-1.714-0.869c-0.123,0.08-0.271,0.16-0.468,0.238  c-2.857,1.146,1.385,3.039,2.589,3.566c2.054,0.904,4.388,1.439,6.343,2.537c1.146,0.646-1.537,1.795-2.318,1.355  c-1.747-0.982-3.702-1.537-5.588-2.254c-0.375,0.225-0.811,0.389-1.151,0.391c-2.047,0,2.331,3.77,3.155,4.431  c1.643,1.315,3.352,2.53,5.058,3.761c0.397,0.063,0.726,0.264,0.831,0.648c0,0.002,0.001,0.006,0.002,0.009  c2.02,2.021,0.134,5.519,3.674,6.976c2.942,1.211,7.059,1.621,10.396,1.164C477.614,395.877,477.537,386.045,472.566,378.67z   M481.542,378.65c-1.707,0.343-3.422,0.664-5.144,0.961c3.674,7.328,4.058,16.668,3.11,24.716c2.396,1.077,4.908,1.946,7.459,2.696  C491.229,398.391,487.638,385.611,481.542,378.65z M562.456,376.943c-0.271-20.371-1.933-42.551-9.865-61.563  c-4.211-10.097-10.346-16.468-20.859-20.358c-12.031-4.451-25.161-5.078-36.654-11.08c-8.171,5.652-17.684,9.204-25.682,15.129  c-0.354,0.263-1.604,0.472-2.271,0.465c-0.515,0.027-0.941-0.104-0.985-0.455c-0.429-3.402-1.528-7.227-4.208-9.468  c-1.104,2.462-1.944,5.061-2.658,7.549c-4.164,14.5-5.589,29.743-5.714,44.791c7.073-0.362,14.372-0.097,20.12,3.403  c4.244,2.582,7.521,7.83,5.318,12.859c-2.277,5.203-7.082,8.477-11.263,12.08c3.328,1.893,5.833,4.496,7.681,7.537  c0.217-0.156,0.479-0.275,0.775-0.324c13.936-2.351,27.195-6.594,41.251-7.43c0.556-10.924,0.594-21.914-0.056-32.83  c-0.043-0.73,2.871-1.205,2.896-0.775c0.663,11.134,0.612,22.345,0.023,33.484c0.852-0.021,1.703-0.035,2.561-0.027  c1.961,0.018,1.438,2.195-0.24,2.182c-13.072-0.113-25.378,3.221-37.955,5.893c6.307,7.603,9.601,20.822,4.729,29.697  c1.861,0.5,3.73,0.957,5.572,1.404c6.981,1.699,14.297,3.359,21.701,4.555c5.6,0.901,11.25,1.539,16.849,1.711  c4.329,0.135,8.627-0.006,12.844-0.509c5.95-0.709,12.956-2.192,14.142-9.019C562.163,396.33,562.583,386.588,562.456,376.943z   M339.66,321.025c3.341,6.716-7.248,13.863-11.956,17.791c1.072,3.404,2.146,6.847,2.692,10.377c0.405,2.625,1.274,7.016-0.82,9.209  c-7.454,7.801-17.341-0.262-24.097-5.182c-5.364,4.08-13.171,10.453-19.937,8.025c-7.636-2.738-3.459-16.13-1.999-21.648  c-4.364-3.689-16.368-12.096-10.711-18.293c4.905-5.373,13.595-4.455,20.444-3.986c2.487-6.646,5.482-18.014,14.169-18.455  c7.44-0.377,9.654,12.209,11.293,17.584C325.191,315.965,336.446,314.561,339.66,321.025z M337.078,322.436  c-3.125-6.285-14.39-4.187-20.015-3.896c-1.085,0.057-1.371-0.525-1.146-1.076c-1.129-3.623-4.187-18.5-9.901-16.463  c-5.962,2.125-8.049,11.452-10.037,16.729c-0.006,0.018-0.017,0.029-0.024,0.045c0.347,0.586-0.852,1.711-1.869,1.658  c-4.288-0.219-18.741-2.435-19.556,4.086c-0.761,6.092,7.617,11.281,11.595,14.752c0.334,0.115,0.534,0.357,0.43,0.758  c-1.23,4.748-5.489,16.936,0.371,20.154c5.23,2.875,13.845-5.115,17.82-8.049c0.053-0.037,0.119-0.054,0.176-0.084  c0.1-0.056,0.205-0.105,0.313-0.15c0.545-0.217,1.179-0.266,1.578,0.02c3.011,2.141,5.871,4.672,9.141,6.42  c2.619,1.4,9.435,4.6,11.373-0.033c0.479-1.146,0.622-2.375,0.569-3.611c-0.215-4.982-1.739-9.823-3.227-14.549  c-0.164-0.521,0.217-0.959,0.75-1.211C328.938,334.941,339.702,327.713,337.078,322.436z M259.178,321.025  c3.34,6.716-7.248,13.863-11.956,17.791c1.072,3.404,2.145,6.847,2.692,10.377c0.406,2.625,1.274,7.016-0.82,9.209  c-7.453,7.801-17.342-0.262-24.097-5.182c-5.363,4.08-13.171,10.451-19.937,8.024c-7.636-2.737-3.459-16.129-1.999-21.649  c-4.365-3.688-16.368-12.096-10.712-18.293c4.904-5.373,13.596-4.455,20.444-3.984c2.486-6.648,5.482-18.016,14.168-18.455  c7.44-0.377,9.654,12.209,11.293,17.582C244.709,315.965,255.964,314.561,259.178,321.025z M256.596,322.436  c-3.125-6.285-14.39-4.187-20.015-3.896c-1.085,0.057-1.371-0.525-1.147-1.076c-1.129-3.623-4.186-18.5-9.901-16.463  c-5.961,2.125-8.049,11.452-10.037,16.729c-0.006,0.018-0.017,0.029-0.024,0.045c0.347,0.586-0.852,1.711-1.869,1.658  c-4.288-0.219-18.741-2.435-19.556,4.086c-0.762,6.092,7.616,11.281,11.594,14.752c0.334,0.115,0.534,0.356,0.431,0.758  c-1.23,4.748-5.489,16.936,0.371,20.154c5.23,2.875,13.845-5.113,17.82-8.049c0.052-0.039,0.119-0.054,0.177-0.084  c0.099-0.057,0.204-0.107,0.312-0.15c0.545-0.217,1.179-0.266,1.578,0.02c3.011,2.141,5.871,4.672,9.141,6.42  c2.619,1.4,9.435,4.6,11.373-0.033c0.479-1.146,0.622-2.375,0.569-3.611c-0.214-4.982-1.739-9.823-3.227-14.549  c-0.164-0.521,0.217-0.959,0.751-1.211C248.457,334.941,259.22,327.713,256.596,322.436z M178.696,321.025  c3.34,6.716-7.248,13.863-11.957,17.791c1.072,3.404,2.146,6.847,2.692,10.377c0.407,2.625,1.274,7.016-0.82,9.209  c-7.455,7.801-17.341-0.262-24.097-5.182c-5.364,4.08-13.17,10.453-19.938,8.025c-7.636-2.738-3.459-16.13-1.998-21.648  c-4.365-3.689-16.369-12.096-10.712-18.293c4.905-5.373,13.595-4.455,20.444-3.986c2.487-6.646,5.482-18.014,14.169-18.455  c7.439-0.377,9.654,12.209,11.293,17.584C164.228,315.965,175.482,314.561,178.696,321.025z M176.114,322.436  c-3.125-6.285-14.39-4.187-20.015-3.896c-1.085,0.057-1.371-0.525-1.148-1.076c-1.128-3.623-4.185-18.5-9.901-16.463  c-5.96,2.125-8.048,11.452-10.037,16.729c-0.006,0.018-0.017,0.029-0.024,0.045c0.347,0.586-0.852,1.711-1.869,1.658  c-4.288-0.219-18.741-2.435-19.556,4.086c-0.761,6.092,7.617,11.281,11.595,14.752c0.335,0.115,0.534,0.357,0.431,0.758  c-1.231,4.746-5.489,16.936,0.371,20.154c5.231,2.875,13.845-5.113,17.82-8.049c0.052-0.039,0.119-0.054,0.177-0.084  c0.1-0.057,0.204-0.107,0.313-0.15c0.544-0.217,1.178-0.264,1.577,0.02c3.011,2.141,5.871,4.672,9.141,6.42  c2.619,1.4,9.435,4.6,11.373-0.033c0.479-1.146,0.622-2.375,0.569-3.611c-0.214-4.982-1.739-9.824-3.228-14.549  c-0.164-0.521,0.217-0.959,0.751-1.211C167.975,334.941,178.738,327.713,176.114,322.436z M98.214,321.025  c3.34,6.716-7.248,13.863-11.956,17.791c1.072,3.404,2.145,6.847,2.691,10.377c0.406,2.627,1.274,7.016-0.82,9.209  c-7.453,7.802-17.341-0.262-24.096-5.182c-5.363,4.08-13.171,10.451-19.937,8.024c-7.636-2.737-3.459-16.129-1.999-21.649  c-4.365-3.688-16.368-12.096-10.712-18.293c4.905-5.373,13.596-4.455,20.444-3.984c2.486-6.648,5.482-18.016,14.168-18.455  c7.44-0.377,9.654,12.209,11.294,17.582C83.745,315.965,95,314.561,98.214,321.025z M95.632,322.436  c-3.125-6.285-14.39-4.187-20.015-3.896c-1.085,0.057-1.37-0.525-1.147-1.076c-1.128-3.621-4.186-18.5-9.902-16.463  c-5.96,2.125-8.049,11.452-10.036,16.729c-0.006,0.018-0.017,0.029-0.024,0.045c0.347,0.586-0.852,1.711-1.869,1.658  c-4.288-0.219-18.742-2.435-19.556,4.086c-0.762,6.092,7.616,11.281,11.594,14.752c0.334,0.115,0.534,0.356,0.431,0.758  c-1.23,4.748-5.489,16.936,0.371,20.154c5.229,2.875,13.845-5.113,17.82-8.049c0.052-0.039,0.119-0.054,0.177-0.084  c0.099-0.057,0.203-0.107,0.312-0.15c0.545-0.217,1.179-0.266,1.578,0.02c3.011,2.141,5.871,4.672,9.141,6.42  c2.619,1.4,9.434,4.6,11.373-0.033c0.479-1.146,0.622-2.375,0.569-3.611c-0.214-4.982-1.739-9.823-3.227-14.549  c-0.164-0.521,0.217-0.959,0.751-1.211C87.492,334.943,98.256,327.713,95.632,322.436z" fill="#c1ff70"/>
</svg>