<svg xmlns="http://www.w3.org/2000/svg" xmlns:xlink="http://www.w3.org/1999/xlink" version="1.1" id="Layer_1" x="0px" y="0px" enable-background="new 0 0 595.279 595.281" xml:space="preserve" viewBox="90.34 121.46 414.61 352.35">
<path id="color_x5F_2" fill="#c1ff70" d="M436.712,221.323c11.2,0,22.401,0,33.601,0c0,56.606,0,113.212,0,169.82  c-11.199,0-22.4,0-33.601,0C436.712,334.537,436.712,277.93,436.712,221.323z M374.257,391.729h33.601c0-44.793,0-89.587,0-134.38  h-33.601C374.257,302.142,374.257,346.936,374.257,391.729z M313.861,296.257c0,31.824,0,63.648,0,95.472h33.602  c0-31.824,0-63.648,0-95.472C336.262,296.257,325.062,296.257,313.861,296.257z"/>
<path id="color_x5F_1" d="M288.357,329.674c-9.969-9.43-19.178-19.395-28.68-29.271c-0.004-0.004-0.012-0.007-0.017-0.013  c-0.044-0.053-0.102-0.104-0.184-0.152c-3.725-2.198-4.476-7.52-5.08-11.399c-0.685-4.4-0.948-8.855-1.377-13.29  c0.401-0.093,0.789-0.257,1.103-0.485c2.659-1.924,5.707-3.128,8.735-4.34c0.502-0.201,0.743-0.396,0.81-0.565  c0.662-0.132,1.32-0.425,1.421-0.803c1.807-6.79-0.354-14.46-6.929-17.725c-0.422-0.209-1.575,0.107-2.186,0.5  c-0.256-0.153-0.652-0.202-1.204-0.016c-3.914,1.326-7.471,2.775-11.607,3.259c-0.476,0.056-0.888,0.285-1.164,0.56  c-1.235-0.138-2.606-0.079-4.137,0.225c-1.316,0.262-2.419,1.906-0.421,1.51c19.529-3.876,7.901,36.627,19.602,43.845  c7.583,7.886,14.842,16.007,22.731,23.597c10.735,10.328,26.444,23.145,24.059,39.976c-1.582,11.164-12.225,18.458-21.596,22.942  c-9.084,4.347-19.776,7.48-29.914,7.566c-0.502,0.005-1.514,0.459-1.855,0.826c-0.712-4.29-1.129-8.639-1.386-12.965  c-0.4-6.726-0.232-13.532,0.887-20.185c0.851-5.059,2.581-11.392,7.101-14.442c2.114,4.271,4.45,8.351,7.25,12.038  c0.748,0.985,3.521-0.111,2.662-1.241c-13.292-17.5-16.324-43.525-33.89-57.756c-0.005-0.055-0.027-0.107-0.086-0.153  c-6.464-5.041-13.716-8.049-14.574-17.191c-0.028-0.301-0.509-0.386-1.07-0.324c-0.008-0.378-0.016-0.754-0.024-1.128  c0.188,0.074,0.45,0.105,0.807,0.071c5.613-0.548,5.599-5.014,4.33-9.487c-0.849-2.991-2.037-5.872-2.797-8.891  c-0.324-1.283-0.52-2.599-0.321-3.915c0.375-2.485,3.829-1.436,5.426-1.082c0.6,0.133,1.648-0.333,2.104-0.824  c0.505-0.042,1.014-0.188,1.27-0.423c1.83-1.693,4.257-1.868,6.618-1.451c0.7,0.124,1.519-0.051,2.049-0.549  c0.434-0.407,0.333-0.989-0.295-1.1c-3.752-0.663-7.754-0.141-10.655,2.501c-6.305-1.255-8.663,0.46-9.146,3.448  c-0.134-3.768-0.243-7.536-0.268-11.306c9.003-1.997,17.367-10.716,20.461-18.688c2.885-7.435,1.621-15.266-5.526-19.446  c-6.553-3.833-12.06-0.741-17.951,1.592c-1.604,0.472-3.135,0.932-4.661,1.273c-17.161,0.019-33.842-7.9-50.978-8.995  c-6.731-0.43-14.488,0.268-20.021,4.537c-5.965,4.603-7.799,11.763-8.169,18.935c-24.396,8.675-19.414,42.234-8.765,60.237  c6.186,10.458,31.348,45.301,43.497,25.39c9.447,5.048,20.596-7.431,24.935-15.15c3.306,0.125,6.372-2.529,8.24-5.102  c1.077-1.483-1.661-1.832-2.41-0.8c-1.833,2.524-4.248,4.969-7.333,2.923c-2.529-1.677-3.9-4.942-4.679-7.745  c-0.808-2.905-1.026-6.3,0.297-9.086c0.782-1.647,2.1-2.299,3.579-2.421c1.621,0.125,3.36,0.496,4.663,0.827  c0.17,0.062,0.338,0.122,0.502,0.185c0.141,0.053,0.296,0.074,0.457,0.072c0.027,0.007,0.061,0.016,0.087,0.023  c-0.123,0.116-0.232,0.238-0.357,0.353c-0.71,0.646,2.09,0.378,2.647-0.129c8.591-7.816,10.5-18.991,10.759-30.062  c2.537,1.307,5.17,1.813,7.795,1.681c0.07,9.927,0.662,19.84,0.821,29.767c0.118,7.391,0.805,16.504-2.133,23.5  c-4.523,10.773-23.601,4.31-23.368,17.953c0.026,1.53,2.959,1.089,2.937-0.219c-0.141-8.23,8.124-7.347,13.954-9.223  c4.629-1.489,8.411-5.501,9.953-10.025c1.141-3.351,1.558-7.086,1.682-10.856c2.359,4.208,6.567,6.787,10.793,9.828  c0.017,0.179,0.123,0.357,0.358,0.522c15.098,10.563,20.053,29.529,27.972,45.949c-11.358-3.078-22.65-6.49-34.07-9.326  c-1.131-0.28-2.272-0.522-3.416-0.75c0.194-0.493,0.009-0.991-0.871-1.106c-5.187-0.688-10.384-1.211-15.59-1.613  c-0.609-9.134-7.626-12.108-16.172-12.315c-6.021-0.146-11.908-0.116-17.93-0.734c-7.488-0.77-14.957-1.499-22.362,0.237  c-1.103,0.259-1.337,1.007-0.944,1.445c-2.377,3.095-2.137,7.128-1.642,10.87c-9.058,0.228-17.438,2.86-24.658,8.443  c-9.013,6.97-14.582,17.784-19.417,27.825c-5.422,11.259-9.922,21.574-8.958,34.316c0.118,1.554,1.289,2.761,2.727,3.74  c2.731,11.584,5.964,22.375,17.96,26.721c-0.838,12.394-1.582,24.79-1.62,37.217c-0.003,0.887,2.894,0.343,2.897-0.775  c0.038-12.075,0.74-24.121,1.549-36.162c0.902-0.467,1.494-1.423,0.306-1.78c-0.062-0.019-0.12-0.041-0.182-0.059  c1.236-18.204,2.652-36.399,2.327-54.666c-0.016-0.9-2.917-0.338-2.897,0.775c0.2,11.243-0.263,22.459-0.935,33.668  c-4.114-0.319-8.379-1.706-12.067-3.408c-1.216-0.563-2.984-1.367-4.465-2.404c-0.101-0.433-0.202-0.865-0.302-1.298  c-0.164-0.706-1.002-0.85-1.739-0.635c-0.257-0.369-0.46-0.755-0.576-1.159c-0.915-3.22-0.39-7.675,0.001-10.896  c0.782-6.447,3.399-12.709,6.219-18.498c8.882-18.229,19.055-39.483,42.364-39.869c0.278-0.004,1.09-0.284,1.667-0.563  c0.639,0.469,2.854-0.146,2.731-1.047c-0.48-3.54-0.832-7.395,1.398-10.347c11.09-2.148,22.546,1.245,33.731,0.959  c8.243-0.21,17.051,0.78,18.024,10.186c-8.589-0.583-17.199-0.837-25.821-0.854c-1.692-0.003-2.192,2.217-0.23,2.221  c12.662,0.024,25.292,0.564,37.868,1.958c2.917,0.419,5.82,0.916,8.678,1.61c11.574,2.814,23.001,6.334,34.5,9.443  c-9.626,6.683-8.882,24.059-8.451,34.162c0.291,6.823,1.145,13.682,2.73,20.329c0.419,1.756,1.239,6.672,3.291,8.158  c-11.457,2.771-30.233-1.382-38.081-1.458c-0.909-0.01-3.143,1.354-1.199,1.372c1.981,0.021,4.717,0.287,7.9,0.631  c-0.067,0.126-0.102,0.262-0.09,0.405c1.609,20.085,2.811,40.285,2.85,60.442c0.002,1.294,2.909,0.702,2.906-0.329  c-0.038-20.08-1.212-40.197-2.806-60.208c17.934,1.955,45.858,4.644,40.135-16.682c-0.056-0.208-0.288-0.312-0.598-0.337  c6.221-1.279,12.336-3.354,18.021-5.764c9.961-4.222,20.564-10.823,24.551-21.413C311.354,353.438,298.229,339.012,288.357,329.674z   M252.613,271.853c-0.807-6.28-2.69-12.746-7.602-15.081c3.516-0.675,6.711-1.88,10.187-3.058c0.479-0.162,0.775-0.408,0.938-0.663  c5.88,3.155,7.687,10.441,6.116,16.591c-0.162,0.026-0.323,0.069-0.475,0.13c-3.072,1.229-6.132,2.488-8.905,4.293  C252.793,273.328,252.708,272.589,252.613,271.853z M150.896,207.268c4.688-0.306,9.607,0.405,13.841,1.064  c1.42,0.221,2.842,0.488,4.265,0.773C163.08,208.282,156.117,207.457,150.896,207.268z M217.286,280.019  c-0.044-4.938-0.231-9.873-0.417-14.808c1.169,6.804,6.006,15.712,1.621,16.141c-0.486,0.047-0.901,0.275-1.175,0.554  C217.302,281.269,217.291,280.637,217.286,280.019z M97.796,411.19c3.914,2.127,9.149,3.397,13.572,3.614  c0.208,0.011,0.705-0.127,1.183-0.307c-0.372,6.108-0.801,12.214-1.219,18.321c-9.225-4.114-12.276-12.772-14.588-22.167  C97.126,410.84,97.484,411.021,97.796,411.19z M260.868,396.637c2.109,7.859-0.715,12.069-5.927,14.167  c-2.024-1.283-2.987-7.229-3.361-8.797c-0.409-1.716-0.752-3.45-1.049-5.191c0.12,0.041,0.299,0.064,0.566,0.063  c3.497-0.029,7.025-0.413,10.529-1.056C261.141,396.035,260.787,396.333,260.868,396.637z M252.202,251.971  c-1.054-4.832,8.92-6.471,11.956-7.039c1.706-0.318,3.528-1.035,4.991,0.169c3.185,2.621,5.407,6.327,6.733,10.211  c1.487,4.357,2.674,9.417,1.704,14.032c-0.437,2.074-2.489,2.318-4.316,3.133c-2.637,1.176-5.274,2.351-7.912,3.527  c-2.635,1.174-5.579-1.273-7.733-2.574c-0.509-0.307,1.964-1.485,2.719-1.029c1.242,0.75,5.112,2.28,3.661,2.927  c0.782-0.349,1.563-0.697,2.344-1.045c2.009-0.896,4.017-1.791,6.026-2.687c2.621-1.169,2.518-0.803,2.57-3.941  c0.05-3.028-0.27-6.076-1.137-8.989c-0.869-2.918-1.941-5.892-3.679-8.422c-0.717-1.044-3.279-4.622-4.074-4.5  c-2.764,0.424-11.833,1.423-10.955,5.451C255.274,251.99,252.363,252.71,252.202,251.971z M473.203,220.152  c-0.064,0-0.129,0-0.193,0c-0.235-0.082-0.65-0.077-1.089,0c-11.803,0-23.606,0-35.409,0c-0.527-0.183-1.968,0.071-2.496,0.582  c-0.576,0.293-0.9,0.586-0.201,0.589c0,56.837,0,113.673,0,170.51c-0.441,0.254-0.616,0.481,0.008,0.481c0.063,0,0.129,0,0.192,0  c0.235,0.082,0.65,0.077,1.089,0c11.804,0,23.606,0,35.409,0c0.527,0.183,1.968-0.071,2.496-0.582  c0.576-0.293,0.901-0.586,0.201-0.589c0-56.837,0-113.674,0-170.511C473.651,220.379,473.827,220.152,473.203,220.152z   M470.313,391.144c-11.199,0-22.4,0-33.601,0c0-56.607,0-113.213,0-169.82c11.2,0,22.401,0,33.601,0  C470.313,277.93,470.313,334.537,470.313,391.144z M410.748,255.36c-0.064,0-0.129,0-0.193,0c-0.235-0.082-0.649-0.077-1.089,0  c-11.803,0-23.606,0-35.409,0c-0.526-0.183-1.968,0.071-2.496,0.582c-0.576,0.293-0.9,0.586-0.201,0.589  c0,45.708,0,91.416,0,137.124c-0.441,0.254-0.616,0.48,0.008,0.48c0.063,0,0.129,0,0.192,0c0.235,0.082,0.65,0.077,1.089,0  c11.804,0,23.606,0,35.409,0c0.527,0.184,1.968-0.07,2.496-0.582c0.576-0.293,0.901-0.586,0.201-0.589c0-45.708,0-91.416,0-137.124  C411.197,255.587,411.372,255.36,410.748,255.36z M407.857,257.349c0,44.793,0,89.587,0,134.38c0,0.411,0,0.823,0,1.235  c-11.199,0-22.4,0-33.601,0c0-0.412,0-0.823,0-1.235c0-44.793,0-89.587,0-134.38c0-0.271,0-0.545,0-0.817c11.2,0,22.401,0,33.601,0  C407.857,256.804,407.857,257.077,407.857,257.349z M350.352,295.086c-0.063,0-0.129,0-0.192,0c-0.235-0.082-0.65-0.077-1.09,0  c-11.803,0-23.605,0-35.408,0c-0.527-0.183-1.969,0.071-2.496,0.582c-0.576,0.293-0.901,0.586-0.201,0.589  c0,32.465,0,64.932,0,97.398c-0.442,0.254-0.617,0.48,0.007,0.48c0.064,0,0.129,0,0.193,0c0.234,0.082,0.649,0.077,1.089,0  c11.803,0,23.605,0,35.409,0c0.526,0.184,1.968-0.07,2.496-0.582c0.575-0.293,0.9-0.586,0.2-0.589c0-32.466,0-64.932,0-97.397  C350.801,295.313,350.976,295.086,350.352,295.086z M347.462,391.729c0,0.411,0,0.823,0,1.235c-11.2,0-22.401,0-33.602,0  c0-0.412,0-0.823,0-1.235c0-31.824,0-63.648,0-95.472c11.2,0,22.401,0,33.602,0C347.462,328.081,347.462,359.905,347.462,391.729z   M462.494,158.633c-0.146-0.065-0.308-0.097-0.476-0.1c0.145-0.423-0.049-0.838-0.857-0.971c-5.21-0.853-10.433,1.529-12.501,6.529  c-2.161,5.223,1.633,10.921,6.96,11.948c4.947,0.954,10.02-0.952,12.536-5.435C471.059,165.43,467.101,160.708,462.494,158.633z   M465.911,169.041c-0.892,3.833-4.995,5.543-8.548,5.097c-9.954-1.251-7.092-16.151,2.775-14.535  c0.033,0.005,0.067,0.004,0.101,0.007c-0.108,0.333,0.021,0.677,0.565,0.922C464.337,162.122,466.846,165.022,465.911,169.041z   M504.519,165.901c-4.949,0-9.896,0-14.846,0c-0.343-8.921-5.113-17.518-12.895-23.206c-2.669-1.951-5.656-3.434-8.683-4.739  c-0.017-0.007-0.043-0.004-0.062-0.01c-0.021-0.02-0.055-0.037-0.11-0.047c-2.441-0.447-4.894-0.632-7.327-0.611  c0-5.198,0-10.395,0-15.592c0-0.533-2.896-0.097-2.896,0.776c0,4.983,0,9.966,0,14.95c-11.717,0.991-22.517,7.365-27.957,18.473  c-1.601,3.267-2.449,6.651-2.661,10.007c-3.813,0-7.625,0-11.438,0c-0.639,0-3.313,1.236-1.865,1.236c4.419,0,8.837,0,13.255,0  c-0.2,12.491,8.458,24.342,21.216,27.969c3.104,0.883,6.29,1.277,9.45,1.254c0,4.994,0,9.989,0,14.983  c0,0.533,2.896,0.097,2.896-0.776c0-4.782,0-9.564,0-14.346c9.729-0.897,18.92-5.919,24.485-14.291  c3.119-4.691,4.567-9.774,4.605-14.793c4.321,0,8.644,0,12.964,0C503.293,167.137,505.967,165.901,504.519,165.901z   M486.659,170.468c-1.515,13.591-12.924,23.757-26.062,24.651c0-2.518,0-5.035,0-7.552c0-0.533-2.896-0.097-2.896,0.776  c0,2.274,0,4.548,0,6.823c-0.542-0.02-1.085-0.051-1.632-0.104c-14.46-1.388-26.052-13.608-26.176-27.926c2.295,0,4.591,0,6.887,0  c0.639,0,3.313-1.236,1.864-1.236c-2.911,0-5.82,0-8.731,0c0.02-0.526,0.052-1.055,0.103-1.586  c1.428-14.766,13.869-24.796,27.685-25.77c0,2.309,0,4.617,0,6.925c0,0.533,2.896,0.097,2.896-0.776c0-2.072,0-4.144,0-6.215  c1.618,0.035,3.245,0.193,4.867,0.486c11.572,5.029,20.708,14.414,21.332,26.936c-1.759,0-3.52,0-5.279,0  c-0.639,0-3.313,1.236-1.865,1.236c2.394,0,4.785,0,7.178,0C486.837,168.226,486.786,169.335,486.659,170.468z" fill="#c1ff70"/>
</svg>